<svg width="19" height="20" viewBox="0 0 19 20" fill="none" xmlns="http://www.w3.org/2000/svg">
<path d="M4.25 0.57251C4.80812 0.57251 5.36077 0.682439 5.87641 0.896022C6.39204 1.1096 6.86056 1.42266 7.25521 1.81731C7.64986 2.21196 7.96291 2.68047 8.17649 3.19611C8.39007 3.71174 8.5 4.26439 8.5 4.82251V9.07251H4.25C3.12283 9.07251 2.04183 8.62474 1.2448 7.82771C0.447768 7.03068 1.81719e-06 5.94968 1.81719e-06 4.82251C1.81719e-06 3.69534 0.447768 2.61434 1.2448 1.81731C2.04183 1.02028 3.12283 0.57251 4.25 0.57251ZM4.25 11.0725H8.5V15.3225C8.5 16.1631 8.25074 16.9848 7.78375 17.6837C7.31675 18.3826 6.65299 18.9273 5.87641 19.249C5.09982 19.5707 4.24529 19.6548 3.42087 19.4908C2.59645 19.3269 1.83917 18.9221 1.2448 18.3277C0.650425 17.7333 0.245652 16.9761 0.0816645 16.1516C-0.0823227 15.3272 0.00184146 14.4727 0.323514 13.6961C0.645186 12.9195 1.18992 12.2558 1.88883 11.7888C2.58774 11.3218 3.40943 11.0725 4.25 11.0725ZM14.75 0.57251C15.8772 0.57251 16.9582 1.02028 17.7552 1.81731C18.5522 2.61434 19 3.69534 19 4.82251C19 5.94968 18.5522 7.03068 17.7552 7.82771C16.9582 8.62474 15.8772 9.07251 14.75 9.07251H10.5V4.82251C10.5 3.69534 10.9478 2.61434 11.7448 1.81731C12.5418 1.02028 13.6228 0.57251 14.75 0.57251ZM10.5 11.0725H14.75C15.5906 11.0725 16.4123 11.3218 17.1112 11.7888C17.8101 12.2558 18.3548 12.9195 18.6765 13.6961C18.9982 14.4727 19.0823 15.3272 18.9183 16.1516C18.7544 16.9761 18.3496 17.7333 17.7552 18.3277C17.1608 18.9221 16.4036 19.3269 15.5791 19.4908C14.7547 19.6548 13.9002 19.5707 13.1236 19.249C12.347 18.9273 11.6833 18.3826 11.2163 17.6837C10.7493 16.9848 10.5 16.1631 10.5 15.3225V11.0725Z" fill="#CCCCCC" fill-opacity="0.8"/>
</svg>
