<svg width="18" height="18" viewBox="0 0 18 18" fill="none" xmlns="http://www.w3.org/2000/svg">
<path d="M9.01686 15.3975C7.26936 15.3975 5.52185 15.12 3.86435 14.565C3.23435 14.3475 2.75435 13.905 2.54435 13.3275C2.32685 12.75 2.40185 12.1125 2.74685 11.5425L3.60935 10.11C3.78935 9.81 3.95436 9.21 3.95436 8.8575V6.69C3.95436 3.9 6.22686 1.6275 9.01686 1.6275C11.8069 1.6275 14.0794 3.9 14.0794 6.69V8.8575C14.0794 9.2025 14.2444 9.81 14.4244 10.1175L15.2794 11.5425C15.6019 12.0825 15.6619 12.735 15.4444 13.3275C15.2269 13.92 14.7544 14.37 14.1619 14.565C12.5119 15.12 10.7644 15.3975 9.01686 15.3975ZM9.01686 2.7525C6.84936 2.7525 5.07936 4.515 5.07936 6.69V8.8575C5.07936 9.405 4.85435 10.215 4.57685 10.6875L3.71435 12.12C3.54935 12.3975 3.50435 12.69 3.60186 12.9375C3.69185 13.1925 3.91686 13.3875 4.22435 13.4925C7.35935 14.5425 10.6819 14.5425 13.8169 13.4925C14.0869 13.4025 14.2969 13.2 14.3944 12.93C14.4919 12.66 14.4694 12.3675 14.3194 12.12L13.4569 10.6875C13.1719 10.2 12.9544 9.3975 12.9544 8.85V6.69C12.9544 4.515 11.1919 2.7525 9.01686 2.7525Z" fill="#3E3D3D"/>
<path d="M10.4114 2.95501C10.3589 2.95501 10.3064 2.94751 10.2539 2.93251C10.0364 2.87251 9.82643 2.82751 9.62393 2.79751C8.98643 2.71501 8.37143 2.76001 7.79393 2.93251C7.58393 3.00001 7.35893 2.93251 7.21643 2.77501C7.07393 2.61751 7.02893 2.39251 7.11143 2.19001C7.41893 1.40251 8.16893 0.88501 9.02393 0.88501C9.87893 0.88501 10.6289 1.39501 10.9364 2.19001C11.0114 2.39251 10.9739 2.61751 10.8314 2.77501C10.7189 2.89501 10.5614 2.95501 10.4114 2.95501Z" fill="#3E3D3D"/>
<path d="M9.01562 17.1075C8.27312 17.1075 7.55312 16.8075 7.02812 16.2825C6.50312 15.7575 6.20312 15.0375 6.20312 14.295H7.32812C7.32812 14.7375 7.50812 15.1725 7.82312 15.4875C8.13812 15.8025 8.57313 15.9825 9.01562 15.9825C9.94563 15.9825 10.7031 15.225 10.7031 14.295H11.8281C11.8281 15.8475 10.5681 17.1075 9.01562 17.1075Z" fill="#3E3D3D"/>
</svg>
