<svg width="68" height="35" viewBox="0 0 68 35" fill="none" xmlns="http://www.w3.org/2000/svg">
<path d="M0.110095 12.7251V19.0703C-0.0101401 27.2303 14.9471 34.1398 33.521 34.5037C52.0949 34.8676 67.2493 28.5464 67.3712 20.3849L67.4016 14.1455L0.110095 12.7251Z" fill="#F7B206"/>
<path d="M67.4394 14.0276C67.5611 6.9154 52.6122 0.892491 34.0501 0.57497C15.4881 0.25745 0.341944 5.76556 0.220284 12.8777C0.0986242 19.9899 15.0475 26.0128 33.6096 26.3303C52.1716 26.6478 67.3177 21.1397 67.4394 14.0276Z" fill="#FFDD7B"/>
<path d="M62.2135 13.9235C62.1109 19.9369 49.2618 24.6116 33.5703 24.3439C17.8789 24.0762 5.19489 18.9654 5.29749 12.9536C5.40009 6.9419 18.2492 2.26716 33.9423 2.53328C49.6354 2.7994 62.3161 7.91176 62.2135 13.9235ZM8.36748 13.0049C8.2745 18.3706 19.5894 22.9283 33.5896 23.1672C47.5897 23.4061 59.0538 19.2363 59.1451 13.869C59.2365 8.50174 47.9232 3.94561 33.9214 3.70675C19.9196 3.46788 8.45886 7.64084 8.36748 13.0049Z" fill="#D19205"/>
<path d="M48.969 14.3004L45.2642 14.2379C45.2145 15.0523 44.5396 15.8843 43.6146 16.3605L41.1618 15.9821C42.0515 15.49 42.7649 14.7718 42.7746 13.9846C42.7906 12.9875 41.2981 12.2869 39.2076 12.2516C37.1908 12.2164 35.934 12.7438 34.8166 13.765C33.3241 15.1725 31.6215 16.0302 28.4313 15.9757C25.3853 15.9228 23.0897 15.0555 22.5622 13.7522L18.8574 13.6896L18.8718 12.8175L22.4307 12.8784C22.5173 12.0368 23.1137 11.4709 23.7453 11.0733L26.1597 11.4661C25.714 11.7531 24.898 12.3157 24.8772 13.2151C24.8595 14.2972 26.5396 14.7349 28.0065 14.7589C29.9142 14.791 30.8761 14.2876 32.2179 13.0885C33.7826 11.6665 35.7031 10.9675 38.9671 11.0236C41.864 11.0733 44.5652 11.8925 45.1648 13.3514L48.9786 13.4155L48.969 14.3004Z" fill="#D19205"/>
<path d="M1.0293 15.7244V22.2652L1.34992 23.0603V16.4009L1.0293 15.7244Z" fill="#D19205"/>
<path d="M2.16016 17.2651V23.9967L2.48078 24.5514V17.6755L2.16016 17.2651Z" fill="#D19205"/>
<path d="M3.11914 18.3423V25.3175L3.43977 25.6173V18.6501L3.11914 18.3423Z" fill="#D19205"/>
<path d="M4.24805 19.2087V26.2272L4.56867 26.5976V19.4428L4.24805 19.2087Z" fill="#D19205"/>
<path d="M5.22656 27.0663L5.31948 19.8859L6.00566 20.2369V27.4623L5.22656 27.0663Z" fill="#D19205"/>
<path d="M6.84766 27.9685V20.6919L7.343 21.1584V28.4094L6.84766 27.9685Z" fill="#D19205"/>
<path d="M8.08594 21.3156V28.7397L8.72719 29.1324V21.7147L8.08594 21.3156Z" fill="#D19205"/>
<path d="M9.64648 21.9825V29.5525L10.1418 29.7529V22.3625L9.64648 21.9825Z" fill="#D19205"/>
<path d="M11.1367 22.575V30.2988L11.6177 30.4608V22.8908L11.1367 22.575Z" fill="#D19205"/>
<path d="M12.5352 23.0977V30.7574L13.0305 31.0412V23.3862L12.5352 23.0977Z" fill="#D19205"/>
<path d="M14.3477 23.6299V31.4179L14.9889 31.6728V23.888L14.3477 23.6299Z" fill="#D19205"/>
<path d="M16.0938 24.0997V31.9422L16.5747 32.1555V24.329L16.0938 24.0997Z" fill="#D19205"/>
<path d="M17.8633 24.5107V32.528L18.5045 32.5793V24.7176L17.8633 24.5107Z" fill="#D19205"/>
<path d="M19.6348 24.9154V32.8958L20.4363 33.0706V25.1062L19.6348 24.9154Z" fill="#D19205"/>
<path d="M21.873 25.2957V33.3754L22.5143 33.5165V25.4319L21.873 25.2957Z" fill="#D19205"/>
<path d="M67.3618 14.2744L67.3826 20.3839C67.3826 20.3839 67.9246 25.2703 61.3421 28.6385C54.9504 31.9105 48.1739 33.9994 42.082 34.1885V26.0927C42.082 26.0927 55.7086 24.8695 61.124 21.4741C65.0164 19.0341 66.9691 18.0145 67.3618 14.2744Z" fill="#D19205"/>
</svg>
