<svg width="379" height="150" viewBox="0 0 379 150" fill="none" xmlns="http://www.w3.org/2000/svg">
<rect width="379" height="150" fill="#D9D9D9"/>
<rect width="144" height="89" fill="#0F483E"/>
<rect x="144" width="235" height="89" fill="#FF5348" fill-opacity="0.1"/>
<rect x="144" y="89" width="65" height="61" fill="#FFEB4D"/>
<rect x="209" y="89" width="65" height="61" fill="#FF5348"/>
<rect x="274" y="89" width="65" height="61" fill="#FFA500"/>
<rect x="339" y="89" width="40" height="61" fill="#F044FF"/>
<rect x="339" y="125" width="40" height="25" fill="#CF0BE0"/>
<rect y="89" width="144" height="61" fill="#00BA77"/>
<path d="M44.336 54L47.536 42.8H50.576L53.76 54H51.984L51.248 51.36H46.864L46.128 54H44.336ZM47.296 49.76H50.816L49.184 43.872H48.928L47.296 49.76ZM55.2774 54V42.8H58.5254L60.9734 52.848H61.2294L63.6774 42.8H66.9254V54H65.2454V44.016H64.9894L62.5574 54H59.6454L57.2134 44.016H56.9574V54H55.2774ZM71.5498 54L68.4298 42.8H70.2218L72.9418 52.912H73.1498L75.8538 42.8H77.6458L74.5418 54H71.5498ZM83.0936 54.224C81.7283 54.224 80.6456 53.84 79.8456 53.072C79.0456 52.2933 78.6456 51.1733 78.6456 49.712V47.088C78.6456 45.6267 79.0456 44.512 79.8456 43.744C80.6456 42.9653 81.7283 42.576 83.0936 42.576C84.4376 42.576 85.4723 42.9493 86.1976 43.696C86.9336 44.4427 87.3016 45.4613 87.3016 46.752V46.848H85.5896V46.704C85.5896 45.9467 85.3816 45.328 84.9656 44.848C84.5603 44.368 83.9363 44.128 83.0936 44.128C82.2403 44.128 81.5736 44.3893 81.0936 44.912C80.6136 45.424 80.3736 46.1387 80.3736 47.056V49.744C80.3736 50.6507 80.6136 51.3653 81.0936 51.888C81.5736 52.4107 82.2403 52.672 83.0936 52.672C83.9363 52.672 84.5603 52.432 84.9656 51.952C85.3816 51.4613 85.5896 50.8427 85.5896 50.096V49.824H87.3016V50.048C87.3016 51.3387 86.9336 52.3573 86.1976 53.104C85.4723 53.8507 84.4376 54.224 83.0936 54.224ZM88.2735 54L91.4735 42.8H94.5135L97.6975 54H95.9215L95.1855 51.36H90.8015L90.0655 54H88.2735ZM91.2335 49.76H94.7535L93.1215 43.872H92.8655L91.2335 49.76Z" fill="white"/>
<path d="M54.168 124V112.8H61.08V114.368H55.896V117.6H60.664V119.168H55.896V124H54.168ZM65.4338 124V114.368H61.9938V112.8H70.6018V114.368H67.1618V124H65.4338ZM72.168 124V112.8H73.896V117.6H78.6V112.8H80.328V124H78.6V119.168H73.896V124H72.168ZM82.668 124V112.8H89.724V114.368H84.396V117.584H89.276V119.152H84.396V122.432H89.804V124H82.668Z" fill="white"/>
<path d="M165.71 125.196C164.73 125.196 163.951 124.925 163.372 124.384C162.793 123.833 162.504 123.059 162.504 122.06V121.22H164.016V122.06C164.016 122.583 164.156 123.003 164.436 123.32C164.725 123.628 165.141 123.782 165.682 123.782C166.205 123.782 166.592 123.628 166.844 123.32C167.096 123.012 167.222 122.592 167.222 122.06V116.572H165.514V115.2H169.826V116.572H168.734V122.06C168.734 123.077 168.468 123.857 167.936 124.398C167.413 124.93 166.671 125.196 165.71 125.196ZM171.444 125V115.2H172.956V123.628H177.674V125H171.444ZM179.059 125V115.2H180.571V119.274H180.795L184.449 115.2H186.423L181.999 120.03L186.577 125H184.547L180.795 120.842H180.571V125H179.059Z" fill="white"/>
<path d="M232.36 125V116.572H229.35V115.2H236.882V116.572H233.872V125H232.36ZM238.252 125V115.2H242.368C242.975 115.2 243.507 115.307 243.964 115.522C244.431 115.727 244.79 116.026 245.042 116.418C245.304 116.81 245.434 117.277 245.434 117.818V117.972C245.434 118.588 245.285 119.083 244.986 119.456C244.697 119.82 244.342 120.077 243.922 120.226V120.45C244.277 120.469 244.562 120.59 244.776 120.814C244.991 121.029 245.098 121.341 245.098 121.752V125H243.572V121.962C243.572 121.71 243.507 121.509 243.376 121.36C243.246 121.211 243.036 121.136 242.746 121.136H239.764V125H238.252ZM239.764 119.764H242.2C242.742 119.764 243.162 119.629 243.46 119.358C243.759 119.078 243.908 118.7 243.908 118.224V118.112C243.908 117.636 243.759 117.263 243.46 116.992C243.171 116.712 242.751 116.572 242.2 116.572H239.764V119.764ZM249.413 125V121.444L246.011 115.2H247.719L250.071 119.638H250.281L252.633 115.2H254.341L250.939 121.444V125H249.413Z" fill="white"/>
<path d="M295.022 125V115.2H298.914C299.511 115.2 300.043 115.321 300.51 115.564C300.986 115.797 301.355 116.133 301.616 116.572C301.887 117.001 302.022 117.519 302.022 118.126V118.308C302.022 118.915 301.882 119.437 301.602 119.876C301.331 120.315 300.963 120.651 300.496 120.884C300.029 121.117 299.502 121.234 298.914 121.234H296.534V125H295.022ZM296.534 119.862H298.76C299.292 119.862 299.717 119.722 300.034 119.442C300.351 119.162 300.51 118.779 300.51 118.294V118.154C300.51 117.659 300.351 117.272 300.034 116.992C299.717 116.712 299.292 116.572 298.76 116.572H296.534V119.862ZM303.458 125V115.2H309.632V116.572H304.97V119.386H309.24V120.758H304.97V123.628H309.702V125H303.458ZM314.68 125.196C313.98 125.196 313.355 125.047 312.804 124.748C312.253 124.44 311.819 123.992 311.502 123.404C311.185 122.816 311.026 122.097 311.026 121.248V118.952C311.026 117.673 311.376 116.698 312.076 116.026C312.776 115.345 313.723 115.004 314.918 115.004C316.094 115.004 316.999 115.326 317.634 115.97C318.269 116.605 318.586 117.459 318.586 118.532V118.602H317.088V118.49C317.088 118.089 317.009 117.729 316.85 117.412C316.691 117.085 316.453 116.829 316.136 116.642C315.819 116.455 315.413 116.362 314.918 116.362C314.171 116.362 313.588 116.591 313.168 117.048C312.748 117.496 312.538 118.121 312.538 118.924V121.276C312.538 122.069 312.748 122.699 313.168 123.166C313.588 123.623 314.176 123.852 314.932 123.852C315.679 123.852 316.225 123.647 316.57 123.236C316.915 122.825 317.088 122.293 317.088 121.64V121.458H314.456V120.156H318.586V125H317.186V124.006H316.962C316.878 124.183 316.752 124.365 316.584 124.552C316.425 124.739 316.192 124.893 315.884 125.014C315.585 125.135 315.184 125.196 314.68 125.196Z" fill="white"/>
<path d="M250.056 54.224C249.256 54.224 248.541 54.0533 247.912 53.712C247.283 53.36 246.787 52.848 246.424 52.176C246.061 51.504 245.88 50.6827 245.88 49.712V47.088C245.88 45.6267 246.28 44.512 247.08 43.744C247.88 42.9653 248.963 42.576 250.328 42.576C251.672 42.576 252.707 42.944 253.432 43.68C254.157 44.4053 254.52 45.3813 254.52 46.608V46.688H252.808V46.56C252.808 46.1013 252.717 45.6907 252.536 45.328C252.355 44.9547 252.083 44.6613 251.72 44.448C251.357 44.2347 250.893 44.128 250.328 44.128C249.475 44.128 248.808 44.3893 248.328 44.912C247.848 45.424 247.608 46.1387 247.608 47.056V49.744C247.608 50.6507 247.848 51.3707 248.328 51.904C248.808 52.4267 249.48 52.688 250.344 52.688C251.197 52.688 251.821 52.4533 252.216 51.984C252.611 51.5147 252.808 50.9067 252.808 50.16V49.952H249.8V48.464H254.52V54H252.92V52.864H252.664C252.568 53.0667 252.424 53.2747 252.232 53.488C252.051 53.7013 251.784 53.8773 251.432 54.016C251.091 54.1547 250.632 54.224 250.056 54.224ZM260.938 54.224C260.053 54.224 259.29 54.064 258.65 53.744C258.021 53.424 257.53 52.9653 257.178 52.368C256.837 51.76 256.666 51.024 256.666 50.16V42.8H258.41V50.208C258.41 50.9973 258.629 51.6053 259.066 52.032C259.503 52.4587 260.127 52.672 260.938 52.672C261.749 52.672 262.373 52.4587 262.81 52.032C263.247 51.6053 263.466 50.9973 263.466 50.208V42.8H265.194V50.16C265.194 51.024 265.023 51.76 264.682 52.368C264.341 52.9653 263.85 53.424 263.21 53.744C262.57 54.064 261.813 54.224 260.938 54.224ZM267.449 54V42.8H269.177V52.432H274.569V54H267.449ZM276.152 54V42.8H283.208V44.368H277.88V47.584H282.76V49.152H277.88V52.432H283.288V54H276.152Z" fill="white"/>
</svg>
