<svg width="24" height="24" viewBox="0 0 24 24" fill="none" xmlns="http://www.w3.org/2000/svg">
<path d="M15.5 13.15H13.33C11.55 13.15 10.1 11.71 10.1 9.92V7.75C10.1 7.34 9.77 7 9.35 7H6.18C3.87 7 2 8.5 2 11.18V17.82C2 20.5 3.87 22 6.18 22H12.07C14.38 22 16.25 20.5 16.25 17.82V13.9C16.25 13.48 15.91 13.15 15.5 13.15Z" fill="#00BA77"/>
<path d="M17.8217 2H15.8517H14.7617H11.9317C9.67172 2 7.84172 3.44 7.76172 6.01C7.82172 6.01 7.87172 6 7.93172 6H10.7617H11.8517H13.8217C16.1317 6 18.0017 7.5 18.0017 10.18V12.15V14.86V16.83C18.0017 16.89 17.9917 16.94 17.9917 16.99C20.2217 16.92 22.0017 15.44 22.0017 12.83V10.86V8.15V6.18C22.0017 3.5 20.1317 2 17.8217 2Z" fill="#00BA77"/>
<path d="M11.9806 7.14975C11.6706 6.83975 11.1406 7.04975 11.1406 7.47975V10.0998C11.1406 11.1998 12.0706 12.0998 13.2106 12.0998C13.9206 12.1098 14.9106 12.1098 15.7606 12.1098C16.1906 12.1098 16.4106 11.6098 16.1106 11.3098C15.0206 10.2198 13.0806 8.26975 11.9806 7.14975Z" fill="#00BA77"/>
</svg>
