<svg width="19" height="19" viewBox="0 0 19 19" fill="none" xmlns="http://www.w3.org/2000/svg">
<path d="M12.8158 1.5835H6.18161C3.29995 1.5835 1.58203 3.30141 1.58203 6.18308V12.8093C1.58203 15.6989 3.29995 17.4168 6.18161 17.4168H12.8079C15.6895 17.4168 17.4074 15.6989 17.4074 12.8172V6.18308C17.4154 3.30141 15.6974 1.5835 12.8158 1.5835ZM8.66745 13.8622C8.43786 14.0918 8.00245 14.3135 7.68578 14.361L5.73828 14.6381C5.66703 14.646 5.59578 14.6539 5.52453 14.6539C5.19995 14.6539 4.89911 14.5431 4.68536 14.3293C4.42411 14.0681 4.31328 13.6881 4.37661 13.2685L4.6537 11.321C4.7012 10.9964 4.91495 10.5689 5.15245 10.3393L8.68328 6.8085C8.74661 6.97475 8.80995 7.141 8.89703 7.331C8.9762 7.49725 9.06328 7.67141 9.15828 7.82975C9.23745 7.96433 9.32453 8.091 9.39578 8.186C9.48286 8.32058 9.58578 8.44725 9.64911 8.5185C9.6887 8.57391 9.72036 8.6135 9.7362 8.62933C9.93411 8.86683 10.1637 9.0885 10.3616 9.25475C10.417 9.31016 10.4487 9.34183 10.4645 9.34975C10.5833 9.44475 10.702 9.53975 10.8049 9.611C10.9316 9.706 11.0583 9.79308 11.1929 9.86433C11.3512 9.95933 11.5254 10.0464 11.6995 10.1335C11.8816 10.2127 12.0479 10.2839 12.2141 10.3393L8.66745 13.8622ZM13.7499 8.77975L13.0216 9.516C12.9741 9.5635 12.9108 9.58724 12.8474 9.58724C12.8237 9.58724 12.792 9.58725 12.7762 9.57933C11.1691 9.12016 9.88661 7.83766 9.42745 6.23058C9.4037 6.1435 9.42745 6.0485 9.49078 5.99308L10.227 5.25683C11.4304 4.0535 12.5783 4.07725 13.7579 5.25683C14.3595 5.8585 14.6524 6.43641 14.6524 7.03808C14.6445 7.60808 14.3516 8.17808 13.7499 8.77975Z" fill="#00BA77"/>
</svg>
