<svg width="17" height="17" viewBox="0 0 17 17" fill="none" xmlns="http://www.w3.org/2000/svg">
<path d="M14.875 15.5835H2.125C1.83458 15.5835 1.59375 15.3427 1.59375 15.0522C1.59375 14.7618 1.83458 14.521 2.125 14.521H14.875C15.1654 14.521 15.4062 14.7618 15.4062 15.0522C15.4062 15.3427 15.1654 15.5835 14.875 15.5835Z" fill="#00BA77"/>
<path d="M13.4725 2.46485C12.0983 1.09068 10.7525 1.05526 9.34289 2.46485L8.4858 3.32193C8.41497 3.39276 8.38664 3.5061 8.41497 3.60526C8.9533 5.48235 10.455 6.98401 12.3321 7.52235C12.3604 7.52943 12.3887 7.53651 12.4171 7.53651C12.495 7.53651 12.5658 7.50818 12.6225 7.45151L13.4725 6.59443C14.1737 5.90026 14.5137 5.22735 14.5137 4.54735C14.5208 3.8461 14.1808 3.1661 13.4725 2.46485Z" fill="#00BA77"/>
<path d="M11.0571 8.16731C10.8517 8.06814 10.6533 7.96898 10.4621 7.85564C10.3063 7.76356 10.1575 7.66439 10.0088 7.55814C9.88834 7.48023 9.74667 7.36689 9.61209 7.25356C9.59792 7.24648 9.54834 7.20398 9.49167 7.14731C9.25792 6.94898 8.99584 6.69398 8.76209 6.41064C8.74084 6.39648 8.70542 6.34689 8.65584 6.28314C8.585 6.19814 8.46459 6.05648 8.35834 5.89356C8.27334 5.78731 8.17417 5.63148 8.08209 5.47564C7.96875 5.28439 7.86959 5.09314 7.77042 4.89481C7.6404 4.6162 7.27472 4.53343 7.05731 4.75084L3.07417 8.73398C2.98209 8.82606 2.89709 9.00314 2.87584 9.12356L2.49334 11.8365C2.4225 12.3181 2.55709 12.7715 2.85459 13.0761C3.10959 13.324 3.46375 13.4586 3.84625 13.4586C3.93125 13.4586 4.01625 13.4515 4.10125 13.4373L6.82125 13.0548C6.94875 13.0336 7.12584 12.9486 7.21084 12.8565L11.2006 8.86676C11.4136 8.6537 11.3336 8.28712 11.0571 8.16731Z" fill="#00BA77"/>
</svg>
