<svg width="12" height="11" viewBox="0 0 12 11" fill="none" xmlns="http://www.w3.org/2000/svg">
<path fill-rule="evenodd" clip-rule="evenodd" d="M6.68863 9.11085C6.63905 9.16044 6.59971 9.21931 6.57288 9.2841C6.54604 9.34889 6.53223 9.41833 6.53223 9.48845C6.53223 9.55858 6.54604 9.62802 6.57288 9.69281C6.59971 9.7576 6.63905 9.81647 6.68863 9.86605C6.73822 9.91564 6.79709 9.95498 6.86188 9.98181C6.92667 10.0086 6.99611 10.0225 7.06623 10.0225C7.13636 10.0225 7.2058 10.0086 7.27059 9.98181C7.33538 9.95498 7.39425 9.91564 7.44383 9.86605L11.7105 5.59939C11.7602 5.54985 11.7996 5.49099 11.8265 5.4262C11.8533 5.3614 11.8672 5.29194 11.8672 5.22179C11.8672 5.15164 11.8533 5.08217 11.8265 5.01738C11.7996 4.95258 11.7602 4.89373 11.7105 4.84419L7.44383 0.57752C7.34369 0.477374 7.20786 0.421114 7.06623 0.421114C6.92461 0.421114 6.78878 0.477374 6.68863 0.57752C6.58849 0.677666 6.53223 0.813493 6.53223 0.95512C6.53223 1.09675 6.58849 1.23257 6.68863 1.33272L10.5788 5.22179L6.68863 9.11085ZM0.288635 9.11085C0.239048 9.16044 0.199713 9.21931 0.172876 9.2841C0.14604 9.34889 0.132228 9.41833 0.132228 9.48845C0.132228 9.55858 0.14604 9.62802 0.172876 9.69281C0.199713 9.7576 0.239048 9.81647 0.288635 9.86605C0.338223 9.91564 0.39709 9.95498 0.461879 9.98181C0.526668 10.0086 0.596108 10.0225 0.666235 10.0225C0.736362 10.0225 0.805802 10.0086 0.870591 9.98181C0.93538 9.95498 0.994248 9.91564 1.04383 9.86605L5.3105 5.59939C5.36017 5.54985 5.39957 5.49099 5.42646 5.4262C5.45335 5.3614 5.46719 5.29194 5.46719 5.22179C5.46719 5.15164 5.45335 5.08217 5.42646 5.01738C5.39957 4.95258 5.36017 4.89373 5.3105 4.84419L1.04383 0.57752C0.943689 0.477374 0.807862 0.421114 0.666235 0.421114C0.524608 0.421114 0.388781 0.477374 0.288635 0.57752C0.188489 0.677666 0.132228 0.813493 0.132228 0.95512C0.132228 1.09675 0.188489 1.23257 0.288635 1.33272L4.17877 5.22179L0.288635 9.11085Z" fill="#161616"/>
</svg>
