<svg width="141" height="25" viewBox="0 0 141 25" fill="none" xmlns="http://www.w3.org/2000/svg">
<path d="M19.9719 2.38672H1.16932C0.537886 2.38672 0 2.92461 0 3.57942V5.70758C0 6.3624 0.537886 6.90028 1.16932 6.90028H19.9719C20.6268 6.90028 21.1413 6.3624 21.1646 5.70758V3.60281C21.1646 2.9246 20.6268 2.38672 19.9719 2.38672ZM19.9719 14.1968H1.16932C0.865295 14.1968 0.561272 14.3138 0.350795 14.5476C0.116932 14.7815 0 15.0621 0 15.3895V17.5177C0 18.1725 0.537886 18.7104 1.16932 18.7104H19.9719C20.6268 18.7104 21.1413 18.1959 21.1646 17.5177V15.3895C21.1413 14.7113 20.6268 14.1968 19.9719 14.1968ZM11.7633 20.0902H1.16932C0.865295 20.0902 0.561272 20.2071 0.350795 20.441C0.140318 20.6748 0 20.9555 0 21.2829V23.411C0 24.0659 0.537886 24.6037 1.16932 24.6037H11.7399C12.3948 24.6037 12.9093 24.0659 12.9093 23.4344V21.3063C12.9326 20.6047 12.4181 20.0668 11.7633 20.0902ZM21.1646 8.28008H1.16932C0.865295 8.28008 0.561272 8.39701 0.350795 8.63087C0.140318 8.86474 0 9.14537 0 9.47278V11.6009C0 12.2558 0.537886 12.7936 1.16932 12.7936H21.1413C21.7961 12.7936 22.3106 12.2558 22.3106 11.6009V9.47278C22.334 8.81796 21.7961 8.30346 21.1646 8.28008Z" fill="#00C3F7"/>
<path d="M43.0443 7.15622C42.4597 6.54818 41.7815 6.08045 41.0097 5.75304C40.238 5.42563 39.4195 5.26193 38.5775 5.26193C37.759 5.23854 36.9639 5.42563 36.2155 5.77643C35.7244 6.01029 35.2801 6.3377 34.9059 6.73527V6.36108C34.9059 6.17399 34.8357 5.9869 34.7188 5.84659C34.6019 5.70627 34.4148 5.61272 34.2043 5.61272H31.6084C31.4213 5.61272 31.2342 5.68288 31.1173 5.84659C30.977 5.9869 30.9068 6.17399 30.9302 6.36108V23.8541C30.9302 24.0412 31.0004 24.2283 31.1173 24.3686C31.2576 24.5089 31.4213 24.5791 31.6084 24.5791H34.2745C34.4616 24.5791 34.6253 24.5089 34.7656 24.3686C34.9059 24.2516 34.9994 24.0645 34.976 23.8541V17.8672C35.3502 18.2881 35.8413 18.5921 36.3792 18.7792C37.0808 19.0365 37.8058 19.1768 38.5542 19.1768C39.3961 19.1768 40.238 19.0131 41.0097 18.6857C41.7815 18.3583 42.4831 17.8906 43.0677 17.2825C43.6758 16.6511 44.1435 15.9027 44.4709 15.0842C44.8451 14.1721 45.0088 13.1899 44.9854 12.2077C45.0088 11.2254 44.8217 10.2432 44.4709 9.30776C44.1201 8.53601 43.6524 7.78765 43.0443 7.15622ZM40.6589 13.4939C40.5186 13.8681 40.3081 14.1955 40.0275 14.4995C39.4896 15.0842 38.7179 15.4116 37.9227 15.4116C37.5252 15.4116 37.1276 15.3414 36.7534 15.1543C36.4026 14.9906 36.0752 14.7802 35.7946 14.4995C35.5139 14.2189 35.3035 13.8681 35.1631 13.4939C34.8591 12.6988 34.8591 11.8335 35.1631 11.0384C35.3035 10.6642 35.5373 10.3368 35.7946 10.0561C36.0752 9.77549 36.4026 9.54163 36.7534 9.37793C37.1276 9.21422 37.5252 9.12067 37.9227 9.12067C38.3437 9.12067 38.7179 9.19083 39.1154 9.37793C39.4662 9.54163 39.7936 9.7521 40.0509 10.0327C40.3315 10.3134 40.5186 10.6408 40.6823 11.015C40.963 11.8335 40.9396 12.6988 40.6589 13.4939ZM59.2745 5.63611H56.6318C56.4447 5.63611 56.2576 5.70627 56.1407 5.84659C56.0004 5.9869 55.9302 6.174 55.9302 6.38447V6.71188C55.6028 6.31431 55.1818 6.01029 54.7375 5.79981C54.0125 5.44902 53.2174 5.28532 52.4223 5.28532C50.7151 5.28532 49.1014 5.96352 47.8853 7.15622C47.2539 7.78765 46.7628 8.53602 46.4354 9.35454C46.0612 10.2666 45.8741 11.2488 45.8975 12.2544C45.8741 13.2367 46.0612 14.2189 46.4354 15.1543C46.7862 15.9729 47.2539 16.7212 47.8853 17.3527C49.078 18.5688 50.7151 19.247 52.3989 19.247C53.194 19.2703 53.9891 19.0833 54.7141 18.7325C55.1585 18.4986 55.6028 18.1946 55.9302 17.8204V18.1712C55.9302 18.3583 56.0004 18.5454 56.1407 18.6857C56.281 18.8026 56.4447 18.8962 56.6318 18.8962H59.2745C59.4615 18.8962 59.6486 18.826 59.7656 18.6857C59.9059 18.5454 59.976 18.3583 59.976 18.1712V6.40786C59.976 6.22077 59.9059 6.03368 59.789 5.89336C59.6486 5.72965 59.4615 5.63611 59.2745 5.63611ZM55.6963 13.4939C55.556 13.8681 55.3456 14.1955 55.0649 14.4995C54.7843 14.7802 54.4803 15.014 54.1295 15.1777C53.3811 15.5285 52.5158 15.5285 51.7674 15.1777C51.4166 15.014 51.0892 14.7802 50.8086 14.4995C50.528 14.2189 50.3175 13.8681 50.1772 13.4939C49.8965 12.6988 49.8965 11.8335 50.1772 11.0384C50.3175 10.6642 50.528 10.3602 50.8086 10.0561C51.0892 9.77549 51.3933 9.54163 51.7674 9.37793C52.5158 9.02713 53.3811 9.02713 54.1061 9.37793C54.4569 9.54163 54.7843 9.7521 55.0415 10.0327C55.2988 10.3134 55.5093 10.6408 55.673 11.015C56.0004 11.8335 56.0004 12.6988 55.6963 13.4939ZM85.6075 11.9036C85.2333 11.5762 84.789 11.2956 84.3212 11.1085C83.8301 10.898 83.2922 10.7577 82.7777 10.6408L80.7665 10.2432C80.252 10.1497 79.8778 10.0094 79.6907 9.84565C79.527 9.72872 79.4101 9.54163 79.4101 9.33115C79.4101 9.12067 79.527 8.93358 79.7843 8.76988C80.1351 8.58279 80.5093 8.48924 80.9068 8.51263C81.4213 8.51263 81.9358 8.62956 82.4035 8.81665C82.8713 9.02713 83.3156 9.23761 83.7366 9.51824C84.3212 9.89243 84.8357 9.82227 85.1865 9.40131L86.1454 8.30215C86.3325 8.11506 86.426 7.8812 86.4494 7.62395C86.426 7.34331 86.2857 7.10945 86.0752 6.92236C85.6776 6.57156 85.0228 6.19738 84.1575 5.8232C83.2922 5.44902 82.1931 5.26193 80.9068 5.26193C80.1117 5.23854 79.3399 5.35547 78.5916 5.58933C77.9601 5.79981 77.3521 6.10384 76.8142 6.5014C76.3231 6.87559 75.9489 7.34331 75.6683 7.90458C75.411 8.44247 75.2707 9.02713 75.2707 9.61179C75.2707 10.7109 75.5981 11.5996 76.2529 12.2544C76.9078 12.9093 77.7731 13.3536 78.8488 13.5641L80.9536 14.0318C81.3979 14.102 81.8657 14.2423 82.2866 14.4528C82.5205 14.5463 82.6608 14.7802 82.6608 15.0374C82.6608 15.2713 82.5439 15.4818 82.2866 15.6689C82.0294 15.8559 81.6084 15.9729 81.0471 15.9729C80.4859 15.9729 79.9012 15.8559 79.3867 15.5987C78.8956 15.3648 78.4513 15.0608 78.0303 14.71C77.8432 14.5697 77.6561 14.4528 77.4223 14.3592C77.1884 14.2891 76.8844 14.3592 76.5803 14.6165L75.4344 15.4818C75.107 15.7156 74.9433 16.1132 75.0368 16.4874C75.107 16.8849 75.411 17.2591 75.9957 17.7035C77.4456 18.6857 79.1762 19.2002 80.9302 19.1534C81.7487 19.1534 82.5673 19.0599 83.339 18.826C84.0172 18.6155 84.6486 18.3115 85.2099 17.8906C85.7244 17.5164 86.1454 17.0253 86.426 16.4406C86.7066 15.8793 86.847 15.2713 86.847 14.6399C86.8703 14.0786 86.7534 13.5173 86.5195 13.0028C86.2857 12.6286 85.9817 12.2311 85.6075 11.9036ZM97.1603 15.1076C97.0434 14.8971 96.8329 14.7568 96.5757 14.71C96.3418 14.71 96.0846 14.7802 95.8975 14.9205C95.5701 15.131 95.1959 15.2479 94.8217 15.2713C94.7048 15.2713 94.5644 15.2479 94.4475 15.2245C94.3072 15.2011 94.1903 15.131 94.0967 15.0374C93.9798 14.9205 93.8862 14.7802 93.8161 14.6399C93.7225 14.406 93.6758 14.1721 93.6991 13.9383V9.14406H97.1136C97.324 9.14406 97.5111 9.05052 97.6514 8.9102C97.7918 8.76988 97.8853 8.60617 97.8853 8.3957V6.36108C97.8853 6.15061 97.8151 5.96352 97.6514 5.84659C97.5111 5.70627 97.324 5.63611 97.1369 5.63611H93.6991V2.36202C93.6991 2.17493 93.629 1.96445 93.4887 1.84752C93.3484 1.73059 93.1847 1.66043 92.9976 1.63704H90.3315C90.1444 1.63704 89.9573 1.7072 89.817 1.84752C89.6767 1.98784 89.5832 2.17493 89.5832 2.36202V5.63611H88.063C87.8759 5.63611 87.6889 5.70627 87.5485 5.86997C87.4316 6.01029 87.3615 6.19738 87.3615 6.38447V8.41908C87.3615 8.60617 87.4316 8.79327 87.5485 8.93359C87.6655 9.09729 87.8526 9.16745 88.063 9.16745H89.5832V14.8737C89.5598 15.5519 89.7001 16.2301 89.9807 16.8382C90.238 17.3527 90.5654 17.797 91.0097 18.1712C91.4307 18.522 91.9218 18.7792 92.4597 18.9196C92.9976 19.0833 93.5588 19.1768 94.1201 19.1768C94.8451 19.1768 95.5934 19.0599 96.295 18.826C96.9499 18.6155 97.5345 18.2413 98.0022 17.7502C98.3063 17.4462 98.3297 16.9551 98.0958 16.6043L97.1603 15.1076ZM111.613 5.63611H108.97C108.783 5.63611 108.62 5.70627 108.479 5.84659C108.339 5.9869 108.269 6.174 108.269 6.38447V6.71188C107.941 6.31431 107.544 6.01029 107.076 5.79981C106.351 5.44902 105.556 5.28532 104.761 5.28532C103.054 5.28532 101.44 5.96352 100.224 7.15622C99.5925 7.78765 99.1014 8.53602 98.774 9.35454C98.3998 10.2666 98.2127 11.2488 98.2361 12.2311C98.2127 13.2133 98.3998 14.1955 98.774 15.131C99.1014 15.9495 99.6159 16.6979 100.224 17.3293C101.417 18.5454 103.03 19.2236 104.738 19.2236C105.533 19.247 106.328 19.0599 107.053 18.7325C107.52 18.4986 107.941 18.1946 108.269 17.8204V18.1712C108.269 18.3583 108.339 18.5454 108.479 18.6623C108.62 18.8026 108.783 18.8728 108.97 18.8728H111.613C112.011 18.8728 112.315 18.5688 112.315 18.1712V6.40786C112.315 6.22077 112.245 6.03368 112.128 5.89336C112.011 5.72965 111.824 5.63611 111.613 5.63611ZM108.058 13.4939C107.918 13.8681 107.708 14.1955 107.427 14.4995C107.146 14.7802 106.842 15.014 106.491 15.1777C106.117 15.3414 105.72 15.435 105.299 15.435C104.878 15.435 104.504 15.3414 104.129 15.1777C103.779 15.014 103.451 14.7802 103.171 14.4995C102.89 14.2189 102.68 13.8681 102.563 13.4939C102.282 12.6988 102.282 11.8335 102.563 11.0384C102.703 10.6642 102.913 10.3368 103.171 10.0561C103.451 9.77549 103.779 9.54163 104.129 9.37793C104.504 9.21422 104.901 9.12067 105.299 9.12067C105.696 9.12067 106.094 9.19083 106.491 9.37793C106.842 9.54163 107.146 9.7521 107.427 10.0327C107.708 10.3134 107.918 10.6408 108.058 11.015C108.362 11.8101 108.362 12.6988 108.058 13.4939ZM126.113 14.9205L124.593 13.7512C124.312 13.5173 124.031 13.4471 123.797 13.5407C123.587 13.6342 123.4 13.7746 123.236 13.9383C122.909 14.3358 122.511 14.6866 122.09 14.9906C121.622 15.2479 121.131 15.3882 120.617 15.3414C120.009 15.3414 119.448 15.1777 118.956 14.8269C118.465 14.4761 118.091 14.0084 117.904 13.4238C117.764 13.0262 117.694 12.6286 117.694 12.2311C117.694 11.8101 117.764 11.4125 117.904 10.9916C118.044 10.6174 118.231 10.29 118.512 10.0094C118.793 9.72872 119.097 9.49486 119.448 9.35454C119.822 9.19083 120.219 9.09729 120.64 9.09729C121.155 9.0739 121.669 9.21422 122.114 9.47147C122.558 9.75211 122.932 10.1029 123.259 10.5239C123.4 10.6876 123.587 10.8279 123.797 10.9214C124.031 11.015 124.312 10.9448 124.593 10.7109L126.113 9.56501C126.3 9.44808 126.44 9.26099 126.51 9.05052C126.604 8.81665 126.58 8.55941 126.44 8.34893C125.855 7.43686 125.06 6.6885 124.101 6.15061C123.096 5.58934 121.903 5.28532 120.57 5.28532C119.635 5.28532 118.699 5.4724 117.81 5.8232C116.969 6.17399 116.22 6.66511 115.589 7.29654C114.957 7.92797 114.443 8.67634 114.092 9.51824C113.367 11.2722 113.367 13.2367 114.092 14.9906C114.443 15.8092 114.934 16.5809 115.589 17.189C116.922 18.4986 118.699 19.2002 120.57 19.2002C121.903 19.2002 123.096 18.8962 124.101 18.3349C125.06 17.797 125.879 17.0486 126.463 16.1132C126.58 15.9027 126.604 15.6455 126.534 15.435C126.44 15.2479 126.3 15.0608 126.113 14.9205ZM140.191 17.6567L136.005 11.5295L139.583 6.80543C139.747 6.59495 139.817 6.29093 139.723 6.03368C139.653 5.84659 139.49 5.65949 139.045 5.65949H136.216C136.052 5.65949 135.888 5.70627 135.748 5.77643C135.561 5.86997 135.42 6.01029 135.327 6.17399L132.474 10.1731H131.795V0.724978C131.795 0.537887 131.725 0.350794 131.585 0.210476C131.445 0.0701576 131.281 0 131.094 0H128.451C128.264 0 128.077 0.0701576 127.937 0.210476C127.796 0.350794 127.726 0.514501 127.726 0.724978V18.1478C127.726 18.3583 127.796 18.522 127.937 18.6623C128.077 18.8026 128.264 18.8728 128.451 18.8728H131.094C131.281 18.8728 131.468 18.8026 131.585 18.6623C131.725 18.522 131.795 18.3349 131.795 18.1478V13.5407H132.544L135.654 18.3115C135.841 18.6623 136.192 18.8728 136.566 18.8728H139.536C139.981 18.8728 140.168 18.6623 140.261 18.4752C140.378 18.1946 140.355 17.8906 140.191 17.6567ZM74.2885 5.63611H71.3184C71.0846 5.63611 70.8741 5.70627 70.7104 5.86997C70.5701 6.01029 70.4765 6.17399 70.4297 6.36108L68.2314 14.4995H67.6935L65.3549 6.36108C65.3081 6.19738 65.238 6.03368 65.121 5.86997C64.9807 5.70627 64.7936 5.61272 64.5832 5.61272H61.5663C61.1688 5.61272 60.9349 5.72965 60.818 6.01029C60.7478 6.24415 60.7478 6.5014 60.818 6.73527L64.5598 18.1946C64.6299 18.3583 64.7001 18.5454 64.8404 18.6623C64.9807 18.8026 65.1912 18.8728 65.4017 18.8728H66.9919L66.8516 19.247L66.5008 20.2993C66.3839 20.6268 66.1968 20.9074 65.9162 21.1179C65.6589 21.305 65.3549 21.4219 65.0275 21.3985C64.7469 21.3985 64.4896 21.3283 64.2324 21.2348C63.9751 21.1179 63.7412 20.9776 63.5308 20.8138C63.3437 20.6735 63.1098 20.6034 62.8526 20.6034H62.8292C62.5485 20.6268 62.2913 20.7671 62.151 21.0243L61.2155 22.4041C60.8413 23.0122 61.0518 23.3863 61.2857 23.5968C61.8002 24.0645 62.3848 24.4153 63.0397 24.6258C63.7646 24.8831 64.513 25 65.2614 25C66.6178 25 67.7403 24.6258 68.6056 23.9008C69.4943 23.1057 70.1725 22.0767 70.4999 20.9074L74.8498 6.73527C74.9433 6.47802 74.9667 6.22077 74.8731 5.98691C74.8498 5.8232 74.6861 5.63611 74.2885 5.63611Z" fill="#011B33"/>
</svg>
