<svg width="22" height="22" viewBox="0 0 22 22" fill="none" xmlns="http://www.w3.org/2000/svg">
<path d="M21.0105 2.89888L15.0448 19.6197C14.9021 20.0349 14.6329 20.395 14.2749 20.6494C13.917 20.9037 13.4883 21.0395 13.0492 21.0376C12.6152 21.0425 12.1903 20.9129 11.833 20.6665C11.4756 20.4201 11.2034 20.0691 11.0537 19.6617L8.81653 13.864L8.41742 12.8137L7.36712 12.3936L1.50644 10.146C1.07427 10.0158 0.69553 9.74986 0.426312 9.38759C0.157094 9.02532 0.0117188 8.58598 0.0117188 8.13463C0.0117188 7.68328 0.157094 7.24394 0.426312 6.88167C0.69553 6.51941 1.07427 6.25349 1.50644 6.12331L18.2692 0.157594C18.6526 0.000101135 19.0739 -0.0404809 19.4803 0.0409553C19.8866 0.122391 20.2598 0.322207 20.5529 0.615253C20.8459 0.9083 21.0457 1.28148 21.1272 1.68783C21.2086 2.09418 21.168 2.51554 21.0105 2.89888Z" fill="#00BA77"/>
<path d="M13.0295 9.63136L8.82832 13.8326L8.42921 12.7823L7.37891 12.3621L11.5801 8.16094C11.7779 7.96316 12.0461 7.85205 12.3258 7.85205C12.6055 7.85205 12.8738 7.96316 13.0715 8.16094C13.2693 8.35871 13.3804 8.62695 13.3804 8.90665C13.3804 9.18635 13.2693 9.45459 13.0715 9.65236L13.0295 9.63136Z" fill="#515151"/>
</svg>
