<svg width="44" height="19" viewBox="0 0 44 19" fill="none" xmlns="http://www.w3.org/2000/svg">
<path d="M12.8158 1.58331H6.18161C3.29995 1.58331 1.58203 3.30123 1.58203 6.1829V12.8091C1.58203 15.6987 3.29995 17.4166 6.18161 17.4166H12.8079C15.6895 17.4166 17.4074 15.6987 17.4074 12.8171V6.1829C17.4154 3.30123 15.6974 1.58331 12.8158 1.58331ZM8.66745 13.8621C8.43786 14.0916 8.00245 14.3133 7.68578 14.3608L5.73828 14.6379C5.66703 14.6458 5.59578 14.6537 5.52453 14.6537C5.19995 14.6537 4.89911 14.5429 4.68536 14.3291C4.42411 14.0679 4.31328 13.6879 4.37661 13.2683L4.6537 11.3208C4.7012 10.9962 4.91495 10.5687 5.15245 10.3391L8.68328 6.80831C8.74661 6.97456 8.80995 7.14081 8.89703 7.33081C8.9762 7.49706 9.06328 7.67123 9.15828 7.82956C9.23745 7.96415 9.32453 8.09081 9.39578 8.18581C9.48286 8.3204 9.58578 8.44706 9.64911 8.51831C9.6887 8.57373 9.72036 8.61331 9.7362 8.62915C9.93411 8.86665 10.1637 9.08831 10.3616 9.25456C10.417 9.30998 10.4487 9.34165 10.4645 9.34956C10.5833 9.44456 10.702 9.53956 10.8049 9.61081C10.9316 9.70581 11.0583 9.7929 11.1929 9.86415C11.3512 9.95915 11.5254 10.0462 11.6995 10.1333C11.8816 10.2125 12.0479 10.2837 12.2141 10.3391L8.66745 13.8621ZM13.7499 8.77956L13.0216 9.51581C12.9741 9.56331 12.9108 9.58706 12.8474 9.58706C12.8237 9.58706 12.792 9.58706 12.7762 9.57915C11.1691 9.11998 9.88661 7.83748 9.42745 6.2304C9.4037 6.14331 9.42745 6.04831 9.49078 5.9929L10.227 5.25665C11.4304 4.05331 12.5783 4.07706 13.7579 5.25665C14.3595 5.85831 14.6524 6.43623 14.6524 7.0379C14.6445 7.6079 14.3516 8.1779 13.7499 8.77956Z" fill="#00BA77"/>
<path d="M31.8163 15.7123L30.5 6.5H42.5L41.1838 15.7123C41.1327 16.0697 40.9544 16.3967 40.6816 16.6332C40.4088 16.8698 40.0598 17 39.6987 17H33.3012C32.9402 17 32.5912 16.8698 32.3184 16.6332C32.0456 16.3967 31.8673 16.0697 31.8163 15.7123ZM43.25 3.5H39.5V2.75C39.5 2.55109 39.421 2.36032 39.2803 2.21967C39.1397 2.07902 38.9489 2 38.75 2H34.25C34.0511 2 33.8603 2.07902 33.7197 2.21967C33.579 2.36032 33.5 2.55109 33.5 2.75V3.5H29.75C29.5511 3.5 29.3603 3.57902 29.2197 3.71967C29.079 3.86032 29 4.05109 29 4.25C29 4.44891 29.079 4.63968 29.2197 4.78033C29.3603 4.92098 29.5511 5 29.75 5H43.25C43.4489 5 43.6397 4.92098 43.7803 4.78033C43.921 4.63968 44 4.44891 44 4.25C44 4.05109 43.921 3.86032 43.7803 3.71967C43.6397 3.57902 43.4489 3.5 43.25 3.5Z" fill="#FF5348"/>
</svg>
