<svg width="45" height="45" viewBox="0 0 45 45" fill="none" xmlns="http://www.w3.org/2000/svg">
<circle cx="22.5" cy="22.5" r="22.5" fill="#00BA77"/>
<path d="M11.7333 20.7497H14.3333V27.7499H12.6C12.3701 27.7499 12.1497 27.8421 11.9872 28.0062C11.8246 28.1702 11.7333 28.3928 11.7333 28.6249C11.7333 28.857 11.8246 29.0795 11.9872 29.2436C12.1497 29.4077 12.3701 29.4999 12.6 29.4999H33.4C33.6299 29.4999 33.8503 29.4077 34.0128 29.2436C34.1754 29.0795 34.2667 28.857 34.2667 28.6249C34.2667 28.3928 34.1754 28.1702 34.0128 28.0062C33.8503 27.8421 33.6299 27.7499 33.4 27.7499H31.6667V20.7497H34.2667C34.4552 20.7495 34.6386 20.6872 34.7889 20.5723C34.9393 20.4574 35.0484 20.2961 35.0997 20.1129C35.1511 19.9297 35.1418 19.7346 35.0734 19.5572C35.005 19.3797 34.8811 19.2297 34.7206 19.1298L23.4539 12.1296C23.3174 12.0449 23.1603 12 23 12C22.8397 12 22.6826 12.0449 22.5461 12.1296L11.2794 19.1298C11.1189 19.2297 10.995 19.3797 10.9266 19.5572C10.8582 19.7346 10.8489 19.9297 10.9003 20.1129C10.9516 20.2961 11.0607 20.4574 11.2111 20.5723C11.3614 20.6872 11.5448 20.7495 11.7333 20.7497ZM16.0667 20.7497H19.5333V27.7499H16.0667V20.7497ZM24.7333 20.7497V27.7499H21.2667V20.7497H24.7333ZM29.9333 27.7499H26.4667V20.7497H29.9333V27.7499ZM23 13.9015L31.2052 18.9996H14.7948L23 13.9015ZM36 32.125C36 32.357 35.9087 32.5796 35.7462 32.7437C35.5836 32.9078 35.3632 33 35.1333 33H10.8667C10.6368 33 10.4164 32.9078 10.2538 32.7437C10.0913 32.5796 10 32.357 10 32.125C10 31.8929 10.0913 31.6703 10.2538 31.5062C10.4164 31.3421 10.6368 31.25 10.8667 31.25H35.1333C35.3632 31.25 35.5836 31.3421 35.7462 31.5062C35.9087 31.6703 36 31.8929 36 32.125Z" fill="white"/>
</svg>
