<svg width="23" height="22" viewBox="0 0 23 22" fill="none" xmlns="http://www.w3.org/2000/svg">
<path fill-rule="evenodd" clip-rule="evenodd" d="M10.6283 0.263917C11.1562 -0.0879724 11.8438 -0.0879724 12.3717 0.263917L21.8002 6.54963C22.192 6.81077 22.4459 7.2338 22.4923 7.70228C22.5387 8.17079 22.3726 8.6354 22.0397 8.96831L20.9286 10.0795V17.2863C21.8471 17.635 22.5 18.5234 22.5 19.5643C22.5 20.9094 21.4094 22 20.0643 22H2.93572C1.59051 22 0.500003 20.9094 0.500003 19.5643C0.500003 18.5234 1.15287 17.635 2.07143 17.2863V10.0795L0.960274 8.96831C0.627367 8.6354 0.461267 8.17079 0.507656 7.70228C0.554044 7.2338 0.80805 6.81077 1.19976 6.54963L10.6283 0.263917ZM14.6429 9.42856C15.5108 9.42856 16.2143 10.1321 16.2143 11V15.7143C16.2143 16.5822 15.5108 17.2857 14.6429 17.2857C13.775 17.2857 13.0714 16.5822 13.0714 15.7143V11C13.0714 10.1321 13.775 9.42856 14.6429 9.42856ZM9.92857 11C9.92857 10.1321 9.22501 9.42856 8.35714 9.42856C7.48926 9.42856 6.78571 10.1321 6.78571 11V15.7143C6.78571 16.5822 7.48926 17.2857 8.35714 17.2857C9.22501 17.2857 9.92857 16.5822 9.92857 15.7143V11Z" fill="#CCCCCC"/>
</svg>
