<svg width="242" height="178" viewBox="0 0 242 178" fill="none" xmlns="http://www.w3.org/2000/svg">
<path d="M217.198 165.825H201.209V165.945H217.198V165.825Z" fill="#EBEBEB"/>
<path d="M159.903 167.138H155.708V167.258H159.903V167.138Z" fill="#EBEBEB"/>
<path d="M200.723 161.345H191.459V161.465H200.723V161.345Z" fill="#EBEBEB"/>
<path d="M46.1758 162.156H25.3252V162.276H46.1758V162.156Z" fill="#EBEBEB"/>
<path d="M53.5344 162.156H50.4785V162.276H53.5344V162.156Z" fill="#EBEBEB"/>
<path d="M108.696 164.193H63.4707V164.314H108.696V164.193Z" fill="#EBEBEB"/>
<path d="M115.087 136.526H21.865C21.1339 136.526 20.4327 136.235 19.9158 135.718C19.3988 135.201 19.1084 134.5 19.1084 133.769V2.73245C19.1148 2.00554 19.408 1.31058 19.9243 0.798832C20.4405 0.287082 21.1381 -2.7868e-05 21.865 2.02884e-09H115.087C115.449 2.02884e-09 115.807 0.0713005 116.142 0.209832C116.476 0.348363 116.78 0.551412 117.036 0.807385C117.292 1.06336 117.495 1.36724 117.633 1.70169C117.772 2.03613 117.843 2.39458 117.843 2.75658V133.769C117.843 134.131 117.772 134.49 117.633 134.824C117.495 135.158 117.292 135.462 117.036 135.718C116.78 135.974 116.476 136.177 116.142 136.316C115.807 136.454 115.449 136.526 115.087 136.526ZM21.865 0.0965532C21.1663 0.0978293 20.4966 0.375948 20.0025 0.869997C19.5085 1.36405 19.2304 2.03376 19.2291 2.73245V133.769C19.2304 134.468 19.5085 135.138 20.0025 135.632C20.4966 136.126 21.1663 136.404 21.865 136.405H115.087C115.785 136.404 116.455 136.126 116.949 135.632C117.443 135.138 117.721 134.468 117.723 133.769V2.73245C117.721 2.03376 117.443 1.36405 116.949 0.869997C116.455 0.375948 115.785 0.0978293 115.087 0.0965532H21.865Z" fill="#EBEBEB"/>
<path d="M219.514 136.526H126.293C125.562 136.526 124.86 136.235 124.344 135.718C123.827 135.201 123.536 134.5 123.536 133.769V2.73245C123.542 2.00554 123.836 1.31058 124.352 0.798832C124.868 0.287082 125.566 -2.7868e-05 126.293 2.02884e-09H219.514C220.246 2.02885e-09 220.947 0.290425 221.464 0.807385C221.981 1.32434 222.271 2.02549 222.271 2.75658V133.769C222.271 134.5 221.981 135.201 221.464 135.718C220.947 136.235 220.246 136.526 219.514 136.526ZM126.293 0.0965532C125.594 0.0978293 124.924 0.375948 124.43 0.869997C123.936 1.36405 123.658 2.03376 123.657 2.73245V133.769C123.658 134.468 123.936 135.138 124.43 135.632C124.924 136.126 125.594 136.404 126.293 136.405H219.514C220.213 136.404 220.883 136.126 221.377 135.632C221.871 135.138 222.149 134.468 222.15 133.769V2.73245C222.149 2.03376 221.871 1.36405 221.377 0.869997C220.883 0.375948 220.213 0.0978293 219.514 0.0965532H126.293Z" fill="#EBEBEB"/>
<path d="M241.382 158.057H0V158.178H241.382V158.057Z" fill="#EBEBEB"/>
<path d="M196.382 53.0122H177.294C176.862 53.0122 176.435 53.0973 176.036 53.2626C175.638 53.4278 175.275 53.6701 174.971 53.9754C174.666 54.2808 174.424 54.6432 174.259 55.0421C174.095 55.4409 174.01 55.8683 174.011 56.2998V68.591C174.01 69.0225 174.095 69.4499 174.259 69.8488C174.424 70.2476 174.666 70.6101 174.971 70.9154C175.275 71.2208 175.638 71.463 176.036 71.6283C176.435 71.7936 176.862 71.8786 177.294 71.8786H182.783L185.235 75.0842C185.423 75.3304 185.666 75.53 185.944 75.6673C186.222 75.8046 186.528 75.8761 186.838 75.8761C187.148 75.8761 187.454 75.8046 187.732 75.6673C188.01 75.53 188.252 75.3304 188.441 75.0842L190.893 71.8786H196.382C196.814 71.8786 197.241 71.7936 197.639 71.6283C198.038 71.463 198.4 71.2208 198.705 70.9154C199.01 70.6101 199.252 70.2476 199.416 69.8488C199.581 69.4499 199.665 69.0225 199.665 68.591V56.2998C199.665 55.8683 199.581 55.4409 199.416 55.0421C199.252 54.6432 199.01 54.2808 198.705 53.9754C198.4 53.6701 198.038 53.4278 197.639 53.2626C197.241 53.0973 196.814 53.0122 196.382 53.0122Z" fill="#E0E0E0"/>
<path d="M182.728 63.7586C182.317 63.3922 181.985 62.9469 181.75 62.4492C181.515 61.9516 181.383 61.4118 181.362 60.862C181.341 60.5124 181.395 60.1624 181.52 59.8352C181.645 59.5081 181.838 59.2112 182.086 58.9643C182.335 58.7173 182.632 58.5259 182.96 58.4029C183.288 58.2798 183.638 58.2277 183.988 58.2502C185.465 58.2502 185.967 58.9357 186.831 59.9254C187.696 58.9599 188.198 58.2502 189.675 58.2502C190.024 58.2277 190.375 58.2798 190.702 58.4029C191.03 58.5259 191.328 58.7173 191.577 58.9643C191.825 59.2112 192.018 59.5081 192.143 59.8352C192.268 60.1624 192.322 60.5124 192.301 60.862C192.279 61.4118 192.147 61.9516 191.913 62.4492C191.678 62.9469 191.345 63.3922 190.935 63.7586L186.831 67.8427L182.728 63.7586Z" fill="white"/>
<path d="M48.6887 149.657C48.2084 149.23 47.8184 148.71 47.5415 148.13C47.2646 147.55 47.1065 146.92 47.0763 146.278C47.0498 145.865 47.1118 145.452 47.2582 145.066C47.4046 144.679 47.632 144.329 47.9251 144.037C48.2182 143.746 48.5703 143.521 48.9576 143.377C49.3449 143.233 49.7586 143.173 50.1708 143.202C51.9088 143.202 52.5026 144.009 53.5212 145.177C54.5398 144.009 55.1336 143.202 56.8716 143.202C57.2838 143.173 57.6974 143.233 58.0848 143.377C58.4721 143.521 58.8241 143.746 59.1172 144.037C59.4104 144.329 59.6377 144.679 59.7842 145.066C59.9306 145.452 59.9926 145.865 59.9661 146.278C59.9359 146.92 59.7777 147.55 59.5008 148.13C59.2239 148.71 58.8339 149.23 58.3537 149.657L53.526 154.485L48.6887 149.657Z" fill="#E0E0E0"/>
<path d="M59.6034 155.097C59.3127 154.833 59.0776 154.513 58.9118 154.157C58.746 153.8 58.6529 153.414 58.6379 153.022C58.6229 152.77 58.6618 152.518 58.7518 152.282C58.8418 152.047 58.9809 151.833 59.1599 151.655C59.339 151.478 59.5538 151.34 59.79 151.252C60.0263 151.164 60.2787 151.127 60.5303 151.144C61.5924 151.144 61.9786 151.626 62.5773 152.346C63.2 151.636 63.5428 151.144 64.6242 151.144C64.8758 151.127 65.1282 151.164 65.3645 151.252C65.6007 151.34 65.8155 151.478 65.9946 151.655C66.1736 151.833 66.3127 152.047 66.4027 152.282C66.4927 152.518 66.5316 152.77 66.5166 153.022C66.5016 153.414 66.4085 153.8 66.2427 154.157C66.0769 154.513 65.8418 154.833 65.5511 155.097L62.5966 158.038L59.6034 155.097Z" fill="#EBEBEB"/>
<path d="M183.554 17.9976H161.656C160.656 17.9976 159.697 18.3948 158.99 19.1019C158.283 19.809 157.886 20.768 157.886 21.7679V35.8695C157.886 36.8699 158.283 37.8294 158.99 38.5373C159.697 39.2451 160.656 39.6434 161.656 39.6447H167.956L170.766 43.3185C170.982 43.6017 171.26 43.8313 171.579 43.9893C171.898 44.1473 172.249 44.2295 172.605 44.2295C172.961 44.2295 173.312 44.1473 173.632 43.9893C173.951 43.8313 174.229 43.6017 174.445 43.3185L177.259 39.6447H183.535C184.536 39.6447 185.496 39.247 186.204 38.539C186.912 37.831 187.31 36.8707 187.31 35.8695V21.7679C187.31 20.7705 186.915 19.8137 186.211 19.107C185.507 18.4003 184.552 18.0014 183.554 17.9976Z" fill="#F5F5F5"/>
<path d="M165.732 34.4886H168.213V25.6733H165.316L165.732 34.4886Z" fill="#E0E0E0"/>
<path d="M179.722 27.0347C179.596 26.6437 179.2 25.823 178.824 25.6589C177.738 25.1761 175.358 25.3257 173.253 25.6009C173.34 25.432 173.412 25.2823 173.456 25.1761C173.708 24.5409 173.856 23.8694 173.895 23.1871C173.861 22.7043 173.644 21.6809 173.253 21.4298C173.098 21.3536 172.928 21.314 172.756 21.314C172.583 21.314 172.413 21.3536 172.258 21.4298C171.838 21.8692 172.128 23.2499 171.964 23.8437C171.594 24.6488 171.106 25.3941 170.516 26.0547C169.777 26.1899 169.309 26.2913 169.309 26.2913V34.0783C169.309 34.0783 175.667 35.8066 177.714 35.2465C178.5 35.0341 178.872 33.6679 179.162 32.9051C179.688 31.5341 180.171 28.4444 179.722 27.0347Z" fill="#E0E0E0"/>
<path d="M128.176 30.2501C128.064 28.8683 127.437 27.5791 126.418 26.6389C125.399 25.6988 124.063 25.1766 122.677 25.1763H118.709C117.322 25.1766 115.987 25.6988 114.968 26.6389C113.949 27.5791 113.322 28.8683 113.21 30.2501L112.877 33.6295H128.509L128.176 30.2501Z" fill="#EBEBEB"/>
<path d="M120.692 25.1762C122.748 25.1762 124.414 23.5097 124.414 21.454C124.414 19.3984 122.748 17.7319 120.692 17.7319C118.636 17.7319 116.97 19.3984 116.97 21.454C116.97 23.5097 118.636 25.1762 120.692 25.1762Z" fill="#EBEBEB"/>
<path d="M46.8276 82.1376C46.2548 82.1362 45.699 82.3322 45.2538 82.6927L42.2655 80.2789C42.4447 79.9329 42.5375 79.5486 42.5358 79.1589C42.5358 78.5935 42.3434 78.0448 41.9902 77.6032C41.6371 77.1616 41.1442 76.8533 40.5925 76.7289C40.0409 76.6046 39.4634 76.6716 38.9549 76.919C38.4464 77.1664 38.0373 77.5795 37.7947 78.0902C37.552 78.601 37.4904 79.1791 37.6199 79.7296C37.7494 80.28 38.0624 80.77 38.5073 81.119C38.9522 81.468 39.5026 81.6553 40.068 81.65C40.6335 81.6447 41.1803 81.4472 41.6186 81.09L44.6069 83.5038C44.4293 83.8513 44.3368 84.236 44.3368 84.6262C44.3368 85.0165 44.4293 85.4011 44.6069 85.7486L41.6186 88.1625C41.1803 87.8052 40.6335 87.6077 40.068 87.6024C39.5026 87.5972 38.9522 87.7844 38.5073 88.1334C38.0624 88.4825 37.7494 88.9725 37.6199 89.5229C37.4904 90.0733 37.552 90.6514 37.7947 91.1622C38.0373 91.673 38.4464 92.086 38.9549 92.3334C39.4634 92.5808 40.0409 92.6478 40.5925 92.5235C41.1442 92.3992 41.6371 92.0908 41.9902 91.6492C42.3434 91.2076 42.5358 90.659 42.5358 90.0935C42.5363 89.704 42.4436 89.32 42.2655 88.9735L45.2538 86.5597C45.5631 86.8117 45.9283 86.9858 46.3189 87.0672C46.7094 87.1487 47.1138 87.1351 47.498 87.0277C47.8823 86.9204 48.2351 86.7222 48.5268 86.4501C48.8185 86.178 49.0406 85.8397 49.1743 85.4639C49.3081 85.088 49.3496 84.6855 49.2954 84.2903C49.2413 83.895 49.0929 83.5186 48.863 83.1926C48.633 82.8666 48.3281 82.6006 47.9739 82.417C47.6197 82.2334 47.2266 82.1376 46.8276 82.1376Z" fill="#E0E0E0"/>
<path d="M120.688 178C172.384 178 214.291 175.553 214.291 172.535C214.291 169.517 172.384 167.07 120.688 167.07C68.9925 167.07 27.085 169.517 27.085 172.535C27.085 175.553 68.9925 178 120.688 178Z" fill="#F5F5F5"/>
<path d="M167.456 104.803H203.996C205.343 104.803 206.635 105.338 207.587 106.291C208.54 107.243 209.075 108.535 209.075 109.882V137.655C209.075 139.002 208.54 140.294 207.587 141.246C206.635 142.199 205.343 142.734 203.996 142.734H176.406C176.141 144.905 175.091 146.905 173.456 148.357C171.82 149.81 169.711 150.615 167.523 150.622C167.321 150.622 167.123 150.622 166.92 150.593C168.368 148.711 169.512 145.988 170.275 142.739H167.48C166.133 142.739 164.841 142.204 163.889 141.251C162.936 140.299 162.401 139.007 162.401 137.66V109.882C162.401 108.539 162.933 107.251 163.88 106.299C164.828 105.348 166.113 104.81 167.456 104.803Z" fill="#00BA77"/>
<path opacity="0.4" d="M167.456 104.803H203.996C205.343 104.803 206.635 105.338 207.587 106.291C208.54 107.243 209.075 108.535 209.075 109.882V137.655C209.075 139.002 208.54 140.294 207.587 141.246C206.635 142.199 205.343 142.734 203.996 142.734H176.406C176.141 144.905 175.091 146.905 173.456 148.357C171.82 149.81 169.711 150.615 167.523 150.622C167.321 150.622 167.123 150.622 166.92 150.593C168.368 148.711 169.512 145.988 170.275 142.739H167.48C166.133 142.739 164.841 142.204 163.889 141.251C162.936 140.299 162.401 139.007 162.401 137.66V109.882C162.401 108.539 162.933 107.251 163.88 106.299C164.828 105.348 166.113 104.81 167.456 104.803Z" fill="white"/>
<path d="M165.727 115.603L163.922 112.547L165.051 110.616C165.125 110.491 165.169 110.351 165.18 110.206C165.192 110.062 165.171 109.916 165.119 109.781L165.032 109.564C164.964 109.383 164.844 109.226 164.687 109.114C164.529 109.002 164.342 108.94 164.148 108.936L162.377 108.888C162.197 108.882 162.019 108.926 161.863 109.015C161.707 109.105 161.579 109.236 161.493 109.395L161.136 110.051C161.05 110.21 161.002 110.386 160.996 110.566C160.99 110.746 161.026 110.926 161.102 111.089L161.865 112.735L163.279 116.52L165.727 115.603Z" fill="#7F3E3B"/>
<path d="M180.114 115.067L169.797 122.574L164.97 113.508L162.218 114.7C162.218 114.7 166.461 128.44 168.928 127.885C171.395 127.329 178.357 123.887 180.621 121.527C181.765 120.334 182.634 118.147 181.504 115.444C181.452 115.314 181.371 115.199 181.266 115.106C181.162 115.013 181.037 114.946 180.903 114.909C180.768 114.873 180.627 114.868 180.49 114.896C180.353 114.923 180.224 114.982 180.114 115.067Z" fill="#00BA77"/>
<path d="M183.964 97.1899C183.964 97.1899 180.324 98.1555 182.009 102.544C182.009 102.544 183.824 102.061 184.118 100.893C184.413 99.7244 184.693 98.0734 184.693 98.0734L183.964 97.1899Z" fill="#263238"/>
<path opacity="0.3" d="M183.964 97.1899C183.964 97.1899 180.324 98.1555 182.009 102.544C182.009 102.544 183.824 102.061 184.118 100.893C184.413 99.7244 184.693 98.0734 184.693 98.0734L183.964 97.1899Z" fill="black"/>
<path d="M192.567 114.632L185.914 114.415L183.163 114.811L182.786 119.827L188.15 121.608L193.87 120.469L194.17 115.636L193.759 114.671L192.567 114.632Z" fill="#7F3E3B"/>
<path d="M183.51 142.734H192.924C193.016 139.418 193.508 122.197 193.407 122.304C193.305 122.41 194.401 118.635 194.401 118.635V117.104L193.407 115.463C193.407 115.463 191.273 118.717 187.758 118.557C184.427 118.403 183.853 115.077 183.853 115.077L183.452 120.16L183.032 132.471L183.568 137.685L183.51 142.734Z" fill="#00BA77"/>
<path opacity="0.6" d="M183.51 142.734H192.924C193.016 139.418 193.508 122.197 193.407 122.304C193.305 122.41 194.401 118.635 194.401 118.635V117.104L193.407 115.463C193.407 115.463 191.273 118.717 187.758 118.557C184.427 118.403 183.853 115.077 183.853 115.077L183.452 120.16L183.032 132.471L183.568 137.685L183.51 142.734Z" fill="white"/>
<path d="M179.769 142.734H184.867C185.872 136.091 186.007 123.945 186.007 123.945C185.398 121.62 184.922 119.261 184.583 116.882C184.274 114.096 188.252 114.468 191.727 114.927C195.203 115.385 189.024 124.177 189.024 124.177C189.024 124.177 188.585 136.057 189.603 142.734H202.155C201.528 140.962 199.674 135.521 199.259 131.664C198.723 127.001 201.933 120.199 201.474 116.882C201.016 113.565 190.014 114.241 190.014 114.241C190.014 114.241 182.97 114.193 181.401 114.265C179.567 114.347 178.833 119.18 177.964 122.999C177.095 126.817 178.693 130.597 179.567 135.401C180 137.821 180.068 140.293 179.769 142.734Z" fill="#263238"/>
<path d="M185.39 114.227C187.679 114.227 190.039 114.227 190.039 114.227C190.039 114.227 191.444 114.14 193.269 114.179C193.998 114.662 194.959 115.83 194.196 118.273L192.603 118.886L192.893 120.455C192.893 120.455 191.058 123.351 189.03 124.462C189.03 124.269 189.03 124.162 189.03 124.162C189.03 124.162 195.215 115.371 191.734 114.913C188.253 114.454 184.28 114.082 184.589 116.868C184.929 119.247 185.404 121.605 186.013 123.931C186.013 123.931 186.013 123.979 186.013 124.061C185.048 123.187 184.203 121.647 183.599 119.803L184.251 117.998L182.803 117.206C182.926 116.523 183.232 115.885 183.687 115.361C184.143 114.837 184.731 114.445 185.39 114.227Z" fill="#00BA77"/>
<path d="M185.29 116.858C185.178 116.601 185.133 116.321 185.158 116.043C185.184 115.764 185.279 115.497 185.434 115.265C188.051 114.381 187.81 112.416 187.206 110.596L191.421 106.295C191.174 108.583 191.083 113.85 192.579 115.685V116.105C191.928 116.941 191.058 117.58 190.064 117.949C189.071 118.318 187.994 118.403 186.955 118.195C186.586 118.133 186.24 117.977 185.948 117.743C185.657 117.509 185.43 117.204 185.29 116.858Z" fill="#7F3E3B"/>
<path opacity="0.1" d="M187.209 110.597L190.559 107.179L191.332 107.459C191.308 107.869 191.293 108.318 191.288 108.791C190.864 109.66 189.84 110.882 187.465 111.495C187.396 111.191 187.31 110.891 187.209 110.597Z" fill="black"/>
<path d="M193.593 102.501C192.574 106.397 192.227 108.067 189.837 109.699C186.245 112.156 181.683 110.056 181.514 105.933C181.364 102.221 183.049 96.4759 187.22 95.6649C188.139 95.482 189.088 95.5369 189.979 95.8243C190.87 96.1116 191.673 96.622 192.312 97.3068C192.95 97.9917 193.403 98.8283 193.627 99.7373C193.851 100.646 193.839 101.598 193.593 102.501Z" fill="#7F3E3B"/>
<path d="M184.31 103.505C183.88 104.182 183.361 104.797 182.766 105.335C182.905 105.483 183.076 105.6 183.265 105.675C183.454 105.751 183.658 105.785 183.861 105.774L184.31 103.505Z" fill="#630F0F"/>
<path d="M188.466 102.071C188.493 102.07 188.52 102.062 188.543 102.047C188.561 102.037 188.577 102.023 188.59 102.006C188.602 101.989 188.611 101.97 188.616 101.95C188.621 101.929 188.622 101.908 188.618 101.888C188.615 101.867 188.607 101.847 188.596 101.83C188.448 101.569 188.239 101.348 187.987 101.186C187.734 101.023 187.447 100.925 187.148 100.898C187.127 100.897 187.106 100.901 187.086 100.908C187.067 100.916 187.049 100.927 187.034 100.941C187.019 100.956 187.006 100.973 186.998 100.992C186.989 101.011 186.984 101.032 186.984 101.053C186.982 101.073 186.985 101.094 186.992 101.113C186.999 101.133 187.01 101.151 187.024 101.166C187.038 101.182 187.055 101.194 187.073 101.203C187.092 101.211 187.113 101.216 187.133 101.217C187.379 101.244 187.615 101.329 187.821 101.465C188.028 101.601 188.199 101.784 188.321 101.999C188.337 102.022 188.358 102.041 188.384 102.054C188.409 102.067 188.437 102.073 188.466 102.071Z" fill="#263238"/>
<path d="M182.006 100.898C182.031 100.905 182.058 100.905 182.083 100.898C182.295 100.772 182.533 100.698 182.779 100.682C183.025 100.666 183.271 100.708 183.498 100.806C183.536 100.825 183.579 100.828 183.62 100.816C183.66 100.803 183.694 100.775 183.715 100.738C183.725 100.719 183.731 100.699 183.732 100.677C183.734 100.656 183.731 100.635 183.725 100.614C183.718 100.594 183.707 100.575 183.693 100.559C183.679 100.543 183.662 100.53 183.642 100.521C183.369 100.399 183.07 100.345 182.771 100.361C182.473 100.378 182.182 100.466 181.924 100.618C181.887 100.638 181.859 100.672 181.846 100.713C181.834 100.753 181.837 100.797 181.856 100.835C181.871 100.861 181.893 100.883 181.919 100.898C181.946 100.912 181.976 100.919 182.006 100.917V100.898Z" fill="#263238"/>
<path d="M185.494 106.845C185.308 106.846 185.122 106.83 184.939 106.797C184.926 106.795 184.914 106.791 184.903 106.784C184.892 106.778 184.882 106.769 184.874 106.759C184.867 106.748 184.861 106.737 184.858 106.724C184.855 106.712 184.855 106.699 184.857 106.686C184.861 106.661 184.876 106.638 184.896 106.623C184.917 106.608 184.942 106.601 184.968 106.604C185.375 106.684 185.795 106.668 186.195 106.556C186.595 106.445 186.963 106.241 187.271 105.962C187.29 105.949 187.313 105.942 187.336 105.944C187.359 105.946 187.38 105.955 187.397 105.971C187.414 105.987 187.425 106.008 187.429 106.031C187.432 106.054 187.427 106.077 187.415 106.097C186.895 106.584 186.207 106.852 185.494 106.845Z" fill="#263238"/>
<path d="M192.252 105.547C191.781 105.012 191.431 104.381 191.227 103.697C191.022 103.014 190.969 102.294 191.069 101.588C191.069 101.588 189.5 99.9806 189.577 98.262C189.577 98.262 189.095 99.633 189.577 100.608C189.577 100.608 185.508 100.314 185.604 98.262C185.604 98.262 185.334 99.2951 185.947 99.8309C185.947 99.8309 182.331 99.9806 182.823 98.1075C183.316 96.2343 186.145 95.3219 186.145 95.3219C186.145 95.3219 188.843 93.0288 192.575 97.0792C192.575 97.0792 196.968 99.8213 193.855 104.398L192.252 105.547Z" fill="#263238"/>
<path d="M193.888 105.803C193.711 106.148 193.467 106.453 193.171 106.702C192.874 106.951 192.53 107.138 192.16 107.251C191.194 107.551 190.658 106.672 190.914 105.731C191.146 104.881 191.938 103.703 192.942 103.8C193.29 103.851 193.604 104.038 193.814 104.321C194.024 104.603 194.113 104.957 194.062 105.306C194.039 105.482 193.98 105.651 193.888 105.803Z" fill="#7F3E3B"/>
<path d="M187.242 102.95C187.203 103.283 186.995 103.539 186.759 103.515C186.522 103.49 186.392 103.206 186.431 102.863C186.469 102.52 186.672 102.279 186.889 102.298C187.106 102.317 187.275 102.612 187.242 102.95Z" fill="#2E353A"/>
<path d="M183.454 102.554C183.42 102.887 183.212 103.138 182.995 103.119C182.778 103.099 182.623 102.805 182.657 102.467C182.691 102.129 182.898 101.878 183.14 101.902C183.381 101.926 183.454 102.211 183.454 102.554Z" fill="#2E353A"/>
<path d="M183.192 101.931L182.41 101.612C182.41 101.612 182.758 102.283 183.192 101.931Z" fill="#2E353A"/>
<path d="M186.998 102.346L186.211 102.032C186.211 102.032 186.563 102.684 186.998 102.346Z" fill="#2E353A"/>
<path d="M191.92 109.062C192.173 109.062 192.42 108.989 192.632 108.851C192.845 108.713 193.012 108.517 193.114 108.285C193.217 108.054 193.25 107.798 193.209 107.548C193.168 107.299 193.056 107.066 192.885 106.879L192.716 107.034C192.898 107.231 192.998 107.49 192.996 107.758C192.997 107.971 192.935 108.18 192.817 108.358C192.699 108.536 192.531 108.674 192.334 108.757C192.137 108.839 191.92 108.86 191.711 108.819C191.502 108.778 191.309 108.675 191.159 108.524C191.008 108.373 190.905 108.181 190.864 107.972C190.822 107.762 190.844 107.546 190.926 107.349C191.008 107.152 191.147 106.984 191.325 106.866C191.502 106.748 191.711 106.685 191.925 106.686C192.076 106.685 192.226 106.716 192.364 106.778L192.456 106.57C192.289 106.493 192.108 106.454 191.925 106.455C191.753 106.455 191.584 106.488 191.426 106.554C191.268 106.619 191.124 106.715 191.003 106.836C190.882 106.957 190.786 107.101 190.72 107.259C190.655 107.417 190.621 107.587 190.621 107.758C190.621 107.929 190.655 108.099 190.72 108.257C190.786 108.415 190.882 108.559 191.003 108.68C191.124 108.801 191.268 108.897 191.426 108.962C191.584 109.028 191.753 109.062 191.925 109.062H191.92Z" fill="#00BA77"/>
<g opacity="0.6">
<path d="M191.915 109.062C192.168 109.062 192.415 108.989 192.628 108.851C192.84 108.713 193.007 108.517 193.11 108.285C193.212 108.054 193.245 107.798 193.204 107.548C193.163 107.299 193.051 107.066 192.88 106.879L192.711 107.034C192.893 107.231 192.993 107.49 192.991 107.758C192.992 107.971 192.93 108.18 192.812 108.358C192.694 108.536 192.526 108.674 192.329 108.757C192.132 108.839 191.915 108.86 191.706 108.819C191.497 108.778 191.304 108.675 191.154 108.524C191.003 108.373 190.9 108.181 190.859 107.972C190.817 107.762 190.839 107.546 190.921 107.349C191.003 107.152 191.142 106.984 191.32 106.866C191.498 106.748 191.706 106.685 191.92 106.686C192.071 106.685 192.221 106.716 192.359 106.778L192.451 106.57C192.284 106.493 192.103 106.454 191.92 106.455C191.749 106.455 191.579 106.488 191.421 106.554C191.263 106.619 191.119 106.715 190.998 106.836C190.877 106.957 190.781 107.101 190.715 107.259C190.65 107.417 190.616 107.587 190.616 107.758C190.616 107.929 190.65 108.099 190.715 108.257C190.781 108.415 190.877 108.559 190.998 108.68C191.119 108.801 191.263 108.897 191.421 108.962C191.579 109.028 191.749 109.062 191.92 109.062H191.915Z" fill="white"/>
</g>
<path d="M191.025 128.778L187.481 128.932L186.293 127.001C186.217 126.877 186.114 126.771 185.991 126.693C185.868 126.614 185.729 126.564 185.584 126.547L185.352 126.518C185.161 126.494 184.968 126.526 184.796 126.612C184.623 126.698 184.481 126.834 184.387 127.001L183.508 128.541C183.418 128.697 183.373 128.875 183.379 129.055C183.385 129.235 183.442 129.41 183.542 129.56L183.952 130.183C184.05 130.334 184.183 130.46 184.339 130.55C184.495 130.641 184.67 130.694 184.85 130.704L186.66 130.805L190.667 131.346L191.025 128.778Z" fill="#7F3E3B"/>
<path d="M197.323 115.863L199.085 128.497H188.807L188.561 131.486C188.561 131.486 202.681 134.223 203.352 131.785C204.023 129.347 204.27 121.589 203.256 118.475C202.739 116.906 201.223 115.096 198.308 114.83C198.171 114.818 198.033 114.837 197.905 114.885C197.777 114.934 197.661 115.01 197.566 115.11C197.472 115.209 197.401 115.328 197.358 115.459C197.316 115.589 197.304 115.728 197.323 115.863Z" fill="#00BA77"/>
<path d="M152.405 42.9658H141.123L129.749 173.023H141.031C143.609 172.976 146.08 171.986 147.977 170.241C149.875 168.495 151.067 166.115 151.329 163.551L161.047 52.4425C161.181 51.2361 161.056 50.0151 160.681 48.8608C160.305 47.7065 159.688 46.6455 158.87 45.7486C158.053 44.8517 157.053 44.1396 155.938 43.6597C154.823 43.1799 153.619 42.9433 152.405 42.9658Z" fill="#263238"/>
<path d="M159.395 56.0005C159.42 55.7582 159.531 55.5328 159.708 55.366C159.886 55.1992 160.117 55.1022 160.361 55.0929C160.477 55.0909 160.593 55.1136 160.699 55.1596C160.806 55.2055 160.902 55.2737 160.981 55.3595C161.059 55.4453 161.119 55.5468 161.155 55.6574C161.191 55.7679 161.204 55.8848 161.191 56.0005L160.428 64.6903C160.417 64.9433 160.31 65.1828 160.131 65.3615C159.951 65.5402 159.711 65.6452 159.458 65.6558C159.342 65.6571 159.227 65.6339 159.121 65.5876C159.015 65.5414 158.919 65.4731 158.842 65.3874C158.764 65.3016 158.705 65.2003 158.669 65.0902C158.633 64.98 158.62 64.8634 158.633 64.7482L159.395 56.0005Z" fill="#00BA77"/>
<path opacity="0.3" d="M159.395 56.0005C159.42 55.7582 159.531 55.5328 159.708 55.366C159.886 55.1992 160.117 55.1022 160.361 55.0929C160.477 55.0909 160.593 55.1136 160.699 55.1596C160.806 55.2055 160.902 55.2737 160.981 55.3595C161.059 55.4453 161.119 55.5468 161.155 55.6574C161.191 55.7679 161.204 55.8848 161.191 56.0005L160.428 64.6903C160.417 64.9433 160.31 65.1828 160.131 65.3615C159.951 65.5402 159.711 65.6452 159.458 65.6558C159.342 65.6571 159.227 65.6339 159.121 65.5876C159.015 65.5414 158.919 65.4731 158.842 65.3874C158.764 65.3016 158.705 65.2003 158.669 65.0902C158.633 64.98 158.62 64.8634 158.633 64.7482L159.395 56.0005Z" fill="white"/>
<path d="M138.716 173.022H92.2307C91.0178 173.044 89.8142 172.807 88.7001 172.327C87.5859 171.847 86.5868 171.136 85.7692 170.24C84.9516 169.343 84.3343 168.283 83.9584 167.13C83.5825 165.977 83.4567 164.756 83.5892 163.551L93.3121 52.4424C93.5706 49.876 94.7617 47.4936 96.6597 45.7469C98.5576 44.0003 101.03 43.0106 103.609 42.9657H150.095C151.307 42.9441 152.51 43.181 153.624 43.6606C154.738 44.1401 155.737 44.8514 156.554 45.747C157.372 46.6426 157.989 47.702 158.365 48.8548C158.742 50.0076 158.868 51.2273 158.736 52.4327L149.013 163.551C148.752 166.115 147.56 168.495 145.662 170.241C143.765 171.986 141.294 172.975 138.716 173.022Z" fill="#00BA77"/>
<path d="M149.905 45.148H137.836C137.443 45.1557 137.064 45.2949 136.759 45.5435C136.455 45.792 136.242 46.1355 136.156 46.519L136.074 46.9004C135.864 47.8379 135.346 48.6778 134.602 49.2853C133.858 49.8929 132.931 50.2329 131.97 50.2508H120.471C119.561 50.2703 118.681 49.9288 118.022 49.3009C117.364 48.6731 116.981 47.81 116.956 46.9004V46.519C116.951 46.3339 116.91 46.1516 116.835 45.9824C116.759 45.8133 116.651 45.6607 116.516 45.5334C116.382 45.4061 116.224 45.3065 116.051 45.2404C115.878 45.1743 115.693 45.1429 115.508 45.148H103.439C101.454 45.1848 99.5512 45.9472 98.0899 47.2911C96.6285 48.6351 95.7098 50.4676 95.5073 52.4426L85.7603 163.551C85.6579 164.48 85.7547 165.42 86.0442 166.309C86.3337 167.198 86.8092 168.015 87.4391 168.705C88.0689 169.396 88.8387 169.944 89.6972 170.314C90.5556 170.684 91.483 170.867 92.4176 170.85H138.908C140.894 170.813 142.797 170.05 144.258 168.705C145.72 167.36 146.638 165.527 146.84 163.551L156.562 52.4426C156.664 51.5138 156.567 50.5741 156.277 49.6859C155.987 48.7977 155.511 47.9815 154.882 47.2914C154.252 46.6013 153.482 46.0532 152.624 45.6837C151.766 45.3141 150.839 45.1315 149.905 45.148Z" fill="#00BA77"/>
<path opacity="0.7" d="M149.905 45.148H137.836C137.443 45.1557 137.064 45.2949 136.759 45.5435C136.455 45.792 136.242 46.1355 136.156 46.519L136.074 46.9004C135.864 47.8379 135.346 48.6778 134.602 49.2853C133.858 49.8929 132.931 50.2329 131.97 50.2508H120.471C119.561 50.2703 118.681 49.9288 118.022 49.3009C117.364 48.6731 116.981 47.81 116.956 46.9004V46.519C116.951 46.3339 116.91 46.1516 116.835 45.9824C116.759 45.8133 116.651 45.6607 116.516 45.5334C116.382 45.4061 116.224 45.3065 116.051 45.2404C115.878 45.1743 115.693 45.1429 115.508 45.148H103.439C101.454 45.1848 99.5512 45.9472 98.0899 47.2911C96.6285 48.6351 95.7098 50.4676 95.5073 52.4426L85.7603 163.551C85.6579 164.48 85.7547 165.42 86.0442 166.309C86.3337 167.198 86.8092 168.015 87.4391 168.705C88.0689 169.396 88.8387 169.944 89.6972 170.314C90.5556 170.684 91.483 170.867 92.4176 170.85H138.908C140.894 170.813 142.797 170.05 144.258 168.705C145.72 167.36 146.638 165.527 146.84 163.551L156.562 52.4426C156.664 51.5138 156.567 50.5741 156.277 49.6859C155.987 48.7977 155.511 47.9815 154.882 47.2914C154.252 46.6013 153.482 46.0532 152.624 45.6837C151.766 45.3141 150.839 45.1315 149.905 45.148Z" fill="white"/>
<g opacity="0.2">
<path d="M123.424 47.0125C123.809 46.6437 123.848 46.0591 123.511 45.7066C123.173 45.3542 122.588 45.3674 122.202 45.7361C121.817 46.1049 121.778 46.6895 122.116 47.042C122.453 47.3944 123.039 47.3812 123.424 47.0125Z" fill="black"/>
<path d="M130.366 45.4573H127.199C126.948 45.4618 126.707 45.5581 126.522 45.728C126.337 45.8978 126.221 46.1295 126.195 46.3793C126.183 46.4969 126.195 46.6158 126.232 46.728C126.27 46.8403 126.33 46.9434 126.41 47.0306C126.49 47.1177 126.587 47.1869 126.696 47.2336C126.804 47.2803 126.922 47.3034 127.04 47.3014H130.207C130.458 47.2958 130.698 47.1992 130.882 47.0295C131.067 46.8598 131.184 46.6288 131.211 46.3793C131.224 46.2616 131.212 46.1424 131.175 46.0298C131.138 45.9172 131.078 45.8138 130.998 45.7264C130.918 45.6391 130.82 45.5699 130.711 45.5235C130.602 45.477 130.484 45.4545 130.366 45.4573Z" fill="black"/>
</g>
<path d="M100.731 50.2364H101.707L101.794 49.2563H100.814L100.731 50.2364Z" fill="#00BA77"/>
<path d="M102.779 49.2564L102.692 50.2364H103.668L103.754 49.2564L103.841 48.2812H102.861L102.779 49.2564Z" fill="#00BA77"/>
<path d="M104.901 47.3008L104.814 48.2808L104.728 49.256L104.646 50.236H105.621L105.708 49.256L105.794 48.2808L105.877 47.3008H104.901Z" fill="#00BA77"/>
<path d="M146.938 47.3687L146.875 48.0831H146.392L146.267 49.5314H146.749L146.687 50.2508H150.988L151.239 47.3831L146.938 47.3687ZM148.661 49.517H147.213L147.338 48.0687H148.787L148.661 49.517Z" fill="#00BA77"/>
<g opacity="0.4">
<path d="M120.506 50.251L88.417 169.576C89.5818 170.415 90.9836 170.861 92.4191 170.85H94.9295L127.362 50.251H120.506Z" fill="white"/>
<path d="M149.905 45.1482H137.836C137.443 45.1559 137.064 45.2952 136.76 45.5437C136.455 45.7923 136.243 46.1358 136.156 46.5193L136.074 46.9007C135.87 47.8132 135.373 48.634 134.66 49.238C133.946 49.842 133.054 50.1961 132.12 50.2462L99.6689 170.85H124.411L156.563 51.289C156.46 49.6042 155.709 48.0246 154.469 46.8801C153.228 45.7357 151.593 45.1152 149.905 45.1482Z" fill="white"/>
</g>
<path d="M101.334 77.5315L99.8857 77.2177C99.7923 77.1994 99.7041 77.1609 99.6272 77.1049C99.5503 77.0488 99.4867 76.9766 99.4406 76.8934C99.3946 76.8101 99.3674 76.7177 99.3609 76.6228C99.3544 76.5279 99.3687 76.4327 99.4029 76.3439L101.426 71.0625L103.738 71.5453L102.092 77.0633C102.049 77.2229 101.946 77.3602 101.805 77.4471C101.665 77.5341 101.496 77.5643 101.334 77.5315Z" fill="#00BA77"/>
<path d="M106.947 70.7732C106.852 70.7527 106.761 70.7134 106.681 70.6578C106.601 70.6022 106.533 70.5313 106.481 70.4491C106.428 70.367 106.392 70.2753 106.375 70.1793C106.359 70.0833 106.361 69.9849 106.382 69.8898L106.575 68.9822C106.596 68.8864 106.635 68.7957 106.691 68.7152C106.747 68.6348 106.818 68.5663 106.901 68.5138C106.984 68.4612 107.076 68.4256 107.173 68.4091C107.269 68.3925 107.368 68.3953 107.464 68.4174C107.656 68.459 107.824 68.5755 107.931 68.7411C108.038 68.9068 108.075 69.1081 108.033 69.3008L107.835 70.2036C107.792 70.3966 107.675 70.5649 107.509 70.6716C107.342 70.7784 107.14 70.8149 106.947 70.7732Z" fill="#00BA77"/>
<path d="M105.515 66.2736C105.515 66.2736 100.012 65.646 98.0855 64.6612C93.5571 62.3343 89.2267 56.7825 88.3095 56.5846C86.8129 56.2563 84.7757 59.7998 83.7522 64.4971C82.7287 69.1944 83.1149 73.2592 84.6115 73.5827C85.5336 73.7854 91.7709 70.5316 96.8592 70.2951C99.022 70.1985 104.275 71.9316 104.275 71.9316L105.515 66.2736Z" fill="#00BA77"/>
<path opacity="0.3" d="M105.515 66.2736C105.515 66.2736 100.012 65.646 98.0855 64.6612C93.5571 62.3343 89.2267 56.7825 88.3095 56.5846C86.8129 56.2563 84.7757 59.7998 83.7522 64.4971C82.7287 69.1944 83.1149 73.2592 84.6115 73.5827C85.5336 73.7854 91.7709 70.5316 96.8592 70.2951C99.022 70.1985 104.275 71.9316 104.275 71.9316L105.515 66.2736Z" fill="white"/>
<path d="M89.1706 65.6559C88.152 70.3484 86.1099 73.8919 84.6133 73.5636C83.1167 73.2353 82.7354 69.1705 83.754 64.478C84.7726 59.7855 86.8147 56.2372 88.3113 56.5655C89.8078 56.8938 90.1941 60.978 89.1706 65.6559Z" fill="#00BA77"/>
<path opacity="0.4" d="M89.1706 65.6559C88.152 70.3484 86.1099 73.8919 84.6133 73.5636C83.1167 73.2353 82.7354 69.1705 83.754 64.478C84.7726 59.7855 86.8147 56.2372 88.3113 56.5655C89.8078 56.8938 90.1941 60.978 89.1706 65.6559Z" fill="black"/>
<path d="M104.62 65.6557L102.066 65.1006C101.902 65.0643 101.731 65.0623 101.566 65.0946C101.401 65.1269 101.244 65.1929 101.106 65.2885C100.967 65.3841 100.85 65.5071 100.761 65.65C100.672 65.793 100.613 65.9527 100.589 66.1192C100.497 66.7613 100.381 67.4227 100.236 68.0985C100.091 68.7744 99.9176 69.4261 99.7534 70.0296C99.7066 70.1917 99.6936 70.3616 99.7152 70.529C99.7368 70.6963 99.7926 70.8574 99.8791 71.0022C99.9655 71.1471 100.081 71.2726 100.218 71.3711C100.355 71.4695 100.511 71.5387 100.676 71.5744L103.702 72.231C105.518 72.6269 106.826 71.3475 107.193 69.5227C107.357 68.6694 107.179 67.7859 106.698 67.0625C106.216 66.3391 105.47 65.8339 104.62 65.6557Z" fill="#263238"/>
<path d="M86.5394 64.7146L86.3801 65.4532C86.3337 65.6596 86.3622 65.8758 86.4603 66.0632C86.5584 66.2507 86.7199 66.3972 86.916 66.4767L88.7698 67.2491C88.9146 66.7422 89.0498 66.216 89.1657 65.6753C89.2815 65.1346 89.3829 64.5939 89.465 64.0725L87.4519 64.0049C87.2408 63.9978 87.0339 64.0649 86.8672 64.1946C86.7005 64.3242 86.5845 64.5082 86.5394 64.7146Z" fill="#263238"/>
<path opacity="0.8" d="M86.5394 64.7146L86.3801 65.4532C86.3337 65.6596 86.3622 65.8758 86.4603 66.0632C86.5584 66.2507 86.7199 66.3972 86.916 66.4767L88.7698 67.2491C88.9146 66.7422 89.0498 66.216 89.1657 65.6753C89.2815 65.1346 89.3829 64.5939 89.465 64.0725L87.4519 64.0049C87.2408 63.9978 87.0339 64.0649 86.8672 64.1946C86.7005 64.3242 86.5845 64.5082 86.5394 64.7146Z" fill="white"/>
<path opacity="0.2" d="M87.9396 65.4047C87.8382 65.8874 87.7271 66.3219 87.6064 66.7661L88.7699 67.2488C88.9147 66.7419 89.0499 66.2157 89.1658 65.675C89.2816 65.1343 89.383 64.5936 89.4651 64.0723L88.2003 64.0288C88.1294 64.4697 88.0425 64.9284 87.9396 65.4047Z" fill="black"/>
<path d="M132.547 65.6945C133.009 65.871 133.505 65.9355 133.996 65.8826C134.487 65.8297 134.958 65.661 135.371 65.3903C136.854 64.4248 139.634 65.6414 138.794 69.5952C137.346 76.3925 134.324 81.2733 136.284 83.3298C136.284 83.3298 129.757 83.6292 130.722 77.865C131.447 73.5201 136.356 68.6345 135.174 67.6593C134.778 67.331 134.208 67.5 132.349 67.5L132.547 65.6945Z" fill="#263238"/>
<path d="M132.348 67.4998C133.242 67.4703 134.136 67.5777 134.998 67.8184C135.302 66.9433 135.421 66.0143 135.346 65.0908C134.395 65.2 133.457 65.4021 132.546 65.6943L132.348 67.4998Z" fill="#00BA77"/>
<path d="M126.201 60.7412C126.201 60.7412 123.487 59.9688 125.279 58.2164C127.615 55.9329 130.937 60.2102 130.937 60.2102C130.937 60.2102 138.724 63.6137 132.298 71.5069C132.298 71.5069 129.976 75.6587 129.493 74.0414C129.01 72.4241 132.235 67.8427 132.235 67.8427L132.042 63.7392L131.149 62.1413L128.344 60.5385L126.201 60.7412Z" fill="#263238"/>
<path d="M115.436 83.8606C115.252 83.5596 115.011 83.2978 114.726 83.0903C114.44 82.8827 114.117 82.7334 113.774 82.6509C113.431 82.5684 113.075 82.5543 112.727 82.6095C112.378 82.6646 112.044 82.7879 111.743 82.9723H111.705C110.86 83.4889 109.962 84.0634 109.074 84.5944L106.394 86.202C105.139 86.939 103.877 87.6551 102.609 88.3503C102.537 87.3866 102.521 86.4194 102.561 85.4537C102.595 84.3241 102.677 83.1703 102.764 82.0165C102.851 80.8627 102.967 79.6799 103.063 78.5357V78.5068C103.088 78.1851 102.995 77.8654 102.803 77.6062C102.611 77.347 102.332 77.1656 102.018 77.0953C101.703 77.0249 101.373 77.0703 101.089 77.2232C100.805 77.376 100.585 77.626 100.471 77.9274C100.041 79.0909 99.7031 80.2399 99.3651 81.4178C99.0272 82.5958 98.7713 83.7834 98.5444 85.0096C98.2967 86.2827 98.1611 87.575 98.1389 88.8717C98.1198 89.6876 98.2256 90.5016 98.4527 91.2855C98.6598 91.9865 99.0616 92.6142 99.6114 93.0959C100.028 93.4482 100.526 93.692 101.06 93.8056C101.525 93.8958 102.004 93.8958 102.469 93.8056C102.581 93.7806 102.691 93.7467 102.798 93.7042L102.957 93.6414C103.985 93.2166 105.009 92.7918 106.003 92.309C106.998 91.8262 107.992 91.3435 108.962 90.8366C109.933 90.3297 110.894 89.7841 111.859 89.2193C112.825 88.6545 113.723 88.0896 114.674 87.4331C115.226 87.0423 115.612 86.4578 115.753 85.7959C115.894 85.1339 115.781 84.443 115.436 83.8606Z" fill="#CE7A63"/>
<path d="M117.79 80.3367C119.417 83.6147 117.076 86.4582 112.784 91.0154C110.543 89.1978 108.977 86.6799 108.338 83.8657C108.338 83.8657 113.301 79.7719 117.79 80.3367Z" fill="#00BA77"/>
<path opacity="0.2" d="M117.963 84.2275C116.374 83.262 114.583 82.8275 113.343 84.4061C112.374 85.6774 111.252 86.8238 110.002 87.8193C110.762 89.0246 111.707 90.1031 112.802 91.0152C115.38 88.2924 117.224 86.1827 117.963 84.2275Z" fill="black"/>
<path d="M101.859 72.4144L102.96 73.1434C103.165 73.2771 103.335 73.4584 103.455 73.6719C103.575 73.8854 103.642 74.1247 103.65 74.3696L103.737 76.6917C103.751 77.1487 103.657 77.6025 103.463 78.0162C103.268 78.4299 102.978 78.7916 102.617 79.0718L102.158 79.4242C100.227 78.338 98.9769 75.76 98.9769 75.76L98.5328 75.0648C98.4376 74.9247 98.3711 74.7672 98.3373 74.6012C98.3035 74.4352 98.3029 74.2642 98.3357 74.0981C98.3685 73.9319 98.434 73.7739 98.5283 73.6332C98.6226 73.4926 98.7439 73.372 98.8852 73.2786L100.247 72.3806C100.49 72.23 100.772 72.153 101.058 72.159C101.344 72.165 101.622 72.2537 101.859 72.4144Z" fill="#CE7A63"/>
<path d="M114.02 170.85C116.521 163.126 118.23 154.547 116.531 148.286C126.862 117.939 122.203 109.105 122.203 109.105L109.907 104.62C109.907 104.62 108.15 131.949 107.619 145.172C107.324 152.563 106.064 162.175 104.611 170.855L114.02 170.85Z" fill="#263238"/>
<path opacity="0.5" d="M120.4 120.334L117.904 116.308L116.378 119.446C115.582 128.098 115.959 136.818 117.498 145.37C119.487 139.397 121.058 133.293 122.2 127.102L120.4 120.334Z" fill="black"/>
<path d="M121.573 170.85H130.896C131.861 162.822 131.861 154.185 129.013 148.411C133.358 116.65 127.082 108.873 127.082 108.873L114.153 106.826C114.153 106.826 117.663 133.986 119.676 147.055C120.714 153.823 121.303 162.605 121.573 170.85Z" fill="#263238"/>
<path d="M112.038 86.4387C111.492 88.7885 111.105 91.1723 110.88 93.574C110.465 97.074 110.16 100.531 109.76 106.309L127.265 109.105C127.694 104.122 129.157 98.5947 134.057 87.9981C134.334 87.4469 134.484 86.8408 134.497 86.2241C134.509 85.6074 134.383 84.9957 134.129 84.4339C133.874 83.8721 133.497 83.3742 133.025 82.9769C132.554 82.5795 131.999 82.2927 131.402 82.1373C130.721 81.9587 129.997 81.7849 129.249 81.6256C126.632 81.0188 123.975 80.5993 121.298 80.3704C120.424 80.3125 119.512 80.2787 118.638 80.2594C115.481 80.1773 112.623 83.3732 112.038 86.4387Z" fill="#00BA77"/>
<path d="M130.103 72.564C129.007 75.0116 127.418 79.564 128.809 81.5337C128.809 81.5337 126.443 80.7854 120.8 83.151C119.646 80.7806 120.863 80.2544 120.863 80.2544C123.87 80.0372 124.29 77.9323 124.242 75.9095L130.103 72.564Z" fill="#CE7A63"/>
<path d="M121.984 82.683C122.288 82.7945 122.564 82.9699 122.794 83.1973C123.024 83.4247 123.202 83.6987 123.317 84.0009C123.413 84.2207 123.554 84.4176 123.732 84.5787C123.909 84.7399 124.119 84.8616 124.347 84.9359C124.575 85.0103 124.816 85.0355 125.055 85.01C125.293 84.9844 125.524 84.9087 125.731 84.7878C127.179 83.972 129.004 82.8085 129.916 81.7754C129.443 81.4156 128.991 81.0304 128.56 80.6216C128.56 80.6216 123.129 81.8623 121.984 82.683Z" fill="white"/>
<path d="M120.415 82.1566C120.002 82.2234 119.611 82.389 119.275 82.6393C119.182 82.707 119.07 82.7434 118.955 82.7435C118.84 82.7436 118.728 82.7073 118.635 82.6399C118.542 82.5724 118.472 82.4771 118.436 82.3678C118.4 82.2585 118.4 82.1406 118.435 82.0311C119.039 80.3221 120.082 80.1 120.082 80.1C120.585 79.9081 121.142 79.9081 121.646 80.1C121.228 80.2382 120.874 80.5219 120.648 80.8994C120.422 81.277 120.339 81.7231 120.415 82.1566Z" fill="white"/>
<path opacity="0.2" d="M127.718 73.9302L124.262 75.9095C124.278 76.3939 124.249 76.8788 124.175 77.3578C125.304 77.3578 127.071 76.4309 127.458 75.3254C127.63 74.8804 127.718 74.4073 127.718 73.9302Z" fill="black"/>
<path d="M133.1 67.78C131.652 71.7869 131.169 73.5056 128.48 75.1132C124.468 77.527 119.848 75.1856 120.046 70.9035C120.23 67.0414 122.537 61.142 127.008 60.4516C127.963 60.2712 128.949 60.3496 129.864 60.6786C130.779 61.0076 131.589 61.5754 132.21 62.323C132.832 63.0706 133.242 63.9708 133.399 64.9303C133.555 65.8898 133.452 66.8737 133.1 67.78Z" fill="#CE7A63"/>
<path d="M127.717 67.6303C127.61 67.9731 127.35 68.2096 127.128 68.1565C126.906 68.1034 126.814 67.7848 126.915 67.442C127.017 67.0993 127.287 66.8676 127.509 66.9207C127.731 66.9738 127.823 67.2924 127.717 67.6303Z" fill="#263238"/>
<path d="M123.443 66.4909C123.337 66.8288 123.071 67.0654 122.849 67.0123C122.627 66.9591 122.536 66.6405 122.642 66.3026C122.748 65.9647 123.014 65.7233 123.236 65.7764C123.458 65.8295 123.549 66.1384 123.443 66.4909Z" fill="#263238"/>
<path d="M123.333 65.8198L122.59 65.3901C122.59 65.3901 122.812 66.1384 123.333 65.8198Z" fill="#263238"/>
<path d="M124.681 67.1958C124.137 67.9047 123.504 68.5407 122.798 69.0882C122.938 69.2531 123.112 69.3847 123.31 69.4732C123.507 69.5618 123.721 69.6051 123.937 69.6L124.681 67.1958Z" fill="#BA4D3C"/>
<path d="M129.014 65.656C128.987 65.6536 128.96 65.6449 128.937 65.6307C128.913 65.6165 128.894 65.597 128.879 65.5739C128.747 65.3577 128.563 65.1781 128.344 65.0515C128.124 64.925 127.877 64.8556 127.624 64.8497C127.597 64.8504 127.571 64.8457 127.546 64.8361C127.522 64.8264 127.499 64.8119 127.481 64.7935C127.462 64.7751 127.447 64.753 127.436 64.7287C127.426 64.7044 127.421 64.6782 127.421 64.6518C127.424 64.5953 127.448 64.542 127.488 64.502C127.528 64.462 127.582 64.438 127.638 64.4346C127.958 64.4402 128.272 64.5251 128.55 64.6819C128.829 64.8386 129.065 65.0622 129.236 65.3325C129.255 65.3683 129.263 65.4084 129.261 65.4487C129.258 65.4889 129.245 65.5278 129.222 65.561C129.199 65.5943 129.168 65.6207 129.131 65.6374C129.095 65.6541 129.054 65.6605 129.014 65.656Z" fill="#263238"/>
<path d="M122.527 63.6235C122.503 63.6138 122.481 63.5994 122.463 63.5811C122.444 63.5629 122.43 63.5412 122.42 63.5173C122.403 63.4654 122.408 63.409 122.432 63.3602C122.456 63.3114 122.499 63.2742 122.551 63.2566C122.86 63.1265 123.195 63.0693 123.53 63.0894C123.865 63.1095 124.19 63.2063 124.482 63.3724C124.503 63.3877 124.522 63.4072 124.536 63.4299C124.549 63.4525 124.558 63.4778 124.562 63.504C124.566 63.5303 124.564 63.557 124.557 63.5826C124.549 63.6081 124.537 63.6319 124.52 63.6524C124.487 63.6964 124.438 63.7262 124.383 63.736C124.329 63.7459 124.273 63.735 124.226 63.7056C123.993 63.5755 123.734 63.5008 123.467 63.4874C123.201 63.474 122.935 63.5222 122.691 63.6283C122.664 63.6384 122.636 63.6432 122.608 63.6424C122.58 63.6416 122.552 63.6351 122.527 63.6235Z" fill="#263238"/>
<path d="M127.605 66.9638L126.866 66.5342C126.866 66.5342 127.083 67.2728 127.605 66.9638Z" fill="#263238"/>
<path d="M111.68 99.5989H107.509C107.306 99.59 107.112 99.5155 106.955 99.3866C106.798 99.2578 106.688 99.0815 106.64 98.8844L104.709 89.847C104.684 89.7621 104.68 89.6725 104.697 89.5857C104.714 89.4989 104.751 89.4174 104.806 89.348C104.861 89.2786 104.931 89.2232 105.012 89.1866C105.092 89.15 105.18 89.1331 105.269 89.1374H109.44C109.642 89.146 109.836 89.2198 109.992 89.3477C110.149 89.4756 110.26 89.6508 110.309 89.847L112.24 98.8844C112.264 98.9695 112.268 99.0593 112.251 99.1463C112.234 99.2333 112.197 99.315 112.142 99.3847C112.088 99.4545 112.017 99.5103 111.937 99.5475C111.856 99.5847 111.768 99.6023 111.68 99.5989Z" fill="#263238"/>
<path d="M111.2 99.5989H107.029C106.826 99.59 106.632 99.5155 106.475 99.3866C106.319 99.2578 106.208 99.0815 106.16 98.8844L104.229 89.847C104.204 89.7621 104.2 89.6725 104.217 89.5857C104.234 89.4989 104.272 89.4174 104.326 89.348C104.381 89.2786 104.452 89.2232 104.532 89.1866C104.613 89.15 104.701 89.1331 104.789 89.1374H108.96C109.162 89.146 109.356 89.2198 109.513 89.3477C109.669 89.4756 109.78 89.6508 109.829 89.847L111.76 98.8844C111.785 98.9695 111.789 99.0593 111.772 99.1463C111.755 99.2333 111.718 99.315 111.663 99.3847C111.608 99.4545 111.538 99.5103 111.457 99.5475C111.377 99.5847 111.289 99.6023 111.2 99.5989Z" fill="#263238"/>
<path opacity="0.2" d="M111.2 99.5989H107.029C106.826 99.59 106.632 99.5155 106.475 99.3866C106.319 99.2578 106.208 99.0815 106.16 98.8844L104.229 89.847C104.204 89.7621 104.2 89.6725 104.217 89.5857C104.234 89.4989 104.272 89.4174 104.326 89.348C104.381 89.2786 104.452 89.2232 104.532 89.1866C104.613 89.15 104.701 89.1331 104.789 89.1374H108.96C109.162 89.146 109.356 89.2198 109.513 89.3477C109.669 89.4756 109.78 89.6508 109.829 89.847L111.76 98.8844C111.785 98.9695 111.789 99.0593 111.772 99.1463C111.755 99.2333 111.718 99.315 111.663 99.3847C111.608 99.4545 111.538 99.5103 111.457 99.5475C111.377 99.5847 111.289 99.6023 111.2 99.5989Z" fill="white"/>
<path d="M109.701 94.2739L110.995 93.9891C111.234 93.9361 111.482 93.9409 111.719 94.0031C111.955 94.0652 112.174 94.1829 112.356 94.3463L114.084 95.9008C114.423 96.2084 114.684 96.5919 114.846 97.0199C115.008 97.4479 115.066 97.9081 115.016 98.3629L114.949 98.9326C112.839 99.5553 110.121 98.6767 110.121 98.6767L109.31 98.5126C109.143 98.4835 108.984 98.4216 108.841 98.3304C108.698 98.2392 108.575 98.1205 108.478 97.9813C108.382 97.8421 108.314 97.685 108.278 97.5193C108.243 97.3536 108.241 97.1825 108.272 97.016L108.576 95.4084C108.636 95.1316 108.773 94.8777 108.973 94.6766C109.172 94.4756 109.425 94.3358 109.701 94.2739Z" fill="#CE7A63"/>
<path d="M131.949 84.8743C131.241 84.8071 130.536 85.0235 129.987 85.4761C129.439 85.9286 129.092 86.5804 129.024 87.2882V87.3799C128.975 87.8627 128.913 88.4516 128.85 88.9972C128.787 89.5427 128.71 90.1075 128.628 90.6627C128.464 91.7779 128.266 92.8786 128.044 93.9696C127.821 95.0607 127.561 96.1324 127.247 97.18C126.991 98.02 126.697 98.831 126.383 99.6228C125.994 99.6385 125.604 99.6142 125.219 99.5504C123.973 99.363 122.74 99.0904 121.531 98.7345C120.397 98.3773 119.252 97.9621 118.108 97.5276C116.964 97.0931 115.81 96.6248 114.685 96.1759H114.657C114.354 96.05 114.016 96.0396 113.706 96.1467C113.396 96.2538 113.137 96.4709 112.976 96.7568C112.816 97.0427 112.766 97.3774 112.837 97.6975C112.907 98.0176 113.093 98.3007 113.358 98.4931C114.42 99.2752 115.492 99.9414 116.597 100.637C117.703 101.332 118.847 101.926 120.039 102.5C121.412 103.102 122.833 103.586 124.288 103.948C125.074 104.165 125.885 104.282 126.701 104.296C127.248 104.302 127.792 104.222 128.314 104.059C129.045 103.836 129.698 103.409 130.197 102.828C130.283 102.721 130.361 102.606 130.428 102.486L130.477 102.394C131.101 101.244 131.643 100.052 132.099 98.8262C132.539 97.631 132.912 96.4126 133.219 95.1765C133.533 93.9551 133.774 92.7241 133.972 91.4882C134.064 90.8654 134.146 90.2475 134.218 89.6247C134.291 89.002 134.344 88.3985 134.377 87.6937C134.414 87.0013 134.182 86.3215 133.73 85.7962C133.277 85.2709 132.639 84.9406 131.949 84.8743Z" fill="#CE7A63"/>
<path d="M132.759 82.7407C135.742 84.8504 135.887 88.0077 134.275 94.0519C132.117 95.1333 126.874 93.7671 126.874 93.7671C126.874 93.7671 128.525 84.3821 132.759 82.7407Z" fill="#00BA77"/>
<path d="M122.02 70.7584C122.02 70.7584 123.468 70.4736 127.403 70.5943C126.92 71.7722 126.012 72.7088 123.98 72.646C123.492 72.6778 123.012 72.5146 122.644 72.1924C122.277 71.8701 122.052 71.4151 122.02 70.9274C122.02 70.8694 122.015 70.8163 122.02 70.7584Z" fill="#263238"/>
<path d="M124.945 71.7243C124.166 71.6582 123.386 71.8389 122.715 72.2408C123.086 72.4958 123.525 72.6322 123.975 72.6319C124.753 72.7002 125.532 72.5193 126.2 72.1153C125.834 71.8555 125.394 71.7186 124.945 71.7243Z" fill="#BA4D3C"/>
<path d="M122.197 70.7343C122.233 70.8803 122.309 71.0137 122.415 71.12C122.521 71.2264 122.655 71.3016 122.801 71.3377C123.976 71.3709 125.151 71.3047 126.315 71.1398C126.501 71.1276 126.68 71.0701 126.839 70.9725C126.997 70.8749 127.129 70.7401 127.223 70.5798C125.546 70.4985 123.866 70.5501 122.197 70.7343Z" fill="white"/>
<path d="M127.042 60.1862C126.789 60.2248 126.539 60.2813 126.294 60.3552V60.5869C126.929 60.5783 127.561 60.6712 128.167 60.8621C131.508 61.8807 132.029 63.7587 130.909 66.5345C130.373 67.8573 130.084 70.6622 130.702 71.1884C130.861 71.3236 131.344 71.3043 131.971 71.1884C132.386 70.2229 132.782 69.098 133.289 67.6787C133.646 66.7505 133.748 65.744 133.586 64.763C133.423 63.7821 133.002 62.8622 132.365 62.0985C131.729 61.3348 130.899 60.755 129.964 60.4188C129.028 60.0826 128.019 60.0023 127.042 60.1862Z" fill="#263238"/>
<path d="M133.482 71.449C133.172 71.7724 132.802 72.0311 132.392 72.2102C131.981 72.3892 131.54 72.4849 131.092 72.4918C129.934 72.4918 129.75 71.2945 130.402 70.3C130.986 69.4069 132.289 68.3304 133.298 68.818C134.307 69.3056 134.283 70.6235 133.482 71.449Z" fill="#CE7A63"/>
<g opacity="0.9">
<path d="M126.36 91.9569C118.23 91.4741 114.561 89.9534 113.098 89.1037C113.051 89.0788 113.007 89.048 112.968 89.012C112.548 88.6451 113.079 87.9741 113.566 88.2541C114.846 88.9927 118.37 90.4941 126.418 90.9913C126.545 90.9988 126.664 91.0563 126.749 91.1513C126.834 91.2462 126.878 91.371 126.871 91.4982C126.868 91.5621 126.852 91.6247 126.825 91.6824C126.798 91.7402 126.759 91.7918 126.711 91.8345C126.664 91.8772 126.608 91.91 126.548 91.931C126.487 91.952 126.423 91.9608 126.36 91.9569Z" fill="white"/>
</g>
<g opacity="0.9">
<path d="M125.934 96.5527C125.934 96.6182 125.921 96.683 125.895 96.7432C125.869 96.8034 125.832 96.8578 125.784 96.9029C125.737 96.9481 125.681 96.9831 125.619 97.0059C125.558 97.0287 125.492 97.0388 125.427 97.0355C120.788 96.8668 116.227 95.7978 111.997 93.8879C111.938 93.8589 111.886 93.8183 111.844 93.7687C111.802 93.7191 111.77 93.6614 111.75 93.5991C111.731 93.5369 111.724 93.4713 111.731 93.4064C111.738 93.3416 111.757 93.2787 111.789 93.2217C111.848 93.1134 111.947 93.032 112.065 92.9942C112.182 92.9565 112.31 92.9653 112.421 93.0189C116.538 94.8601 120.969 95.8957 125.475 96.07C125.599 96.0762 125.716 96.1297 125.801 96.2196C125.887 96.3095 125.934 96.4288 125.934 96.5527Z" fill="white"/>
</g>
<g opacity="0.9">
<path d="M117.762 104.601C113.996 103.867 112.06 103.365 111.244 103.152C111.182 103.134 111.123 103.104 111.073 103.062C111.022 103.021 110.981 102.97 110.951 102.912C110.92 102.855 110.902 102.791 110.897 102.726C110.892 102.661 110.9 102.596 110.921 102.534C110.961 102.417 111.044 102.32 111.154 102.262C111.263 102.205 111.391 102.192 111.51 102.225C112.292 102.447 114.223 102.945 117.945 103.674C118.07 103.698 118.181 103.771 118.252 103.877C118.324 103.983 118.35 104.113 118.326 104.239C118.298 104.36 118.223 104.466 118.117 104.534C118.012 104.601 117.884 104.625 117.762 104.601Z" fill="white"/>
</g>
<path d="M126.349 61.7937C126.187 61.8624 126.005 61.865 125.84 61.8009C125.676 61.7369 125.544 61.6113 125.471 61.451C125.405 61.2877 125.383 61.1102 125.407 60.9358C125.43 60.7614 125.499 60.5963 125.606 60.4565C125.822 60.1769 126.104 59.9547 126.427 59.8096C126.153 60.1341 125.963 60.5201 125.872 60.9344C125.881 61.311 125.997 61.9144 126.349 61.7937Z" fill="#263238"/>
<path d="M130.379 71.6471C130.378 71.6914 130.368 71.735 130.349 71.775C130.33 71.8151 130.303 71.8506 130.269 71.8794C130.235 71.9081 130.196 71.9294 130.153 71.9418C130.111 71.9541 130.066 71.9574 130.022 71.9512C129.934 71.9321 129.852 71.8884 129.787 71.8252C129.722 71.7621 129.677 71.6819 129.655 71.594C129.619 71.4156 129.619 71.2317 129.655 71.0533C129.684 70.6419 129.784 70.2386 129.95 69.8608C130.116 69.4799 130.419 69.1751 130.799 69.0063C130.867 69.0868 130.911 69.1851 130.924 69.2895C130.938 69.3939 130.921 69.5 130.877 69.5953C130.777 69.7651 130.664 69.9265 130.539 70.0781C130.393 70.2938 130.299 70.5398 130.263 70.7975C130.227 71.0552 130.25 71.3177 130.331 71.565C130.37 71.5747 130.341 71.6422 130.379 71.6471Z" fill="#263238"/>
<path d="M75.992 102.269H41.6192C40.3516 102.269 39.136 102.772 38.2397 103.668C37.3434 104.565 36.8398 105.78 36.8398 107.048V133.175C36.8398 134.443 37.3434 135.658 38.2397 136.555C39.136 137.451 40.3516 137.955 41.6192 137.955H67.5871C67.8391 140 68.8302 141.883 70.3738 143.249C71.9173 144.614 73.9069 145.369 75.9679 145.37C76.1562 145.37 76.3444 145.37 76.5327 145.341C75.1906 143.574 74.0948 140.996 73.3754 137.955H76.0065C77.2741 137.955 78.4897 137.451 79.386 136.555C80.2823 135.658 80.7859 134.443 80.7859 133.175V107.048C80.7859 106.419 80.6618 105.796 80.4207 105.216C80.1796 104.635 79.8263 104.107 79.3809 103.663C78.9356 103.219 78.407 102.868 77.8255 102.628C77.2439 102.389 76.6209 102.267 75.992 102.269Z" fill="#00BA77"/>
<path opacity="0.4" d="M75.992 102.269H41.6192C40.3516 102.269 39.136 102.772 38.2397 103.668C37.3434 104.565 36.8398 105.78 36.8398 107.048V133.175C36.8398 134.443 37.3434 135.658 38.2397 136.555C39.136 137.451 40.3516 137.955 41.6192 137.955H67.5871C67.8391 140 68.8302 141.883 70.3738 143.249C71.9173 144.614 73.9069 145.369 75.9679 145.37C76.1562 145.37 76.3444 145.37 76.5327 145.341C75.1906 143.574 74.0948 140.996 73.3754 137.955H76.0065C77.2741 137.955 78.4897 137.451 79.386 136.555C80.2823 135.658 80.7859 134.443 80.7859 133.175V107.048C80.7859 106.419 80.6618 105.796 80.4207 105.216C80.1796 104.635 79.8263 104.107 79.3809 103.663C78.9356 103.219 78.407 102.868 77.8255 102.628C77.2439 102.389 76.6209 102.267 75.992 102.269Z" fill="white"/>
<path d="M82.8789 113.372L85.5534 110.896L87.8417 115.129C87.8417 115.129 85.1914 117.152 83.6224 115.907L82.8789 113.372Z" fill="#FF8B7B"/>
<path d="M82.8757 113.367L81.0557 117.239L83.5516 119.305L85.7337 115.771L82.8757 113.367Z" fill="#FF8B7B"/>
<path d="M88.0925 111.47L88.5318 113.068C88.6406 113.441 88.6323 113.839 88.508 114.208C88.3837 114.576 88.1494 114.898 87.8366 115.129L86.8711 115.771L84.1387 110.973L86.4801 110.384C86.6574 110.347 86.8402 110.347 87.0178 110.382C87.1954 110.417 87.3643 110.487 87.5144 110.588C87.6646 110.689 87.793 110.819 87.8923 110.971C87.9915 111.122 88.0596 111.292 88.0925 111.47Z" fill="#FF8B7B"/>
<path d="M82.8789 113.372C82.8789 113.372 83.8444 110.388 83.69 109.476C83.6079 108.93 84.1727 109.017 84.6265 109.181C84.8015 109.241 84.9543 109.352 85.0646 109.501C85.175 109.649 85.2377 109.827 85.2445 110.012C85.2831 110.977 85.2444 112.86 84.5058 112.981C83.9534 113.065 83.4091 113.195 82.8789 113.372Z" fill="#FF8B7B"/>
<path d="M85.999 116.471C85.2486 115.632 84.2483 115.057 83.1458 114.83L82.3348 114.661C81.852 114.564 81.7603 114.661 81.7024 114.801L81.4706 115.163L80.9879 115.882C80.6693 116.365 80.3506 116.848 80.0224 117.331C79.3803 118.296 78.7092 119.199 78.0334 120.078C77.4005 120.917 76.7049 121.708 75.9527 122.443L75.7547 122.627C75.5037 122.356 75.272 122.071 75.0209 121.777C74.3145 120.884 73.6554 119.954 73.0464 118.991C72.4236 118.026 70.4057 115.1 69.8553 114.048C69.5802 113.526 69.3098 112.995 69.054 112.464L68.6822 111.668C68.5712 111.412 68.436 111.113 68.3588 110.92L68.3057 110.794C67.9098 109.923 67.1852 109.244 66.2903 108.906C65.3954 108.567 64.4029 108.597 63.5297 108.988C62.6565 109.379 61.9735 110.099 61.63 110.992C61.2866 111.885 61.3105 112.878 61.6966 113.753C61.8704 114.144 62.0056 114.424 62.1794 114.748L62.6622 115.675C62.984 116.289 63.3058 116.893 63.6277 117.485C64.3132 118.678 66.4953 121.719 67.2967 122.863C68.1088 124.028 68.9975 125.138 69.9567 126.185C70.966 127.298 72.0835 128.309 73.2926 129.202L73.4423 129.313C73.8135 129.582 74.2412 129.763 74.6929 129.843C75.1445 129.922 75.6084 129.898 76.0492 129.771C77.0329 129.484 77.9501 129.005 78.7479 128.362C79.3573 127.879 79.9242 127.344 80.4424 126.764C81.3482 125.745 82.173 124.657 82.9093 123.51C83.619 122.414 84.2417 121.294 84.8403 120.174C85.1252 119.604 85.4052 119.04 85.6659 118.46L86.0521 117.591L86.2404 117.152C86.2983 116.998 86.3273 116.829 85.999 116.471Z" fill="#263238"/>
<path opacity="0.4" d="M68.1064 114.936L65.4512 116.814L64.6885 118.629C64.8188 118.871 64.9443 119.112 65.0795 119.353C65.7602 120.546 66.5278 121.704 67.3099 122.849C68.122 124.013 69.0107 125.123 69.9699 126.17C70.4527 126.653 70.9354 127.135 71.4182 127.618C70.1147 124.553 68.1064 114.936 68.1064 114.936Z" fill="black"/>
<path d="M44.3723 129.612C44.5799 134.44 43.8171 134.218 43.7978 137.955H67.3229C68.6022 126.557 68.0036 124.804 68.0277 117.239C68.0277 112.981 67.376 108.636 63.1373 108.192C58.1589 107.706 53.1434 107.739 48.1717 108.289C47.4269 108.379 46.7077 108.618 46.0563 108.99C45.405 109.363 44.8345 109.862 44.3786 110.457C43.9226 111.053 43.5902 111.734 43.4009 112.46C43.2117 113.186 43.1693 113.943 43.2764 114.685C44.2275 121.121 43.7109 124.765 44.3723 129.612Z" fill="#263238"/>
<path opacity="0.9" d="M60.9979 108.013C57.8636 107.808 54.7195 107.799 51.584 107.985C51.6516 108.95 52.3854 111.364 57.7296 113.454C57.7296 113.454 58.922 110.867 59.9262 112.03C59.9262 112.03 60.7324 110.543 62.4607 113.28C62.4607 113.28 65.0386 110.519 60.9979 108.013Z" fill="white"/>
<path opacity="0.4" d="M48.2775 114.859C48.7941 119.334 45.9361 126.817 44.4154 130.433C44.4154 130.182 44.4154 129.907 44.4154 129.612C44.0002 126.59 44.0485 124.031 43.9326 120.98L48.2775 114.859Z" fill="black"/>
<path d="M53.8884 99.4492C53.9676 102.385 53.4006 105.302 52.2276 107.994C52.1841 108.097 52.1732 108.21 52.1966 108.319C52.2199 108.428 52.2763 108.527 52.358 108.602C54.3279 110.301 56.854 111.215 59.4546 111.171C62.6167 111.209 62.4333 110.205 61.685 109.109C61.576 108.954 61.4343 108.823 61.2698 108.728C59.107 107.444 59.0298 105.725 59.6381 104.687L53.8884 99.4492Z" fill="#FF8B7B"/>
<path opacity="0.2" d="M53.8921 99.4492L59.637 104.687C59.4451 105.017 59.3341 105.388 59.3131 105.769C59.2922 106.15 59.3618 106.53 59.5163 106.879C58.3042 106.917 57.1227 106.494 56.2094 105.696C54.7273 104.436 54.2252 102.949 53.8535 100.869C53.8825 100.415 53.8921 99.932 53.8921 99.4492Z" fill="black"/>
<path d="M52.1775 96.7264C52.4286 100.589 51.883 101.206 53.8431 103.162C56.7928 106.102 61.5963 106.662 62.277 102.751C62.8852 99.2271 63.2425 92.8498 59.4335 91.3629C58.5941 91.029 57.6834 90.9147 56.7876 91.0309C55.8918 91.1471 55.0404 91.4899 54.3139 92.0268C53.5875 92.5638 53.0101 93.2772 52.6362 94.0996C52.2624 94.9219 52.1045 95.826 52.1775 96.7264Z" fill="#FF8B7B"/>
<path d="M61.5528 100.898C61.5528 100.898 60.1963 100.468 56.3486 100.304C56.759 101.684 57.5652 102.833 59.5349 102.896C61.5046 102.959 61.5528 100.898 61.5528 100.898Z" fill="#263238"/>
<path d="M58.6528 101.771C59.4275 101.759 60.181 102.024 60.777 102.52C60.4208 102.786 59.98 102.915 59.5363 102.882C58.7602 102.897 58.005 102.63 57.4121 102.128C57.7689 101.863 58.2097 101.737 58.6528 101.771Z" fill="#FF5652"/>
<path d="M61.3792 100.835C61.2633 101.119 61.1426 101.409 60.7564 101.486C59.6172 101.433 58.4857 101.271 57.3771 101.004C57.1866 100.969 57.0085 100.886 56.8603 100.761C56.7121 100.637 56.599 100.476 56.5322 100.294C58.161 100.326 59.7835 100.507 61.3792 100.835Z" fill="white"/>
<path d="M60.041 97.291C60.4479 98.011 60.9532 98.6707 61.5424 99.251C61.3902 99.4 61.2071 99.5136 61.006 99.5837C60.8049 99.6538 60.5908 99.6787 60.3789 99.6566L60.041 97.291Z" fill="#FF5652"/>
<path d="M56.2344 95.6257C56.2014 95.6213 56.1708 95.606 56.1475 95.5823C56.1292 95.5643 56.1147 95.5429 56.1048 95.5193C56.0949 95.4956 56.0898 95.4703 56.0898 95.4447C56.0898 95.4191 56.0949 95.3937 56.1048 95.3701C56.1147 95.3465 56.1292 95.3251 56.1475 95.3071C56.3475 95.0723 56.601 94.8888 56.8866 94.772C57.1722 94.6553 57.4815 94.6086 57.7888 94.6361C57.8401 94.6437 57.8861 94.6714 57.9169 94.7131C57.9477 94.7547 57.9607 94.8069 57.953 94.8581C57.9453 94.9093 57.9176 94.9554 57.8759 94.9862C57.8343 95.017 57.7821 95.0299 57.7309 95.0223C57.4867 95.0033 57.2414 95.043 57.0156 95.1379C56.7897 95.2327 56.5897 95.3801 56.4323 95.5678C56.4081 95.5952 56.3767 95.6151 56.3417 95.6254C56.3067 95.6356 56.2694 95.6358 56.2344 95.6257Z" fill="#263238"/>
<path d="M62.6434 96.3112C62.6119 96.3167 62.5796 96.3143 62.5492 96.3042C62.5189 96.2941 62.4915 96.2766 62.4696 96.2533C62.3095 96.0708 62.1082 95.9292 61.8823 95.8402C61.6564 95.7512 61.4126 95.7174 61.171 95.7416C61.1211 95.75 61.0699 95.7386 61.0284 95.7097C60.9869 95.6808 60.9583 95.6368 60.9489 95.5871C60.9405 95.5359 60.9524 95.4835 60.9822 95.4411C61.012 95.3987 61.0573 95.3696 61.1082 95.3602C61.4128 95.3267 61.7209 95.3662 62.0071 95.4753C62.2934 95.5844 62.5495 95.7601 62.7545 95.9878C62.7727 96.0058 62.7872 96.0272 62.7971 96.0508C62.807 96.0744 62.8121 96.0998 62.8121 96.1254C62.8121 96.151 62.807 96.1763 62.7971 96.2C62.7872 96.2236 62.7727 96.245 62.7545 96.263C62.7232 96.29 62.6845 96.3068 62.6434 96.3112Z" fill="#263238"/>
<path d="M37.2143 130.399C37.2227 130.582 37.2502 130.763 37.2964 130.94C37.7326 132.483 38.2995 133.987 38.9909 135.434C39.3417 136.2 39.7038 136.953 40.0771 137.694C40.5744 137.864 41.0963 137.952 41.622 137.954H46.831L46.3144 136.8C45.7399 135.54 45.2089 134.276 44.7261 133.025C44.324 132.011 43.9854 130.973 43.7123 129.916C43.7671 129.512 43.8494 129.112 43.9585 128.719C44.1082 128.14 44.311 127.512 44.5427 126.875C45.0255 125.605 45.5565 124.297 46.1358 123.013C46.7151 121.729 47.3572 120.411 48.0041 119.112C48.651 117.813 49.3269 116.5 49.9979 115.274V115.231L50.0317 115.158C50.4696 114.303 50.55 113.31 50.2554 112.396C49.9607 111.482 49.315 110.722 48.4603 110.285C47.6057 109.847 46.6121 109.766 45.6981 110.061C44.7842 110.356 44.0247 111.001 43.5868 111.856C42.8627 113.275 42.2109 114.632 41.5544 116.037C40.8978 117.442 40.304 118.861 39.7247 120.309C39.1454 121.757 38.624 123.22 38.1412 124.789C37.9047 125.576 37.6923 126.387 37.5136 127.261C37.2916 128.256 37.1895 129.274 37.2095 130.293L37.2143 130.399Z" fill="#263238"/>
<path d="M50.4269 99.3139C50.7616 100.142 51.3984 100.811 52.2083 101.187C53.2414 101.631 53.8111 100.622 53.5648 99.4636C53.3476 98.4256 52.5414 96.9387 51.4841 96.987C50.4269 97.0353 49.9876 98.2518 50.4269 99.3139Z" fill="#FF8B7B"/>
<path d="M57.1455 96.9387C57.1455 97.2718 57.2855 97.5566 57.5124 97.5711C57.7393 97.5856 57.9276 97.3249 57.9421 96.9821C57.9565 96.6394 57.8021 96.3642 57.58 96.3497C57.3579 96.3352 57.1648 96.5959 57.1455 96.9387Z" fill="#2E353A"/>
<path d="M60.9629 97.1609C60.9629 97.4988 61.1077 97.7836 61.325 97.7981C61.5422 97.8126 61.7401 97.5471 61.7643 97.2092C61.7884 96.8712 61.6195 96.5912 61.4022 96.5767C61.185 96.5623 60.9822 96.823 60.9629 97.1609Z" fill="#2E353A"/>
<path d="M72.0099 34.5513H37.6564C36.3896 34.5526 35.1752 35.0567 34.28 35.9529C33.3847 36.849 32.8818 38.0639 32.8818 39.3307V65.4579C32.8812 66.0853 33.0042 66.7067 33.2439 67.2865C33.4836 67.8663 33.8351 68.3932 34.2786 68.8371C34.722 69.281 35.2485 69.6331 35.8281 69.8733C36.4077 70.1136 37.029 70.2372 37.6564 70.2372H63.6146C63.8635 72.2837 64.8528 74.1682 66.3959 75.5352C67.939 76.9022 69.9291 77.6571 71.9906 77.6573C72.1837 77.6573 72.372 77.6573 72.5602 77.6284C71.2182 75.8566 70.1174 73.2835 69.403 70.2372H72.034C73.3016 70.2372 74.5172 69.7337 75.4135 68.8374C76.3098 67.9411 76.8134 66.7254 76.8134 65.4579V39.3307C76.8128 38.7012 76.6879 38.078 76.446 37.4969C76.2041 36.9157 75.8498 36.388 75.4036 35.944C74.9574 35.5 74.4279 35.1485 73.8455 34.9095C73.2632 34.6705 72.6394 34.5488 72.0099 34.5513Z" fill="#00BA77"/>
<path opacity="0.4" d="M72.0099 34.5513H37.6564C36.3896 34.5526 35.1752 35.0567 34.28 35.9529C33.3847 36.849 32.8818 38.0639 32.8818 39.3307V65.4579C32.8812 66.0853 33.0042 66.7067 33.2439 67.2865C33.4836 67.8663 33.8351 68.3932 34.2786 68.8371C34.722 69.281 35.2485 69.6331 35.8281 69.8733C36.4077 70.1136 37.029 70.2372 37.6564 70.2372H63.6146C63.8635 72.2837 64.8528 74.1682 66.3959 75.5352C67.939 76.9022 69.9291 77.6571 71.9906 77.6573C72.1837 77.6573 72.372 77.6573 72.5602 77.6284C71.2182 75.8566 70.1174 73.2835 69.403 70.2372H72.034C73.3016 70.2372 74.5172 69.7337 75.4135 68.8374C76.3098 67.9411 76.8134 66.7254 76.8134 65.4579V39.3307C76.8128 38.7012 76.6879 38.078 76.446 37.4969C76.2041 36.9157 75.8498 36.388 75.4036 35.944C74.9574 35.5 74.4279 35.1485 73.8455 34.9095C73.2632 34.6705 72.6394 34.5488 72.0099 34.5513Z" fill="white"/>
<path d="M63.5964 70.2374C63.3994 67.4312 63.3994 64.6146 63.5964 61.8084C63.8957 56.8649 62.4184 51.5207 61.3032 50.6082C59.6956 49.2806 58.1991 48.0303 57.668 49.7006C57.359 50.6662 57.2673 52.2593 57.2866 54.0455C57.3349 58.3614 58.2522 63.7442 58.6866 66.2305C58.846 67.1091 59.2467 70.2423 59.2467 70.2423L63.5964 70.2374Z" fill="#00BA77"/>
<path d="M60.5883 50.8208C60.5332 50.4659 60.3768 50.1345 60.1379 49.8665C59.8989 49.5984 59.5876 49.4051 59.2414 49.3098C58.0344 48.9863 55.9489 48.4601 54.0516 48.1222C51.8159 47.7589 49.5575 47.5524 47.2929 47.5042C45.8446 47.4463 44.4543 47.5042 43.3391 47.5525C43.2069 47.5629 43.076 47.5855 42.9481 47.6201C42.7125 47.6869 42.4924 47.7994 42.3003 47.9513C42.1082 48.1032 41.948 48.2915 41.8287 48.5053C41.7095 48.7192 41.6335 48.9545 41.6052 49.1977C41.577 49.4409 41.5969 49.6874 41.6639 49.9229C44.5267 60.143 45.1205 65.0334 45.2702 70.2376H59.2414C59.8931 65.5162 61.1724 61.6396 61.2883 58.8637C61.3877 56.1641 61.1526 53.4626 60.5883 50.8208Z" fill="#00BA77"/>
<path opacity="0.8" d="M60.5883 50.8208C60.5332 50.4659 60.3768 50.1345 60.1379 49.8665C59.8989 49.5984 59.5876 49.4051 59.2414 49.3098C58.0344 48.9863 55.9489 48.4601 54.0516 48.1222C51.8159 47.7589 49.5575 47.5524 47.2929 47.5042C45.8446 47.4463 44.4543 47.5042 43.3391 47.5525C43.2069 47.5629 43.076 47.5855 42.9481 47.6201C42.7125 47.6869 42.4924 47.7994 42.3003 47.9513C42.1082 48.1032 41.948 48.2915 41.8287 48.5053C41.7095 48.7192 41.6335 48.9545 41.6052 49.1977C41.577 49.4409 41.5969 49.6874 41.6639 49.9229C44.5267 60.143 45.1205 65.0334 45.2702 70.2376H59.2414C59.8931 65.5162 61.1724 61.6396 61.2883 58.8637C61.3877 56.1641 61.1526 53.4626 60.5883 50.8208Z" fill="white"/>
<path d="M54.848 45.7614C53.9307 47.0021 53.2597 48.4745 54.6983 50.1063C55.0103 50.4467 55.1931 50.8858 55.2149 51.347C55.2149 52.0856 54.8045 52.7953 52.4003 51.3856C48.9148 49.3387 49.2093 47.0407 49.2093 47.0407C51.039 46.4856 52.1348 42.6379 52.5597 40.4365L54.848 45.7614Z" fill="#FFB573"/>
<path opacity="0.2" d="M52.7521 43.7237C52.4866 44.6603 53.4762 46.1375 54.2294 46.7458C54.4048 46.4065 54.6099 46.0834 54.8425 45.7803L53.4907 42.6182C53.1746 42.9349 52.9237 43.3105 52.7521 43.7237Z" fill="black"/>
<path d="M61.9247 34.1843C63.1509 35.7388 60.3895 40.4217 60.0902 39.4416C59.6074 37.8485 58.9026 34.614 58.9122 33.2864C58.9315 31.1912 60.7033 32.6347 61.9247 34.1843Z" fill="#263238"/>
<path d="M51.7557 34.6719C52.0811 34.118 52.5125 33.6336 53.0251 33.2465C53.5378 32.8594 54.1217 32.577 54.7436 32.4156C55.3654 32.2542 56.0129 32.2169 56.6491 32.3059C57.2854 32.3948 57.8979 32.6082 58.4516 32.9339C61.7392 34.836 61.4882 40.1754 60.2813 43.2458C58.9585 46.6686 54.4881 47.1079 52.1757 43.9941C50.6212 41.9182 50.8191 40.4071 51.0943 36.8298C51.1424 36.0686 51.369 35.3293 51.7557 34.6719Z" fill="#FFB573"/>
<path d="M56.1279 38.621C56.1037 38.9155 56.2341 39.1666 56.4224 39.1859C56.6106 39.2052 56.7893 38.9831 56.8231 38.7031C56.8568 38.4231 56.7168 38.1576 56.5286 38.1383C56.3403 38.119 56.1713 38.3652 56.1279 38.621Z" fill="#263238"/>
<path d="M56.4336 38.1816L57.1529 38.0513C57.1529 38.0513 56.7474 38.5437 56.4336 38.1816Z" fill="#263238"/>
<path d="M59.7832 39.4566C59.7832 39.7511 59.8894 40.0021 60.0777 40.0214C60.266 40.0407 60.4446 39.8186 60.4784 39.5386C60.5122 39.2586 60.3722 38.9931 60.1839 38.9738C59.9956 38.9545 59.8267 39.1814 59.7832 39.4566Z" fill="#263238"/>
<path d="M60.0879 38.9975L60.8072 38.8672C60.8072 38.8672 60.4017 39.3596 60.0879 38.9975Z" fill="#263238"/>
<path d="M58.415 41.6628C58.5843 41.7315 58.7664 41.7628 58.949 41.7545C59.1315 41.7462 59.31 41.6984 59.4723 41.6145C59.1249 40.99 58.865 40.3207 58.6999 39.6255L58.415 41.6628Z" fill="#ED893E"/>
<path d="M55.6608 41.5418C55.6519 41.5211 55.6509 41.4979 55.658 41.4765C55.6651 41.4551 55.6799 41.4371 55.6994 41.4259C55.7199 41.4158 55.7436 41.4142 55.7653 41.4215C55.787 41.4287 55.8049 41.4442 55.8153 41.4646C55.9936 41.7812 56.2446 42.0509 56.5476 42.2516C56.8506 42.4522 57.1969 42.5779 57.5581 42.6184C57.5789 42.6239 57.5971 42.6367 57.6094 42.6543C57.6218 42.672 57.6275 42.6934 57.6257 42.7149C57.6245 42.7256 57.6212 42.7359 57.6158 42.7452C57.6105 42.7545 57.6033 42.7625 57.5947 42.7689C57.586 42.7753 57.5762 42.7797 57.5657 42.7821C57.5553 42.7844 57.5444 42.7846 57.5339 42.7825C57.395 42.7673 57.2577 42.7398 57.1236 42.7004C56.8151 42.614 56.5268 42.4671 56.2757 42.2682C56.0246 42.0693 55.8155 41.8223 55.6608 41.5418Z" fill="#263238"/>
<path d="M56.0045 36.7623C55.9776 36.7265 55.9661 36.6814 55.9724 36.6371C55.9787 36.5927 56.0024 36.5527 56.0383 36.5258C56.3251 36.3519 56.6458 36.2413 56.9788 36.2014C57.3118 36.1614 57.6495 36.193 57.9693 36.2941C58.0118 36.3094 58.0466 36.3406 58.0664 36.3812C58.0863 36.4217 58.0895 36.4684 58.0756 36.5113C58.0612 36.5534 58.0309 36.5881 57.9912 36.608C57.9514 36.6279 57.9054 36.6313 57.8631 36.6175C57.5964 36.5315 57.3146 36.5025 57.036 36.5324C56.7574 36.5624 56.4882 36.6506 56.2459 36.7913C56.2177 36.8136 56.1828 36.8258 56.1469 36.8258C56.111 36.8258 56.0761 36.8136 56.0479 36.7913L56.0045 36.7623Z" fill="#263238"/>
<path d="M61.267 37.8777C61.151 37.6963 60.9931 37.5454 60.8066 37.4379C60.6201 37.3303 60.4104 37.2692 60.1953 37.2598C60.1727 37.2604 60.1502 37.2565 60.1291 37.2483C60.1081 37.2401 60.0889 37.2278 60.0727 37.212C60.0565 37.1962 60.0436 37.1774 60.0348 37.1566C60.026 37.1358 60.0215 37.1134 60.0215 37.0908C60.0215 37.0455 60.0391 37.002 60.0707 36.9696C60.1022 36.9371 60.1452 36.9182 60.1905 36.917C60.4617 36.9265 60.7268 37.0007 60.9636 37.1334C61.2004 37.2661 61.4021 37.4534 61.5518 37.6798C61.5643 37.698 61.573 37.7186 61.5773 37.7403C61.5817 37.7619 61.5816 37.7843 61.5771 37.8059C61.5725 37.8275 61.5637 37.8481 61.5511 37.8662C61.5385 37.8843 61.5223 37.8997 61.5036 37.9115C61.4784 37.9279 61.4491 37.9366 61.4191 37.9366C61.3891 37.9366 61.3597 37.9279 61.3346 37.9115L61.267 37.8777Z" fill="#263238"/>
<path d="M56.8777 33.9577C56.3383 34.0589 55.8282 34.2785 55.3841 34.6008C54.9399 34.923 54.5729 35.3398 54.3093 35.8211C54.0631 36.2749 52.4797 37.2694 52.2093 37.7184C51.3597 39.1329 52.2866 43.1591 51.8859 43.4633C51.4852 43.7674 51.6252 42.575 51.2438 42.3433C50.8391 42.1606 50.4514 41.9425 50.0852 41.6915C49.6024 41.286 47.9272 36.917 49.9934 34.2715C51.0215 32.876 52.5266 31.907 54.2225 31.5487C55.9406 31.2567 57.7044 31.6577 59.1273 32.6639C59.5763 32.9873 60.3632 33.8708 59.1273 34.2666C58.7894 34.3728 58.7749 34.1025 58.4225 34.0156C57.9178 33.8851 57.3908 33.8654 56.8777 33.9577Z" fill="#263238"/>
<path d="M48.6586 37.7185C49.851 36.5599 51.3379 36.5599 52.651 36.5599C53.2749 36.6093 53.9026 36.5389 54.5 36.3523C55.8228 35.7778 56.6338 33.8902 56.7835 33.2723C56.8635 33.0194 57.0065 32.791 57.199 32.6086C57.3916 32.4262 57.6273 32.2958 57.8842 32.2295C58.0932 32.2193 58.3018 32.2575 58.4936 32.3413C58.6853 32.425 58.8552 32.552 58.9897 32.7123C59.2263 33.055 59.2021 33.5523 58.9173 34.1606L59.1056 34.2426C59.4194 33.5426 59.4339 32.9826 59.1587 32.5771C59.0031 32.3892 58.8064 32.2396 58.5837 32.1399C58.361 32.0403 58.1183 31.9933 57.8745 32.0026C57.5728 32.0699 57.2944 32.2163 57.0679 32.4267C56.8414 32.6371 56.6749 32.9039 56.5855 33.1999C56.4504 33.7695 55.6538 35.6137 54.4179 36.1447C53.8465 36.3203 53.2466 36.3842 52.651 36.333C51.3669 36.333 49.7544 36.333 48.5186 37.5496L48.6586 37.7185Z" fill="#263238"/>
<path opacity="0.1" d="M48.6586 37.7185C49.851 36.5599 51.3379 36.5599 52.651 36.5599C53.2749 36.6093 53.9026 36.5389 54.5 36.3523C55.8228 35.7778 56.6338 33.8902 56.7835 33.2723C56.8635 33.0194 57.0065 32.791 57.199 32.6086C57.3916 32.4262 57.6273 32.2958 57.8842 32.2295C58.0932 32.2193 58.3018 32.2575 58.4936 32.3413C58.6853 32.425 58.8552 32.552 58.9897 32.7123C59.2263 33.055 59.2021 33.5523 58.9173 34.1606L59.1056 34.2426C59.4194 33.5426 59.4339 32.9826 59.1587 32.5771C59.0031 32.3892 58.8064 32.2396 58.5837 32.1399C58.361 32.0403 58.1183 31.9933 57.8745 32.0026C57.5728 32.0699 57.2944 32.2163 57.0679 32.4267C56.8414 32.6371 56.6749 32.9039 56.5855 33.1999C56.4504 33.7695 55.6538 35.6137 54.4179 36.1447C53.8465 36.3203 53.2466 36.3842 52.651 36.333C51.3669 36.333 49.7544 36.333 48.5186 37.5496L48.6586 37.7185Z" fill="white"/>
<path d="M49.6861 39.0748C49.7057 38.9215 49.7554 38.7737 49.8323 38.6397C49.9093 38.5057 50.0119 38.3883 50.1344 38.2941C50.2569 38.1999 50.3967 38.1308 50.5459 38.0908C50.6952 38.0508 50.8508 38.0407 51.004 38.061C51.8923 38.1962 52.2978 39.3934 52.2978 40.1755C52.2978 41.0396 51.6557 41.6817 50.8737 41.1941C50.2877 40.8205 49.873 40.2306 49.7198 39.5527C49.675 39.3976 49.6635 39.2347 49.6861 39.0748Z" fill="#FFB573"/>
<path d="M51.2608 51.8153C51.0726 54.287 48.7891 63.6237 43.8408 63.8844C43.0524 63.9064 42.2843 63.6326 41.6876 63.1168C37.7 60.703 40.8331 49.0684 41.6345 48.3925C41.9825 48.0941 42.3997 47.8877 42.8481 47.7921C43.2964 47.6966 43.7615 47.715 44.2009 47.8456C44.6403 47.9762 45.04 48.2149 45.3633 48.5398C45.6866 48.8648 45.9234 49.2656 46.0518 49.7056C46.156 49.3375 46.2382 48.9635 46.298 48.5856C46.5056 47.3256 47.1911 44.3904 48.456 44.1779C49.2188 44.0476 50.7877 43.98 51.2415 44.6028C51.6953 45.2256 51.5746 47.7359 51.2608 51.8153Z" fill="#00BA77"/>
<g opacity="0.2">
<path d="M51.001 38.061V38.2783L51.2279 40.4218V43.1832L51.6044 41.5418C51.7 41.1141 51.7212 40.6732 51.6672 40.2383L51.4017 38.1817L51.001 38.061Z" fill="black"/>
</g>
<path d="M48.5157 44.6751L47.9219 40.3737L51.5088 40.3447C51.5088 40.3447 51.2143 43.5744 50.3164 44.6896L48.5157 44.6751Z" fill="#FFB573"/>
<path d="M48.5543 37.4336L51.2095 37.9019L51.4943 40.335L47.9219 40.3736L48.5543 37.4336Z" fill="#FFB573"/>
<path opacity="0.2" d="M44.9498 53.6206C44.9498 53.6206 42.8015 58.5834 42.7339 56.6186C42.6663 54.4799 44.9498 53.6206 44.9498 53.6206Z" fill="black"/>
<path d="M177.36 82.6396H164.074C163.466 82.6396 162.883 82.8812 162.453 83.3113C162.023 83.7413 161.781 84.3246 161.781 84.9328V93.4874C161.783 94.0947 162.025 94.6767 162.455 95.1057C162.885 95.5347 163.467 95.7757 164.074 95.7757H167.893L169.597 98.006C169.728 98.1781 169.897 98.3177 170.091 98.4137C170.285 98.5097 170.498 98.5597 170.715 98.5597C170.931 98.5597 171.145 98.5097 171.338 98.4137C171.532 98.3177 171.701 98.1781 171.832 98.006L173.537 95.7757H177.36C177.967 95.7757 178.549 95.5346 178.978 95.1054C179.407 94.6763 179.648 94.0943 179.648 93.4874V84.9328C179.648 84.3254 179.407 83.7429 178.978 83.313C178.549 82.8831 177.967 82.6409 177.36 82.6396Z" fill="#00BA77"/>
<path opacity="0.7" d="M177.36 82.6396H164.074C163.466 82.6396 162.883 82.8812 162.453 83.3113C162.023 83.7413 161.781 84.3246 161.781 84.9328V93.4874C161.783 94.0947 162.025 94.6767 162.455 95.1057C162.885 95.5347 163.467 95.7757 164.074 95.7757H167.893L169.597 98.006C169.728 98.1781 169.897 98.3177 170.091 98.4137C170.285 98.5097 170.498 98.5597 170.715 98.5597C170.931 98.5597 171.145 98.5097 171.338 98.4137C171.532 98.3177 171.701 98.1781 171.832 98.006L173.537 95.7757H177.36C177.967 95.7757 178.549 95.5346 178.978 95.1054C179.407 94.6763 179.648 94.0943 179.648 93.4874V84.9328C179.648 84.3254 179.407 83.7429 178.978 83.313C178.549 82.8831 177.967 82.6409 177.36 82.6396Z" fill="white"/>
<path d="M176.593 88.5193L172.35 85.9316V87.4861H170.419C169.169 87.4861 167.971 87.9826 167.087 88.8662C166.203 89.7498 165.707 90.9483 165.707 92.1979C165.708 92.547 165.747 92.895 165.823 93.2359C166.06 92.1937 166.644 91.2628 167.479 90.5955C168.313 89.9281 169.35 89.5638 170.419 89.562H172.35V91.1214L176.593 88.5193Z" fill="#00BA77"/>
<path d="M83.8794 30.2788H94.0657C94.5318 30.2788 94.9787 30.4639 95.3083 30.7935C95.6378 31.123 95.823 31.57 95.823 32.0361V38.621C95.823 38.8515 95.7775 39.0798 95.6891 39.2927C95.6008 39.5056 95.4712 39.699 95.308 39.8618C95.1448 40.0246 94.951 40.1536 94.7378 40.2414C94.5247 40.3292 94.2963 40.374 94.0657 40.3734H91.1353L89.8319 42.0872C89.7314 42.2193 89.6018 42.3263 89.4532 42.4C89.3046 42.4737 89.1409 42.5121 88.975 42.5121C88.8091 42.5121 88.6454 42.4737 88.4967 42.4C88.3481 42.3263 88.2185 42.2193 88.1181 42.0872L86.8098 40.3734H83.8794C83.6491 40.374 83.4209 40.3291 83.208 40.2413C82.9951 40.1535 82.8017 40.0244 82.6388 39.8616C82.476 39.6987 82.3469 39.5053 82.2591 39.2924C82.1712 39.0794 82.1263 38.8513 82.127 38.621V32.0361C82.1263 31.8055 82.1712 31.5771 82.259 31.364C82.3468 31.1508 82.4757 30.957 82.6385 30.7938C82.8013 30.6305 82.9947 30.501 83.2077 30.4127C83.4206 30.3243 83.6489 30.2788 83.8794 30.2788Z" fill="#00BA77"/>
<path opacity="0.7" d="M83.8794 30.2788H94.0657C94.5318 30.2788 94.9787 30.4639 95.3083 30.7935C95.6378 31.123 95.823 31.57 95.823 32.0361V38.621C95.823 38.8515 95.7775 39.0798 95.6891 39.2927C95.6008 39.5056 95.4712 39.699 95.308 39.8618C95.1448 40.0246 94.951 40.1536 94.7378 40.2414C94.5247 40.3292 94.2963 40.374 94.0657 40.3734H91.1353L89.8319 42.0872C89.7314 42.2193 89.6018 42.3263 89.4532 42.4C89.3046 42.4737 89.1409 42.5121 88.975 42.5121C88.8091 42.5121 88.6454 42.4737 88.4967 42.4C88.3481 42.3263 88.2185 42.2193 88.1181 42.0872L86.8098 40.3734H83.8794C83.6491 40.374 83.4209 40.3291 83.208 40.2413C82.9951 40.1535 82.8017 40.0244 82.6388 39.8616C82.476 39.6987 82.3469 39.5053 82.2591 39.2924C82.1712 39.0794 82.1263 38.8513 82.127 38.621V32.0361C82.1263 31.8055 82.1712 31.5771 82.259 31.364C82.3468 31.1508 82.4757 30.957 82.6385 30.7938C82.8013 30.6305 82.9947 30.501 83.2077 30.4127C83.4206 30.3243 83.6489 30.2788 83.8794 30.2788Z" fill="white"/>
<path d="M84.4844 34.7878L87.7479 32.7988V33.9913H89.2396C89.7811 33.9928 90.3153 34.1157 90.803 34.351C91.2907 34.5863 91.7194 34.928 92.0575 35.3509C92.3957 35.7738 92.6346 36.2672 92.7569 36.7947C92.8791 37.3222 92.8815 37.8704 92.7638 38.3989C92.5822 37.5999 92.1346 36.8862 91.4943 36.3748C90.854 35.8635 90.059 35.5848 89.2396 35.5844H87.7479V36.7768L84.4844 34.7878Z" fill="#00BA77"/>
</svg>
