<svg width="24" height="25" viewBox="0 0 24 25" fill="none" xmlns="http://www.w3.org/2000/svg">
<path d="M7 18.5V7.552C6.99993 7.31932 7.07714 7.09322 7.21952 6.90919C7.36189 6.72515 7.56136 6.59363 7.7866 6.53526C8.01183 6.47689 8.25008 6.49499 8.46391 6.58671C8.67774 6.67843 8.85506 6.83858 8.968 7.042L15.032 17.958C15.1449 18.1614 15.3223 18.3216 15.5361 18.4133C15.7499 18.505 15.9882 18.5231 16.2134 18.4647C16.4386 18.4064 16.6381 18.2748 16.7805 18.0908C16.9229 17.9068 17.0001 17.6807 17 17.448V6.5M5 10.5H19M5 14.5H19" stroke="#161616" stroke-width="1.5" stroke-linecap="round" stroke-linejoin="round"/>
</svg>
