<svg width="6" height="11" viewBox="0 0 6 11" fill="none" xmlns="http://www.w3.org/2000/svg">
<path d="M0.636329 9.37854C0.591219 9.42628 0.555955 9.48243 0.532547 9.5438C0.509139 9.60516 0.498047 9.67053 0.499904 9.73619C0.501761 9.80184 0.516531 9.86648 0.543371 9.92642C0.57021 9.98636 0.608593 10.0404 0.656329 10.0855C0.704064 10.1307 0.760218 10.1659 0.821582 10.1893C0.882946 10.2127 0.94832 10.2238 1.01397 10.222C1.07962 10.2201 1.14426 10.2053 1.20421 10.1785C1.26415 10.1517 1.31822 10.1133 1.36333 10.0655L5.61333 5.56554C5.7011 5.47271 5.75 5.3498 5.75 5.22204C5.75 5.09429 5.7011 4.97138 5.61333 4.87854L1.36333 0.378043C1.31852 0.329263 1.26446 0.289871 1.2043 0.262159C1.14413 0.234447 1.07906 0.218966 1.01287 0.216614C0.946669 0.214262 0.880664 0.225087 0.818686 0.24846C0.756707 0.271832 0.69999 0.307287 0.65183 0.352764C0.60367 0.398241 0.565026 0.452835 0.538143 0.513373C0.51126 0.573912 0.496674 0.639189 0.495231 0.705412C0.493789 0.771635 0.505519 0.837485 0.529741 0.899137C0.553963 0.960788 0.590194 1.01701 0.636329 1.06454L4.56233 5.22204L0.636329 9.37854Z" fill="#161616"/>
</svg>
