<svg width="6" height="11" viewBox="0 0 6 11" fill="none" xmlns="http://www.w3.org/2000/svg">
<path d="M5.36367 1.0653C5.40878 1.01757 5.44405 0.961416 5.46745 0.900051C5.49086 0.838687 5.50195 0.773313 5.5001 0.707662C5.49824 0.642011 5.48347 0.577369 5.45663 0.517426C5.42979 0.457483 5.39141 0.403413 5.34367 0.358304C5.29594 0.313195 5.23978 0.27793 5.17842 0.254522C5.11705 0.231115 5.05168 0.220023 4.98603 0.22188C4.92038 0.223737 4.85574 0.238507 4.79579 0.265346C4.73585 0.292186 4.68178 0.330569 4.63667 0.378304L0.386671 4.8783C0.298903 4.97114 0.25 5.09405 0.25 5.2218C0.25 5.34956 0.298903 5.47247 0.386671 5.5653L4.63667 10.0658C4.68148 10.1146 4.73554 10.154 4.7957 10.1817C4.85587 10.2094 4.92094 10.2249 4.98713 10.2272C5.05333 10.2296 5.11934 10.2188 5.18131 10.1954C5.24329 10.172 5.30001 10.1366 5.34817 10.0911C5.39633 10.0456 5.43497 9.99101 5.46186 9.93047C5.48874 9.86994 5.50333 9.80466 5.50477 9.73844C5.50621 9.67221 5.49448 9.60636 5.47026 9.54471C5.44604 9.48306 5.40981 9.42684 5.36367 9.3793L1.43767 5.2218L5.36367 1.0653Z" fill="#161616"/>
</svg>
