<svg width="32" height="32" viewBox="0 0 32 32" fill="none" xmlns="http://www.w3.org/2000/svg">
<path d="M27.8811 14.8268V8.97342C27.8811 7.88009 27.0544 6.64009 26.0278 6.22676L18.6011 3.18676C16.9344 2.50676 15.0544 2.50676 13.3878 3.18676L5.96109 6.22676C4.94776 6.64009 4.12109 7.88009 4.12109 8.97342V14.8268C4.12109 21.3468 8.85443 27.4534 15.3211 29.2401C15.7611 29.3601 16.2411 29.3601 16.6811 29.2401C23.1478 27.4534 27.8811 21.3468 27.8811 14.8268ZM17.0011 17.1601V20.6668C17.0011 21.2134 16.5478 21.6668 16.0011 21.6668C15.4544 21.6668 15.0011 21.2134 15.0011 20.6668V17.1601C13.6544 16.7334 12.6678 15.4801 12.6678 14.0001C12.6678 12.1601 14.1611 10.6668 16.0011 10.6668C17.8411 10.6668 19.3344 12.1601 19.3344 14.0001C19.3344 15.4934 18.3478 16.7334 17.0011 17.1601Z" fill="#00BA77"/>
</svg>
