<svg width="12" height="11" viewBox="0 0 12 11" fill="none" xmlns="http://www.w3.org/2000/svg">
<path fill-rule="evenodd" clip-rule="evenodd" d="M5.31137 1.33299C5.36095 1.28341 5.40029 1.22454 5.42712 1.15975C5.45396 1.09496 5.46777 1.02552 5.46777 0.955394C5.46777 0.885267 5.45396 0.815827 5.42712 0.751038C5.40029 0.686249 5.36095 0.627381 5.31137 0.577794C5.26178 0.528206 5.20291 0.488872 5.13812 0.462036C5.07333 0.435199 5.00389 0.421387 4.93377 0.421387C4.86364 0.421387 4.7942 0.435199 4.72941 0.462036C4.66462 0.488872 4.60575 0.528206 4.55617 0.577794L0.289499 4.84446C0.239832 4.894 0.200426 4.95286 0.173539 5.01765C0.146652 5.08245 0.132813 5.15191 0.132812 5.22206C0.132813 5.29221 0.146652 5.36168 0.173539 5.42647C0.200426 5.49126 0.239832 5.55012 0.289499 5.59966L4.55617 9.86633C4.65631 9.96647 4.79214 10.0227 4.93377 10.0227C5.07539 10.0227 5.21122 9.96647 5.31137 9.86633C5.41151 9.76618 5.46777 9.63035 5.46777 9.48873C5.46777 9.3471 5.41151 9.21127 5.31137 9.11113L1.42123 5.22206L5.31137 1.33299ZM11.7114 1.33299C11.761 1.28341 11.8003 1.22454 11.8271 1.15975C11.854 1.09496 11.8678 1.02552 11.8678 0.955394C11.8678 0.885267 11.854 0.815827 11.8271 0.751038C11.8003 0.686249 11.761 0.627381 11.7114 0.577794C11.6618 0.528206 11.6029 0.488872 11.5381 0.462036C11.4733 0.435199 11.4039 0.421387 11.3338 0.421387C11.2636 0.421387 11.1942 0.435199 11.1294 0.462036C11.0646 0.488872 11.0058 0.528206 10.9562 0.577794L6.6895 4.84446C6.63983 4.894 6.60043 4.95286 6.57354 5.01765C6.54665 5.08245 6.53281 5.15191 6.53281 5.22206C6.53281 5.29221 6.54665 5.36168 6.57354 5.42647C6.60043 5.49126 6.63983 5.55012 6.6895 5.59966L10.9562 9.86633C11.0563 9.96647 11.1921 10.0227 11.3338 10.0227C11.4754 10.0227 11.6112 9.96647 11.7114 9.86633C11.8115 9.76618 11.8678 9.63035 11.8678 9.48873C11.8678 9.3471 11.8115 9.21127 11.7114 9.11113L7.82123 5.22206L11.7114 1.33299Z" fill="#161616"/>
</svg>
