<svg width="12" height="13" viewBox="0 0 12 13" fill="none" xmlns="http://www.w3.org/2000/svg">
<path d="M8.14509 7.36689L6.00009 9.51689L3.85509 7.36689C3.76094 7.27274 3.63324 7.21985 3.50009 7.21985C3.36694 7.21985 3.23924 7.27274 3.14509 7.36689C3.05094 7.46105 2.99805 7.58874 2.99805 7.72189C2.99805 7.85504 3.05094 7.98274 3.14509 8.07689L5.64509 10.5769C5.69157 10.6238 5.74687 10.661 5.8078 10.6863C5.86873 10.7117 5.93409 10.7248 6.00009 10.7248C6.0661 10.7248 6.13145 10.7117 6.19238 10.6863C6.25331 10.661 6.30861 10.6238 6.35509 10.5769L8.85509 8.07689C8.90171 8.03027 8.93869 7.97493 8.96392 7.91402C8.98915 7.85311 9.00214 7.78782 9.00214 7.72189C9.00214 7.65596 8.98915 7.59068 8.96392 7.52977C8.93869 7.46886 8.90171 7.41351 8.85509 7.36689C8.80847 7.32027 8.75313 7.28329 8.69222 7.25806C8.63131 7.23283 8.56602 7.21985 8.50009 7.21985C8.43416 7.21985 8.36888 7.23283 8.30797 7.25806C8.24706 7.28329 8.19171 7.32027 8.14509 7.36689ZM3.85509 5.07689L6.00009 2.92689L8.14509 5.07689C8.19157 5.12376 8.24687 5.16095 8.3078 5.18634C8.36873 5.21172 8.43409 5.22479 8.50009 5.22479C8.5661 5.22479 8.63145 5.21172 8.69238 5.18634C8.75331 5.16095 8.80861 5.12376 8.85509 5.07689C8.90196 5.03041 8.93915 4.97511 8.96454 4.91418C8.98992 4.85325 9.00299 4.7879 9.00299 4.72189C9.00299 4.65589 8.98992 4.59053 8.96454 4.5296C8.93915 4.46868 8.90196 4.41337 8.85509 4.36689L6.35509 1.86689C6.30861 1.82003 6.25331 1.78283 6.19238 1.75745C6.13145 1.73206 6.0661 1.71899 6.00009 1.71899C5.93409 1.71899 5.86873 1.73206 5.8078 1.75745C5.74687 1.78283 5.69157 1.82003 5.64509 1.86689L3.14509 4.36689C3.09847 4.41351 3.06149 4.46886 3.03626 4.52977C3.01103 4.59068 2.99805 4.65596 2.99805 4.72189C2.99805 4.85504 3.05094 4.98274 3.14509 5.07689C3.23924 5.17105 3.36694 5.22394 3.50009 5.22394C3.63324 5.22394 3.76094 5.17105 3.85509 5.07689Z" fill="#161616" fill-opacity="0.6"/>
</svg>
