<svg width="23" height="24" viewBox="0 0 23 24" fill="none" xmlns="http://www.w3.org/2000/svg">
<path fill-rule="evenodd" clip-rule="evenodd" d="M18.1 16.2392H22.5V14.7725H18.1V16.2392ZM21.0333 7.43919H0.5V22.1059C0.5 22.9155 1.15707 23.5725 1.96667 23.5725H21.0333C21.8429 23.5725 22.5 22.9155 22.5 22.1059V17.7059H17.3667C16.9619 17.7059 16.6333 17.3781 16.6333 16.9725V14.0392C16.6333 13.6344 16.9619 13.3059 17.3667 13.3059H22.5V8.90585C22.5 8.09625 21.8429 7.43919 21.0333 7.43919ZM21.0333 0.839186C21.0333 0.433653 20.8603 0.209244 20.4833 0.0603773C20.1929 -0.054756 19.9106 0.0141859 19.5667 0.105853L0.5 5.97252H21.0333V0.839186Z" fill="#CCCCCC"/>
</svg>
