<svg width="174" height="150" viewBox="0 0 174 150" fill="none" xmlns="http://www.w3.org/2000/svg">
<path d="M114.756 148.872C114.209 148.871 113.664 148.815 113.128 148.705C113.051 148.692 112.969 148.675 112.888 148.652L26.4763 128.321C24.5219 127.863 22.7924 126.728 21.5933 125.118L21.539 125.051C20.4663 123.59 19.8899 121.824 19.8946 120.012V45.4677C19.8927 43.9453 20.3435 42.4568 21.1897 41.1913L21.4834 41.3502C20.8981 42.7151 20.88 44.0136 21.4337 45.1043C22.0921 46.4049 23.5206 47.3702 25.456 47.8207L116.579 68.7364C118.351 69.1466 119.93 70.1459 121.06 71.5707C122.189 72.9956 122.801 74.7616 122.796 76.5798V140.808C122.8 145.254 119.191 148.872 114.756 148.872Z" fill="#E67E22"/>
<path d="M21.3338 41.2859C19.9026 44.6244 21.8969 47.1651 25.4231 47.9897C25.4331 47.9897 25.4432 47.9897 25.4533 47.9964L116.547 68.902C118.279 69.3088 119.823 70.289 120.928 71.6836C122.033 73.0782 122.634 74.8053 122.634 76.5845V140.813C122.634 145.269 118.993 148.709 114.759 148.709C114.224 148.708 113.69 148.654 113.165 148.546C113.088 148.533 113.011 148.516 112.934 148.496L26.5192 128.163C24.5745 127.708 22.8579 126.57 21.6824 124.955C20.6341 123.522 20.0704 121.791 20.0735 120.015V45.4677C20.0711 43.9785 20.5122 42.5222 21.3405 41.2846M21.0616 41.0982C20.197 42.3913 19.7364 43.9122 19.7383 45.4677V120.01C19.7336 121.858 20.321 123.659 21.4142 125.149L21.5148 125.286H21.5202C22.7416 126.892 24.4842 128.023 26.4488 128.485L112.863 148.817C112.939 148.837 113.026 148.856 113.114 148.872C113.658 148.983 114.211 149.039 114.765 149.039C119.292 149.039 122.975 145.347 122.975 140.808V76.5798C122.981 74.7226 122.355 72.9185 121.201 71.4633C120.047 70.0081 118.433 68.988 116.624 68.5702L25.5424 47.6679H25.5324L25.5035 47.6632H25.4995C23.6124 47.2234 22.2234 46.2903 21.5879 45.034C21.0583 43.9882 21.077 42.7386 21.6422 41.4213L21.0549 41.1029L21.0616 41.0982Z" fill="#66142E"/>
<path d="M21.7645 52.8472C21.6469 52.8479 21.5312 52.8174 21.4293 52.7587C20.7358 52.3663 20.1074 51.8688 19.5663 51.2839C19.5053 51.2194 19.4577 51.1435 19.4263 51.0606C19.3949 50.9776 19.3802 50.8892 19.3832 50.8005C19.3862 50.7119 19.4067 50.6247 19.4436 50.544C19.4806 50.4633 19.5331 50.3908 19.5983 50.3306C19.6635 50.2704 19.7399 50.2237 19.8233 50.1933C19.9066 50.1629 19.9952 50.1493 20.0838 50.1533C20.1724 50.1574 20.2594 50.179 20.3396 50.2169C20.4198 50.2548 20.4917 50.3083 20.5511 50.3742C20.9991 50.8575 21.5192 51.2686 22.093 51.5929C22.2211 51.6665 22.3213 51.7804 22.378 51.9169C22.4347 52.0534 22.4447 52.2048 22.4065 52.3475C22.3682 52.4903 22.2839 52.6164 22.1666 52.7063C22.0493 52.7961 21.9056 52.8447 21.7578 52.8445L21.7645 52.8472Z" fill="white"/>
<path d="M113.301 143.74C113.249 143.74 113.198 143.734 113.147 143.722L108.924 142.728C108.751 142.688 108.601 142.58 108.507 142.429C108.414 142.278 108.384 142.095 108.425 141.922C108.465 141.749 108.573 141.599 108.724 141.506C108.876 141.412 109.058 141.382 109.231 141.423L113.454 142.417C113.615 142.454 113.756 142.549 113.85 142.684C113.945 142.818 113.987 142.983 113.968 143.147C113.949 143.31 113.871 143.461 113.748 143.57C113.625 143.68 113.466 143.74 113.301 143.74ZM117.035 142.55C116.923 142.55 116.812 142.522 116.714 142.468C116.615 142.413 116.532 142.335 116.471 142.241C116.411 142.146 116.375 142.038 116.367 141.925C116.36 141.813 116.38 141.701 116.427 141.599C116.54 141.351 116.597 141.081 116.595 140.808V137.576C116.595 137.398 116.666 137.228 116.791 137.102C116.917 136.976 117.088 136.906 117.265 136.906C117.443 136.906 117.614 136.976 117.739 137.102C117.865 137.228 117.936 137.398 117.936 137.576V140.808C117.938 141.275 117.839 141.737 117.644 142.161C117.59 142.277 117.504 142.376 117.397 142.445C117.289 142.514 117.163 142.55 117.035 142.55ZM104.855 141.752C104.803 141.752 104.752 141.747 104.701 141.735L100.478 140.741C100.392 140.721 100.311 140.684 100.24 140.633C100.168 140.582 100.107 140.516 100.061 140.442C100.015 140.367 99.9835 140.283 99.9693 140.197C99.9551 140.11 99.9582 140.021 99.9784 139.935C99.9985 139.849 100.035 139.768 100.087 139.697C100.138 139.625 100.203 139.565 100.278 139.518C100.353 139.472 100.436 139.441 100.523 139.426C100.61 139.412 100.699 139.415 100.785 139.436L105.008 140.43C105.168 140.468 105.308 140.563 105.402 140.697C105.497 140.832 105.538 140.996 105.519 141.159C105.501 141.322 105.423 141.472 105.3 141.582C105.178 141.691 105.019 141.752 104.855 141.752ZM96.4086 139.765C96.3567 139.765 96.305 139.76 96.2544 139.748L92.0311 138.754C91.9454 138.734 91.8645 138.697 91.793 138.645C91.7215 138.594 91.6609 138.529 91.6145 138.454C91.5682 138.379 91.5371 138.296 91.5229 138.209C91.5087 138.122 91.5118 138.033 91.532 137.948C91.5521 137.862 91.589 137.781 91.6404 137.71C91.6918 137.638 91.7568 137.577 91.8317 137.531C91.9065 137.485 91.9898 137.454 92.0767 137.439C92.1636 137.425 92.2524 137.428 92.3381 137.449L96.5614 138.442C96.7218 138.479 96.8628 138.574 96.9576 138.709C97.0525 138.844 97.0944 139.008 97.0755 139.172C97.0566 139.335 96.9782 139.486 96.8552 139.596C96.7322 139.705 96.5733 139.766 96.4086 139.765ZM87.9619 137.778C87.9102 137.778 87.8587 137.772 87.8084 137.76L83.585 136.767C83.4119 136.726 83.2621 136.618 83.1685 136.467C83.0749 136.316 83.0452 136.134 83.0859 135.961C83.1266 135.788 83.2344 135.638 83.3856 135.544C83.5368 135.451 83.7189 135.421 83.892 135.462L88.1154 136.455C88.2758 136.492 88.4169 136.587 88.5117 136.722C88.6065 136.857 88.6484 137.022 88.6294 137.185C88.6105 137.349 88.5319 137.5 88.4088 137.609C88.2857 137.719 88.1266 137.779 87.9619 137.778ZM79.5152 135.791C79.4635 135.791 79.412 135.785 79.3616 135.773L75.1383 134.78C74.9651 134.739 74.8152 134.631 74.7215 134.48C74.6279 134.329 74.5981 134.146 74.6388 133.973C74.6796 133.8 74.7874 133.65 74.9386 133.557C75.0899 133.463 75.2721 133.433 75.4453 133.474L79.6687 134.468C79.8284 134.506 79.9687 134.601 80.063 134.736C80.1572 134.87 80.1988 135.035 80.1799 135.198C80.1609 135.361 80.0828 135.511 79.9603 135.621C79.8377 135.73 79.6794 135.79 79.5152 135.791ZM117.263 133.908C117.086 133.908 116.915 133.837 116.789 133.711C116.664 133.586 116.593 133.415 116.593 133.237V128.899C116.593 128.721 116.664 128.551 116.789 128.425C116.915 128.299 117.086 128.229 117.263 128.229C117.441 128.229 117.612 128.299 117.737 128.425C117.863 128.551 117.934 128.721 117.934 128.899V133.237C117.934 133.415 117.863 133.585 117.738 133.711C117.613 133.836 117.443 133.907 117.265 133.908H117.263ZM71.0698 133.804C71.0179 133.804 70.9661 133.798 70.9156 133.786L66.6922 132.792C66.5191 132.751 66.3693 132.644 66.2757 132.492C66.1821 132.341 66.1524 132.159 66.1931 131.986C66.2338 131.813 66.3416 131.663 66.4928 131.569C66.644 131.476 66.8262 131.446 66.9993 131.487L71.2226 132.48C71.383 132.518 71.524 132.613 71.6188 132.747C71.7136 132.882 71.7556 133.047 71.7367 133.21C71.7178 133.374 71.6394 133.525 71.5164 133.634C71.3934 133.744 71.2344 133.804 71.0698 133.804ZM62.623 131.817C62.5711 131.817 62.5194 131.811 62.4689 131.799L58.2455 130.805C58.1598 130.785 58.0789 130.748 58.0074 130.697C57.936 130.645 57.8753 130.58 57.829 130.505C57.7826 130.431 57.7515 130.347 57.7373 130.26C57.7232 130.174 57.7262 130.085 57.7464 129.999C57.7666 129.913 57.8034 129.832 57.8548 129.761C57.9062 129.689 57.9712 129.629 58.0461 129.582C58.121 129.536 58.2042 129.505 58.2911 129.491C58.378 129.477 58.4668 129.48 58.5525 129.5L62.7759 130.493C62.9363 130.531 63.0773 130.626 63.1721 130.76C63.2669 130.895 63.3089 131.06 63.29 131.223C63.2711 131.387 63.1927 131.538 63.0697 131.647C62.9467 131.757 62.7877 131.817 62.623 131.817ZM54.1763 129.829C54.1244 129.829 54.0727 129.823 54.0221 129.812L49.7988 128.818C49.6256 128.777 49.4757 128.67 49.382 128.518C49.2884 128.367 49.2586 128.185 49.2993 128.012C49.3401 127.838 49.4479 127.689 49.5991 127.595C49.7504 127.501 49.9326 127.472 50.1058 127.512L54.3292 128.506C54.4889 128.544 54.6291 128.639 54.7234 128.774C54.8176 128.908 54.8592 129.073 54.8404 129.236C54.8215 129.399 54.7435 129.549 54.6211 129.659C54.4987 129.768 54.3405 129.829 54.1763 129.829ZM45.7296 127.842C45.6777 127.842 45.626 127.836 45.5754 127.825L41.352 126.83C41.179 126.79 41.0291 126.682 40.9355 126.531C40.8419 126.38 40.8122 126.197 40.8529 126.024C40.8937 125.851 41.0015 125.701 41.1526 125.608C41.3038 125.514 41.486 125.485 41.6591 125.525L45.8824 126.519C46.0428 126.556 46.1838 126.651 46.2786 126.786C46.3735 126.92 46.4154 127.085 46.3965 127.249C46.3776 127.412 46.2992 127.563 46.1762 127.672C46.0532 127.782 45.8942 127.842 45.7296 127.842ZM37.2829 125.855C37.2309 125.855 37.1792 125.849 37.1287 125.837L32.9053 124.843C32.7322 124.803 32.5824 124.695 32.4888 124.544C32.3952 124.393 32.3655 124.21 32.4062 124.037C32.4469 123.864 32.5547 123.714 32.7059 123.621C32.8571 123.527 33.0393 123.498 33.2124 123.538L37.4357 124.532C37.5961 124.569 37.7371 124.664 37.8319 124.799C37.9267 124.933 37.9687 125.098 37.9498 125.262C37.9309 125.425 37.8525 125.576 37.7295 125.685C37.6065 125.795 37.4475 125.855 37.2829 125.855ZM117.259 125.231C117.081 125.231 116.91 125.16 116.785 125.035C116.659 124.909 116.588 124.738 116.588 124.561V120.223C116.588 120.045 116.659 119.874 116.785 119.749C116.91 119.623 117.081 119.552 117.259 119.552C117.436 119.552 117.607 119.623 117.733 119.749C117.858 119.874 117.929 120.045 117.929 120.223V124.561C117.929 124.737 117.859 124.907 117.735 125.032C117.611 125.158 117.442 125.229 117.265 125.231H117.259ZM28.8361 123.867C28.7842 123.868 28.7324 123.862 28.682 123.849L27.5819 123.591C26.5029 123.399 25.4412 123.121 24.407 122.759C24.3222 122.73 24.244 122.685 24.1769 122.626C24.1098 122.567 24.0552 122.495 24.0163 122.415C23.9773 122.335 23.9548 122.247 23.9501 122.158C23.9455 122.069 23.9586 121.98 23.9889 121.896C24.0192 121.811 24.066 121.734 24.1266 121.669C24.1871 121.603 24.2602 121.55 24.3414 121.513C24.4227 121.476 24.5106 121.455 24.5999 121.453C24.6892 121.45 24.7782 121.465 24.8615 121.498C25.8384 121.838 26.8409 122.099 27.8594 122.279L28.989 122.547C29.1487 122.585 29.289 122.68 29.3832 122.815C29.4774 122.949 29.5191 123.114 29.5002 123.277C29.4814 123.44 29.4034 123.59 29.281 123.7C29.1586 123.809 29.0003 123.87 28.8361 123.87V123.867ZM117.259 116.554C117.081 116.554 116.91 116.484 116.785 116.358C116.659 116.232 116.588 116.062 116.588 115.884V111.546C116.588 111.368 116.659 111.198 116.785 111.072C116.91 110.946 117.081 110.876 117.259 110.876C117.436 110.876 117.607 110.946 117.733 111.072C117.858 111.198 117.929 111.368 117.929 111.546V115.884C117.929 116.061 117.859 116.23 117.735 116.356C117.611 116.481 117.442 116.553 117.265 116.554H117.259ZM117.259 107.878C117.081 107.878 116.91 107.807 116.785 107.681C116.659 107.556 116.588 107.385 116.588 107.207V102.869C116.588 102.691 116.659 102.521 116.785 102.395C116.91 102.269 117.081 102.199 117.259 102.199C117.436 102.199 117.607 102.269 117.733 102.395C117.858 102.521 117.929 102.691 117.929 102.869V107.207C117.929 107.384 117.859 107.553 117.735 107.679C117.611 107.804 117.442 107.876 117.265 107.878H117.259ZM117.259 99.2009C117.081 99.2009 116.91 99.1303 116.785 99.0046C116.659 98.8789 116.588 98.7084 116.588 98.5306V94.1926C116.588 94.0148 116.659 93.8443 116.785 93.7185C116.91 93.5928 117.081 93.5222 117.259 93.5222C117.436 93.5222 117.607 93.5928 117.733 93.7185C117.858 93.8443 117.929 94.0148 117.929 94.1926V98.5306C117.929 98.7072 117.859 98.8767 117.735 99.0022C117.611 99.1278 117.442 99.1992 117.265 99.2009H117.259ZM117.259 90.5249C117.081 90.5249 116.91 90.4543 116.785 90.3286C116.659 90.2029 116.588 90.0324 116.588 89.8546V85.5159C116.588 85.3381 116.659 85.1676 116.785 85.0419C116.91 84.9162 117.081 84.8455 117.259 84.8455C117.436 84.8455 117.607 84.9162 117.733 85.0419C117.858 85.1676 117.929 85.3381 117.929 85.5159V89.8546C117.929 90.0312 117.859 90.2007 117.735 90.3262C117.611 90.4518 117.442 90.5232 117.265 90.5249H117.259ZM117.259 81.8483C117.081 81.8483 116.91 81.7777 116.785 81.6519C116.659 81.5262 116.588 81.3557 116.588 81.1779V76.8392C116.588 76.6614 116.659 76.4909 116.785 76.3652C116.91 76.2395 117.081 76.1689 117.259 76.1689C117.436 76.1689 117.607 76.2395 117.733 76.3652C117.858 76.4909 117.929 76.6614 117.929 76.8392V81.1779C117.929 81.3545 117.859 81.5241 117.735 81.6496C117.611 81.7751 117.442 81.8465 117.265 81.8483H117.259ZM114.644 74.6357C114.593 74.6359 114.543 74.63 114.493 74.6183L110.265 73.6483C110.095 73.6056 109.948 73.4979 109.857 73.3483C109.765 73.1987 109.735 73.0191 109.775 72.8481C109.814 72.6771 109.919 72.5282 110.066 72.4335C110.214 72.3389 110.393 72.3059 110.565 72.3417L114.793 73.3117C114.954 73.3483 115.095 73.4429 115.191 73.5773C115.286 73.7116 115.329 73.8765 115.31 74.0402C115.292 74.204 115.214 74.3552 115.091 74.4651C114.968 74.5749 114.809 74.6357 114.644 74.6357ZM106.187 72.6916C106.137 72.6918 106.086 72.6859 106.037 72.6742L101.815 71.7075C101.641 71.6678 101.491 71.5608 101.396 71.4101C101.302 71.2595 101.271 71.0774 101.311 70.9041C101.35 70.7307 101.457 70.5803 101.608 70.4858C101.759 70.3913 101.941 70.3606 102.114 70.4003L106.342 71.371C106.503 71.4076 106.644 71.5021 106.74 71.6365C106.835 71.7709 106.878 71.9357 106.859 72.0995C106.841 72.2633 106.763 72.4145 106.64 72.5244C106.517 72.6342 106.358 72.695 106.193 72.695L106.187 72.6916ZM97.7306 70.7475C97.6798 70.7476 97.6292 70.7418 97.5798 70.7301L93.3517 69.7601C93.1783 69.7203 93.0279 69.6134 92.9334 69.4627C92.8389 69.312 92.8082 69.13 92.8479 68.9566C92.8877 68.7833 92.9946 68.6328 93.1453 68.5383C93.296 68.4439 93.478 68.4131 93.6514 68.4528L97.8801 69.4236C98.0408 69.4602 98.1824 69.5548 98.2778 69.6892C98.3732 69.8237 98.4158 69.9886 98.3973 70.1524C98.3788 70.3162 98.3005 70.4675 98.1776 70.5773C98.0546 70.687 97.8955 70.7477 97.7306 70.7475ZM89.2785 68.8135C89.2277 68.8133 89.1771 68.8074 89.1277 68.7961L84.8996 67.826C84.7263 67.7863 84.5758 67.6793 84.4813 67.5287C84.3868 67.378 84.3561 67.196 84.3958 67.0226C84.4356 66.8493 84.5425 66.6988 84.6932 66.6043C84.8439 66.5098 85.0259 66.4791 85.1993 66.5188L89.428 67.4895C89.5887 67.5262 89.7303 67.6207 89.8257 67.7552C89.9212 67.8896 89.9637 68.0545 89.9452 68.2183C89.9267 68.3822 89.8485 68.5334 89.7255 68.6432C89.6025 68.753 89.4434 68.8136 89.2785 68.8135ZM80.8217 66.8694C80.7712 66.8694 80.7208 66.8638 80.6716 66.8527L76.4422 65.8887C76.2688 65.8489 76.1183 65.742 76.0239 65.5913C75.9294 65.4406 75.8986 65.2586 75.9384 65.0852C75.9781 64.9119 76.0851 64.7614 76.2357 64.6669C76.3864 64.5724 76.5685 64.5417 76.7418 64.5814L80.9705 65.5521C81.1306 65.5894 81.2715 65.6841 81.3663 65.8184C81.4611 65.9526 81.5033 66.117 81.4848 66.2803C81.4664 66.4437 81.3886 66.5945 81.2662 66.7042C81.1438 66.8139 80.9854 66.8749 80.821 66.8755L80.8217 66.8694ZM72.3649 64.9253C72.3144 64.9254 72.264 64.9197 72.2148 64.9086L67.9854 63.9446C67.812 63.9048 67.6616 63.7979 67.5671 63.6472C67.4726 63.4965 67.4418 63.3145 67.4816 63.1411C67.5213 62.9678 67.6283 62.8173 67.779 62.7228C67.9296 62.6284 68.1117 62.5976 68.285 62.6373L72.5138 63.608C72.6738 63.6453 72.8147 63.74 72.9095 63.8743C73.0043 64.0085 73.0465 64.1729 73.028 64.3363C73.0096 64.4996 72.9318 64.6504 72.8094 64.7601C72.687 64.8699 72.5286 64.9308 72.3643 64.9314L72.3649 64.9253ZM63.9082 62.9812C63.8576 62.9813 63.8073 62.9756 63.758 62.9645L59.5293 61.9945C59.3559 61.9547 59.2055 61.8477 59.111 61.6971C59.0165 61.5464 58.9857 61.3644 59.0255 61.191C59.0652 61.0177 59.1722 60.8672 59.3229 60.7727C59.4735 60.6782 59.6556 60.6475 59.8289 60.6872L64.0576 61.6579C64.2177 61.6952 64.3586 61.7899 64.4534 61.9242C64.5482 62.0584 64.5904 62.2228 64.5719 62.3861C64.5535 62.5494 64.4757 62.7003 64.3533 62.81C64.2309 62.9197 64.0725 62.9807 63.9082 62.9812ZM55.4514 61.0372C55.4009 61.0372 55.3505 61.0316 55.3012 61.0204L51.0725 60.0497C50.9012 60.008 50.7533 59.9004 50.6608 59.7504C50.5682 59.6004 50.5384 59.42 50.5779 59.2482C50.6174 59.0764 50.723 58.9271 50.8717 58.8326C51.0205 58.7381 51.2005 58.7059 51.3728 58.7431L55.6009 59.7138C55.761 59.7511 55.9018 59.8458 55.9966 59.9801C56.0914 60.1143 56.1336 60.2787 56.1152 60.442C56.0967 60.6054 56.0189 60.7562 55.8965 60.8659C55.7741 60.9756 55.6157 61.0366 55.4514 61.0372ZM46.9946 59.0931C46.9441 59.0931 46.8937 59.0875 46.8444 59.0763L42.6164 58.1056C42.4461 58.063 42.2994 57.9553 42.2077 57.8057C42.116 57.6561 42.0866 57.4765 42.1258 57.3055C42.165 57.1344 42.2698 56.9856 42.4175 56.8909C42.5653 56.7962 42.7442 56.7632 42.916 56.7991L47.1441 57.7698C47.3042 57.807 47.445 57.9017 47.5398 58.036C47.6346 58.1702 47.6768 58.3346 47.6584 58.498C47.6399 58.6613 47.5621 58.8121 47.4397 58.9218C47.3174 59.0316 47.1589 59.0925 46.9946 59.0931ZM38.5385 57.1523C38.4877 57.1524 38.4371 57.1467 38.3876 57.1356L34.1596 56.1649C33.9894 56.1222 33.8426 56.0146 33.7509 55.865C33.6592 55.7154 33.6298 55.5358 33.669 55.3647C33.7083 55.1937 33.813 55.0448 33.9607 54.9502C34.1085 54.8555 34.2875 54.8225 34.4592 54.8583L38.6873 55.829C38.8473 55.8662 38.9881 55.9609 39.0829 56.0951C39.1778 56.2293 39.22 56.3936 39.2016 56.5569C39.1833 56.7202 39.1056 56.871 38.9833 56.9808C38.8611 57.0905 38.7028 57.1516 38.5385 57.1523ZM30.0844 55.2297C30.0336 55.2297 29.983 55.2241 29.9335 55.2129L25.7055 54.2422C25.5353 54.1996 25.3885 54.0919 25.2968 53.9423C25.2051 53.7927 25.1757 53.6131 25.2149 53.4421C25.2542 53.271 25.3589 53.1222 25.5066 53.0275C25.6544 52.9328 25.8334 52.8999 26.0051 52.9357L30.2332 53.9064C30.3932 53.9436 30.534 54.0383 30.6288 54.1725C30.7237 54.3067 30.7659 54.471 30.7475 54.6343C30.7292 54.7975 30.6515 54.9484 30.5292 55.0581C30.407 55.1679 30.2487 55.229 30.0844 55.2297Z" fill="white"/>
<path d="M21.0251 120.473C20.9256 120.473 20.8274 120.451 20.7375 120.408C20.6477 120.366 20.5684 120.304 20.5055 120.227C19.9794 119.585 19.6047 118.833 19.4095 118.027C19.3676 117.854 19.3961 117.672 19.4887 117.52C19.5813 117.368 19.7304 117.259 19.9032 117.218C20.076 117.176 20.2584 117.204 20.4102 117.297C20.562 117.389 20.6708 117.538 20.7127 117.711C20.8612 118.323 21.1455 118.893 21.5446 119.379C21.6248 119.477 21.6754 119.596 21.6906 119.722C21.7059 119.848 21.6851 119.976 21.6307 120.09C21.5763 120.205 21.4905 120.302 21.3833 120.37C21.2761 120.437 21.1519 120.473 21.0251 120.473Z" fill="white"/>
<g opacity="0.55">
<path d="M21.0144 44.4822C20.3883 45.6029 20.0606 46.8655 20.0625 48.1492V45.4677C20.0601 43.9784 20.5012 42.5222 21.3295 41.2845C20.8234 42.4644 20.7463 43.5437 21.0144 44.4822Z" fill="white"/>
</g>
<g opacity="0.55">
<path d="M122.631 76.5798V79.2613C122.631 77.4821 122.03 75.755 120.925 74.3604C119.82 72.9658 118.276 71.9856 116.544 71.5788L25.4503 50.6712C25.4402 50.6712 25.4301 50.6712 25.4201 50.6645C22.1487 49.9036 20.1912 47.6612 21.0761 44.6747C21.6258 46.297 23.2246 47.4735 25.4201 47.983C25.4301 47.983 25.4402 47.983 25.4503 47.9897L116.544 68.8953C118.277 69.3022 119.821 70.2827 120.926 71.6777C122.031 73.0727 122.632 74.8002 122.631 76.5798Z" fill="white"/>
</g>
<g opacity="0.55">
<path d="M21.3346 43.9674C21.235 44.1988 21.1499 44.4361 21.0799 44.678C21.0562 44.6143 21.0361 44.5494 21.0195 44.4836C21.1167 44.308 21.2206 44.1337 21.3346 43.9674Z" fill="white"/>
</g>
<path d="M114.756 149.709C114.154 149.709 113.553 149.648 112.963 149.526C112.887 149.514 112.782 149.491 112.677 149.463L26.2866 129.137C24.2262 128.659 22.3891 127.496 21.076 125.838C19.7629 124.18 19.0516 122.125 19.0586 120.01V45.4678C19.0566 43.7797 19.5567 42.1292 20.4953 40.7262C20.6345 40.5178 20.8466 40.3689 21.09 40.3088C21.3333 40.2486 21.5903 40.2815 21.8107 40.401C22.031 40.5205 22.1988 40.7179 22.2811 40.9547C22.3634 41.1914 22.3544 41.4504 22.2557 41.6808C21.7643 42.8265 21.7401 43.8508 22.1833 44.727C22.7276 45.7996 23.9571 46.6108 25.6451 47.0063L25.6759 47.013L116.767 67.9173C118.724 68.3697 120.469 69.4732 121.717 71.047C122.964 72.6208 123.64 74.5716 123.634 76.5799V140.809C123.633 143.165 122.698 145.425 121.034 147.093C119.37 148.762 117.112 149.702 114.756 149.709ZM21.0698 46.655V120.01C21.064 121.671 21.6226 123.285 22.6539 124.588C23.6852 125.89 25.1282 126.804 26.7465 127.179L113.162 147.512C113.236 147.532 113.286 147.542 113.336 147.55C114.337 147.759 115.373 147.742 116.368 147.499C117.362 147.257 118.29 146.797 119.084 146.151C119.878 145.505 120.518 144.691 120.958 143.767C121.398 142.842 121.626 141.832 121.626 140.809V76.5799C121.631 75.0261 121.108 73.5167 120.143 72.2988C119.178 71.0809 117.828 70.2268 116.315 69.8761L25.2261 48.9718L25.1926 48.9638C23.4241 48.5528 22.0009 47.7484 21.0698 46.655Z" fill="#66142E"/>
<path d="M128.5 71.3542C128.499 69.6133 127.911 67.9234 126.831 66.5586C125.75 65.1937 124.24 64.2339 122.545 63.8346L27.1328 42.7694H128.592C130.73 42.771 132.779 43.6208 134.29 45.1323C135.802 46.6437 136.652 48.6932 136.653 50.8307V115.492C136.653 117.121 136.158 118.711 135.236 120.054C134.313 121.396 133.005 122.428 131.485 123.012C130.586 123.357 129.632 123.539 128.669 123.548H128.5V71.3542Z" fill="#E67E22"/>
<path d="M128.589 42.937C130.682 42.9384 132.689 43.7705 134.169 45.2506C135.649 46.7306 136.481 48.7376 136.483 50.8307V115.492C136.482 117.087 135.998 118.644 135.095 119.959C134.191 121.274 132.91 122.284 131.421 122.856C130.54 123.193 129.606 123.37 128.663 123.379V71.3575C128.662 69.5789 128.061 67.8524 126.957 66.4579C125.853 65.0635 124.31 64.0829 122.579 63.675L28.6661 42.9403H128.589M128.589 42.6052H25.5938L28.5943 43.2675L122.507 64.0022C124.164 64.3937 125.64 65.3329 126.696 66.6678C127.753 68.0027 128.328 69.6552 128.328 71.3575V123.721L128.667 123.717C130.367 123.703 132.021 123.162 133.401 122.168C134.781 121.174 135.819 119.776 136.371 118.168C136.668 117.308 136.819 116.405 136.818 115.495V50.8307C136.817 48.6487 135.95 46.5565 134.407 45.0136C132.864 43.4707 130.771 42.6032 128.59 42.6018L128.589 42.6052Z" fill="#66142E"/>
<g opacity="0.3">
<path d="M136.486 50.8307V115.492C136.485 117.087 136.002 118.645 135.098 119.959C134.194 121.274 132.914 122.284 131.425 122.856C130.544 123.193 129.609 123.37 128.666 123.379V71.3576C128.666 70.3066 128.456 69.2662 128.049 68.2974C127.641 67.3287 127.044 66.4512 126.293 65.7164V51.5581L128.08 50.5525C132.343 50.4318 135.621 49.6207 134.756 45.9034C135.88 47.2996 136.49 49.0388 136.486 50.8307Z" fill="#66142E"/>
</g>
<path d="M128.663 124.384C128.396 124.384 128.14 124.278 127.952 124.09C127.763 123.901 127.657 123.645 127.657 123.379V71.3576C127.662 69.8043 127.14 68.2953 126.175 67.0776C125.211 65.8598 123.862 65.0053 122.349 64.6539L28.4498 43.9192C28.2076 43.8659 27.9937 43.7251 27.849 43.5237C27.7044 43.3224 27.6392 43.0747 27.6661 42.8282C27.6929 42.5817 27.8099 42.3538 27.9945 42.1883C28.1791 42.0228 28.4184 41.9314 28.6663 41.9315H128.589C133.496 41.9315 137.488 45.9236 137.488 50.8307V115.492C137.488 117.29 136.942 119.047 135.924 120.529C134.905 122.011 133.461 123.15 131.781 123.794C130.789 124.174 129.736 124.374 128.674 124.384H128.663ZM37.8846 43.9426L122.798 62.6897C124.756 63.1415 126.502 64.2449 127.751 65.8192C128.999 67.3934 129.676 69.3451 129.67 71.3543V122.289C130.905 122.095 132.064 121.568 133.021 120.765C133.979 119.962 134.699 118.912 135.104 117.73C135.354 117.01 135.48 116.254 135.479 115.492V50.8307C135.477 49.0045 134.751 47.2536 133.46 45.9623C132.168 44.6709 130.417 43.9446 128.591 43.9426H37.8846Z" fill="#66142E"/>
<g opacity="0.3">
<path d="M30.3438 43.3065H50.215L51.0329 47.3683L30.3438 43.3065Z" fill="#66142E"/>
</g>
<g opacity="0.3">
<path d="M63.1562 50.5525H126.986C134.528 50.7 136.003 48.119 134.169 45.2498C131.814 42.2211 126 42.4651 119.193 43.649L63.1562 50.5525Z" fill="#66142E"/>
</g>
<path d="M116.988 149.157C115.687 149.151 114.389 148.999 113.121 148.705L113.192 148.377C113.705 148.483 114.228 148.536 114.752 148.537C119.002 148.537 122.461 145.069 122.461 140.809V76.5799C122.462 74.8383 121.874 73.1478 120.792 71.7827C119.711 70.4176 118.199 69.4583 116.504 69.0603L25.3656 48.1446C23.3458 47.6753 21.8381 46.6483 21.1342 45.2573C20.5356 44.0741 20.5496 42.6777 21.1744 41.219C21.8762 40.1555 22.8309 39.2827 23.9529 38.6789C25.0749 38.0751 26.3292 37.7591 27.6033 37.7592H133.839C135.976 37.7613 138.026 38.6111 139.537 40.1223C141.049 41.6334 141.899 43.6824 141.902 45.8197V110.481C142.015 118.976 138.474 121.368 131.459 123.017L131.361 122.698C132.818 122.138 134.072 121.149 134.956 119.863C135.84 118.576 136.314 117.051 136.314 115.49V50.8308C136.316 50.137 136.222 49.4463 136.035 48.7781L136.029 48.7553V48.7486C135.572 47.126 134.599 45.6967 133.256 44.678C131.913 43.6594 130.274 43.107 128.588 43.1047H30.2004L122.613 63.5083C123.873 63.8056 125.042 64.4016 126.023 65.2458C127.004 66.09 127.768 67.1578 128.249 68.3591C128.634 69.3108 128.83 70.3279 128.828 71.3543V135.273C129.107 139.589 128.019 143.193 125.682 145.686C123.551 147.956 120.545 149.157 116.988 149.157Z" fill="#D3623B"/>
<path d="M133.84 37.9261C135.933 37.9262 137.941 38.7579 139.421 40.2383C140.902 41.7186 141.733 43.7263 141.734 45.8197V110.481C141.847 119.015 138.13 121.277 131.42 122.856C132.909 122.284 134.19 121.274 135.093 119.959C135.997 118.645 136.481 117.087 136.481 115.492V50.8308C136.483 50.1216 136.387 49.4156 136.196 48.7325V48.7258C135.735 47.0617 134.742 45.5946 133.367 44.5491C131.993 43.5036 130.314 42.9374 128.587 42.9371H28.6647L122.578 63.6718C123.811 63.9626 124.956 64.5459 125.916 65.3726C126.877 66.1993 127.624 67.245 128.095 68.4214C128.47 69.3535 128.663 70.3493 128.661 71.3543V135.273C129.227 144.054 124.073 148.991 116.989 148.991C115.7 148.985 114.415 148.835 113.159 148.543C113.683 148.651 114.217 148.705 114.753 148.706C118.987 148.706 122.628 145.266 122.628 140.81V76.5812C122.628 74.8019 122.027 73.0748 120.922 71.6802C119.817 70.2856 118.273 69.3054 116.541 68.8987L25.4469 47.9897C25.4368 47.9897 25.4268 47.9897 25.4167 47.983C21.8906 47.1618 19.8962 44.6211 21.3274 41.2793C22.0154 40.2455 22.9482 39.3979 24.043 38.8119C25.1378 38.2259 26.3604 37.9198 27.6022 37.9207H133.84M133.84 37.5855H27.6035C26.3066 37.5845 25.0296 37.9042 23.8862 38.5161C22.7428 39.1281 21.7684 40.0133 21.0499 41.0929L21.0332 41.1191L21.0211 41.1472C20.3755 42.6529 20.3628 44.0969 20.9842 45.3263C21.7096 46.7596 23.2514 47.8161 25.3276 48.3028H25.3383L25.3685 48.3088H25.3732L116.467 69.2145C118.125 69.6043 119.603 70.5429 120.661 71.8782C121.719 73.2135 122.294 74.8671 122.294 76.5705V140.799C122.294 144.968 118.912 148.36 114.754 148.36C114.241 148.359 113.73 148.307 113.228 148.203L113.086 148.858C114.366 149.156 115.676 149.309 116.991 149.316C120.595 149.316 123.643 148.097 125.806 145.789C128.174 143.265 129.277 139.622 128.998 135.251V71.3543C129 70.3061 128.8 69.2674 128.407 68.2954C127.915 67.0699 127.136 65.9806 126.135 65.1191C125.134 64.2577 123.941 63.6493 122.656 63.3453L31.7377 43.2723H128.587C130.232 43.2747 131.832 43.8124 133.144 44.8041C134.456 45.7958 135.41 47.1877 135.861 48.7694L135.874 48.8203C136.056 49.4751 136.148 50.1518 136.146 50.8315V115.492C136.145 117.02 135.682 118.511 134.817 119.77C133.951 121.028 132.725 121.995 131.3 122.543L131.497 123.183C134.42 122.495 137.396 121.574 139.378 119.509C141.27 117.536 142.126 114.665 142.069 110.477V45.8197C142.066 43.638 141.199 41.5463 139.656 40.0036C138.113 38.4609 136.022 37.5932 133.84 37.5909V37.5855Z" fill="#66142E"/>
<g opacity="0.55">
<path d="M122.633 140.809V142.904C122.637 143.976 122.419 145.039 121.995 146.024C121.57 147.009 120.948 147.897 120.166 148.632C118.061 149.131 115.681 149.115 113.164 148.541C118.034 149.54 122.633 145.816 122.633 140.809Z" fill="white"/>
</g>
<g opacity="0.55">
<path d="M128.66 135.273C128.713 136.054 128.718 136.837 128.674 137.619C128.674 137.535 128.667 137.451 128.66 137.367V135.273Z" fill="white"/>
</g>
<g opacity="0.55">
<path d="M136.054 118.056C136.339 117.231 136.484 116.364 136.483 115.492V117.587C136.484 119.032 136.086 120.449 135.334 121.683C134.174 122.145 132.867 122.517 131.422 122.856C132.497 122.442 133.469 121.798 134.27 120.969C135.07 120.14 135.679 119.145 136.054 118.056Z" fill="white"/>
</g>
<g opacity="0.55">
<path d="M141.736 45.8197V47.9146C141.736 45.8211 140.904 43.8135 139.424 42.3331C137.943 40.8528 135.936 40.0211 133.842 40.0209H27.6059C26.3642 40.02 25.1415 40.3262 24.0467 40.9122C22.952 41.4982 22.0191 42.3458 21.3312 43.3795C21.1883 43.7108 21.075 44.054 20.9927 44.4052C20.7513 43.4834 20.8385 42.4309 21.3312 41.2846C22.0191 40.2508 22.952 39.4032 24.0467 38.8173C25.1415 38.2313 26.3642 37.9251 27.6059 37.926H133.842C135.936 37.9262 137.943 38.7579 139.424 40.2382C140.904 41.7185 141.736 43.7262 141.736 45.8197Z" fill="white"/>
</g>
<g opacity="0.3">
<path d="M128.666 135.273C129.33 145.576 122.124 150.584 113.164 148.543C118.034 149.542 122.633 145.818 122.633 140.81V76.5812C122.634 75.3546 122.348 74.1448 121.798 73.0484C121.068 67.9837 124.849 65.8485 128.1 68.4228C128.476 69.3549 128.668 70.3507 128.666 71.3557V135.273Z" fill="#66142E"/>
</g>
<path d="M117.021 150C115.647 149.993 114.279 149.833 112.941 149.521C112.687 149.459 112.467 149.3 112.328 149.078C112.19 148.856 112.143 148.588 112.199 148.332C112.254 148.077 112.407 147.852 112.625 147.708C112.843 147.563 113.109 147.508 113.366 147.557C114.366 147.76 115.4 147.739 116.391 147.494C117.382 147.25 118.306 146.788 119.097 146.142C119.888 145.496 120.525 144.682 120.963 143.76C121.4 142.838 121.628 141.829 121.628 140.809V76.5799C121.633 75.0261 121.11 73.5167 120.145 72.2988C119.18 71.0809 117.83 70.2267 116.316 69.8761L25.2278 48.9718L25.1943 48.9638C22.915 48.4328 21.2082 47.2503 20.3903 45.634C19.6764 44.2262 19.6824 42.5811 20.4085 40.8878C20.4332 40.8313 20.4626 40.7771 20.4963 40.7255C21.2762 39.554 22.3338 38.5936 23.5747 37.9297C24.8157 37.2659 26.2016 36.9191 27.609 36.9205H133.845C138.752 36.9205 142.745 40.9126 142.745 45.8197V110.481C142.865 119.437 138.769 122.161 131.656 123.835C131.408 123.892 131.147 123.854 130.927 123.727C130.706 123.6 130.542 123.394 130.467 123.151C130.392 122.908 130.412 122.645 130.523 122.416C130.634 122.188 130.828 122.009 131.065 121.917C132.364 121.418 133.482 120.537 134.27 119.39C135.058 118.243 135.48 116.884 135.481 115.492V50.8308C135.479 49.0045 134.753 47.2536 133.461 45.9623C132.17 44.6709 130.419 43.9446 128.593 43.9427H37.8912L122.802 62.6897C124.76 63.1415 126.506 64.245 127.755 65.8192C129.003 67.3934 129.68 69.3451 129.674 71.3543V135.241C129.991 140.284 128.473 144.502 125.397 147.122C123.163 149.021 120.273 150 117.021 150ZM25.6776 47.0116L116.769 67.9173C118.726 68.3697 120.471 69.4732 121.718 71.047C122.966 72.6208 123.642 74.5716 123.636 76.5799V140.809C123.639 142.067 123.373 143.311 122.857 144.458C122.341 145.606 121.587 146.63 120.644 147.463C121.908 147.079 123.079 146.442 124.088 145.59C126.713 143.353 127.949 139.808 127.66 135.333C127.66 135.311 127.66 135.289 127.66 135.266V71.3543C127.665 69.801 127.143 68.2919 126.179 67.0741C125.215 65.8563 123.865 65.0018 122.352 64.6505L28.4536 43.9192C28.2115 43.8659 27.9975 43.7251 27.8529 43.5237C27.7082 43.3224 27.6431 43.0747 27.6699 42.8282C27.6968 42.5817 27.8137 42.3538 27.9984 42.1883C28.183 42.0228 28.4222 41.9314 28.6702 41.9315H128.593C133.5 41.9315 137.492 45.9236 137.492 50.8308V115.492C137.493 116.476 137.329 117.454 137.008 118.384C136.788 119.027 136.496 119.641 136.137 120.217C139.303 118.586 140.808 115.932 140.735 110.497V45.8197C140.733 43.9935 140.007 42.2426 138.716 40.9512C137.424 39.6599 135.674 38.9336 133.847 38.9316H27.609C26.5485 38.9308 25.5038 39.1885 24.5653 39.6824C23.6269 40.1762 22.823 40.8914 22.2232 41.7659C21.7666 42.8768 21.7539 43.8729 22.1863 44.727C22.7306 45.7996 23.9601 46.6107 25.6488 47.0063L25.6789 47.013L25.6776 47.0116Z" fill="#66142E"/>
<path d="M127.596 51.5642C127.393 51.5642 127.186 51.5622 126.976 51.5582H63.1657C62.899 51.5582 62.6433 51.4522 62.4547 51.2636C62.2661 51.0751 62.1602 50.8193 62.1602 50.5526C62.1602 50.2859 62.2661 50.0301 62.4547 49.8416C62.6433 49.653 62.899 49.547 63.1657 49.547H126.995C132.192 49.6436 133.44 48.4356 133.735 47.9107C134.102 47.2557 133.718 46.3963 133.333 45.7909C133.192 45.5662 133.146 45.2953 133.205 45.0369C133.263 44.7786 133.421 44.5537 133.644 44.4111C133.867 44.2685 134.138 44.2197 134.397 44.2754C134.656 44.331 134.882 44.4866 135.027 44.7083C136.264 46.6437 135.962 48.0528 135.49 48.8934C134.496 50.6666 131.842 51.5642 127.596 51.5642Z" fill="#66142E"/>
<path d="M104.951 50.5525L68.9721 50.8072L68.9151 50.7938L60.8204 49.0073L56.4361 48.0386L51.0429 46.85L50.2117 42.9384L49.1458 37.9273L44.2923 15.1345C44.2446 14.9088 44.2883 14.6733 44.414 14.4798C44.5397 14.2862 44.737 14.1504 44.9626 14.1022L70.457 8.67213L74.3318 7.84757L85.1047 5.55489L90.0688 4.49905H90.0722L94.0777 3.64432C94.3035 3.59661 94.5389 3.6404 94.7325 3.76607C94.926 3.89174 95.0618 4.08904 95.1101 4.31469L95.4218 5.77946L95.9246 8.14253L102.266 37.9273L103.332 42.9384L104.951 50.5525Z" fill="#1EBC61"/>
<path d="M68.9539 50.9748L68.8775 50.9567L50.902 46.9887L48.9828 37.9608L44.1286 15.168C44.0709 14.8989 44.1223 14.6178 44.2716 14.3866C44.4209 14.1553 44.6559 13.9927 44.925 13.9346L90.066 4.33143L94.04 3.48005C94.1734 3.45184 94.3111 3.45018 94.4451 3.47516C94.5792 3.50015 94.707 3.5513 94.8213 3.62569C94.9356 3.70008 95.0341 3.79625 95.1113 3.90871C95.1884 4.02118 95.2426 4.14773 95.2708 4.28115L105.158 50.7214H104.953L68.9539 50.9748ZM51.1849 46.7079L68.9914 50.6396L104.745 50.3862L94.943 4.34819C94.9235 4.25825 94.8865 4.17303 94.8341 4.0974C94.7817 4.02177 94.7149 3.95721 94.6375 3.9074C94.5601 3.8576 94.4737 3.82353 94.3831 3.80714C94.2925 3.79075 94.1997 3.79237 94.1097 3.81189L44.9947 14.2697C44.8133 14.3096 44.6551 14.4196 44.5546 14.5757C44.4541 14.7319 44.4195 14.9214 44.4584 15.103L51.1849 46.7079Z" fill="#66142E"/>
<g opacity="0.55">
<path d="M95.2936 5.15803L92.2937 5.79823H92.2903L76.5566 9.15011L47.1855 15.398C46.9598 15.4463 46.7625 15.5821 46.6369 15.7756C46.5112 15.9691 46.4674 16.2046 46.5151 16.4304L51.372 39.2231L52.4379 44.2342L53.0848 47.2978L51.0468 46.8487L50.2156 42.937L49.1497 37.926L44.2962 15.1332C44.2485 14.9074 44.2923 14.672 44.4179 14.4784C44.5436 14.2849 44.7409 14.1491 44.9665 14.1008L74.3357 7.84958L90.0727 4.4977H90.0761L94.0816 3.64298C94.3074 3.59527 94.5428 3.63905 94.7364 3.76473C94.9299 3.8904 95.0657 4.0877 95.114 4.31335L95.2936 5.15803Z" fill="white"/>
</g>
<path d="M99.8267 50.5524L68.9325 50.7938L56.4534 48.0385L55.3674 42.937L54.3015 37.9259L51.0469 22.6347C52.2354 22.3812 53.2745 21.666 53.9358 20.6464C54.597 19.6269 54.8263 18.3865 54.573 17.1979L73.0519 13.2641L86.5935 10.3815C86.847 11.57 87.5622 12.6092 88.5817 13.2704C89.6013 13.9317 90.8417 14.1609 92.0303 13.9077L97.1399 37.9259L98.2057 42.937L99.8267 50.5524Z" fill="#4EEC91"/>
<path d="M68.9149 50.9614L68.8962 50.9573L56.3119 48.1793L54.1372 37.9608L50.8477 22.5059L51.0119 22.4704C52.1563 22.225 53.1566 21.5356 53.7934 20.5536C54.4302 19.5716 54.6515 18.3771 54.4087 17.2321L54.3745 17.0685L54.5381 17.0337L86.7161 10.1844L86.7516 10.348C86.998 11.4918 87.6875 12.4913 88.669 13.128C89.6506 13.7648 90.8444 13.9868 91.9892 13.7455L92.1535 13.7106L92.1883 13.8749L100.032 50.7187L68.9149 50.9614ZM56.5948 47.8984L68.9505 50.6262L99.6201 50.3862L91.8974 14.1055C90.7139 14.3139 89.4954 14.0664 88.487 13.4129C87.4786 12.7593 86.7551 11.7481 86.462 10.5827L54.77 17.3273C54.9766 18.5104 54.7282 19.7279 54.0747 20.7356C53.4213 21.7433 52.411 22.4667 51.2465 22.7607L56.5948 47.8984Z" fill="#66142E"/>
<g opacity="0.3">
<path d="M104.959 50.5524L68.9799 50.8071L68.9229 50.7937L60.8281 49.0072L70.4614 8.67407L74.3362 7.8495L85.1091 5.55682L95.929 8.14112L102.271 37.9259L103.337 42.9369L104.959 50.5524Z" fill="#66142E"/>
</g>
<path d="M104.956 51.5587C104.726 51.5585 104.503 51.4793 104.324 51.3344C104.145 51.1894 104.021 50.9875 103.973 50.7623L94.1578 4.65789L90.2844 5.48781L90.2469 5.49518L45.3083 15.0554L52.2634 47.7214C52.2925 47.8512 52.2956 47.9854 52.2724 48.1163C52.2493 48.2472 52.2005 48.3723 52.1287 48.4842C52.0569 48.5961 51.9637 48.6927 51.8543 48.7683C51.745 48.844 51.6217 48.8972 51.4917 48.9249C51.3617 48.9526 51.2274 48.9542 51.0968 48.9297C50.9661 48.9052 50.8416 48.855 50.7304 48.7821C50.6193 48.7091 50.5237 48.6148 50.4492 48.5047C50.3747 48.3946 50.3229 48.2707 50.2965 48.1404L43.3146 15.3423C43.2111 14.8563 43.3046 14.3491 43.5745 13.9319C43.8445 13.5147 44.2688 13.2215 44.7545 13.1167L89.8621 3.51691L89.8983 3.51021L93.8702 2.66285C94.3563 2.55938 94.8635 2.65287 95.2807 2.9228C95.6979 3.19273 95.9911 3.61708 96.0959 4.10282L105.94 50.3433C105.996 50.604 105.945 50.8761 105.8 51.0997C105.655 51.3233 105.427 51.4802 105.167 51.5359C105.098 51.551 105.027 51.5586 104.956 51.5587Z" fill="#66142E"/>
<path d="M99.8122 51.391C99.6203 51.3906 99.4344 51.3245 99.2855 51.2036C99.1365 51.0827 99.0335 50.9143 98.9936 50.7267L91.3514 14.8402C90.2049 14.9018 89.0683 14.5986 88.1048 13.9741C87.1413 13.3496 86.4004 12.436 85.9884 11.3643L55.4863 17.8562C55.5478 19.0027 55.2445 20.1392 54.6201 21.1027C53.9956 22.0662 53.082 22.8071 52.0104 23.2192L57.4874 48.9455C57.5338 49.1629 57.4919 49.3897 57.3711 49.5763C57.2502 49.7628 57.0601 49.8936 56.8428 49.94C56.7352 49.963 56.6241 49.9645 56.5159 49.9446C56.4076 49.9246 56.3044 49.8836 56.2121 49.8237C56.0255 49.7028 55.8947 49.5128 55.8483 49.2954L50.2098 22.8116C50.1869 22.7039 50.1854 22.5928 50.2054 22.4846C50.2255 22.3763 50.2666 22.2731 50.3266 22.1808C50.3865 22.0884 50.4641 22.0088 50.5548 21.9465C50.6455 21.8842 50.7477 21.8403 50.8553 21.8174C51.8263 21.6096 52.6752 21.025 53.2156 20.192C53.7561 19.359 53.9439 18.3456 53.738 17.3742C53.6921 17.1569 53.7342 16.9302 53.8553 16.7439C53.9763 16.5577 54.1663 16.427 54.3835 16.3807L86.4 9.56365C86.6174 9.51791 86.844 9.56017 87.0303 9.68116C87.2167 9.80215 87.3475 9.99202 87.3941 10.2092C87.6018 11.1802 88.1862 12.029 89.0192 12.5695C89.8521 13.1099 90.8654 13.2978 91.8367 13.0918C91.9444 13.0683 92.0557 13.0662 92.1643 13.0857C92.2728 13.1052 92.3764 13.1459 92.4692 13.2055C92.562 13.265 92.6421 13.3424 92.705 13.4329C92.7678 13.5235 92.8122 13.6256 92.8356 13.7334L100.635 50.3761C100.682 50.5934 100.64 50.8203 100.519 51.0067C100.398 51.1932 100.208 51.3239 99.9905 51.3703C99.9319 51.3833 99.8722 51.3902 99.8122 51.391Z" fill="#66142E"/>
<path d="M126.27 14.0439L121.048 35.9015L117.548 50.5525H64.1328L75.737 1.97044C75.7911 1.74614 75.9319 1.55243 76.1286 1.43179C76.3252 1.31115 76.5617 1.27342 76.7861 1.32688L125.626 12.9961C125.85 13.0502 126.044 13.1908 126.164 13.3871C126.285 13.5835 126.323 13.8196 126.27 14.0439Z" fill="#1EBC61"/>
<g opacity="0.55">
<path d="M126.265 14.0438L126.021 15.0662L78.233 3.64967C78.0086 3.59621 77.7721 3.63394 77.5754 3.75458C77.3788 3.87522 77.238 4.06893 77.1839 4.29323L66.1361 50.5525H64.125L75.7292 1.97038C75.7833 1.74608 75.9241 1.55237 76.1207 1.43173C76.3174 1.31109 76.5539 1.27336 76.7783 1.32682L125.622 12.996C125.846 13.0501 126.039 13.1907 126.16 13.3871C126.281 13.5834 126.318 13.8196 126.265 14.0438Z" fill="white"/>
</g>
<path d="M117.55 51.5581H64.1346C63.9826 51.5581 63.8326 51.5237 63.6959 51.4574C63.5591 51.3911 63.4392 51.2947 63.3451 51.1754C63.2509 51.0561 63.1851 50.917 63.1524 50.7686C63.1197 50.6202 63.1211 50.4663 63.1565 50.3186L74.7607 1.73378C74.8773 1.25146 75.1801 0.834915 75.603 0.575249C76.0258 0.315583 76.5343 0.233922 77.0172 0.348118L125.861 12.0167C126.344 12.1326 126.761 12.4354 127.021 12.8587C127.282 13.2819 127.364 13.791 127.249 14.2745L118.527 50.7831C118.476 51.0035 118.351 51.1998 118.173 51.3405C117.996 51.4811 117.776 51.5578 117.55 51.5581ZM65.4083 49.5469H116.759L125.262 13.9413L76.6853 2.33712L65.4083 49.5469Z" fill="#66142E"/>
<g opacity="0.3">
<path d="M141.736 46.6811V110.481C141.85 119.015 138.132 121.277 131.422 122.856C132.911 122.284 134.192 121.274 135.095 119.959C135.999 118.645 136.483 117.087 136.483 115.492V50.8307C136.485 50.1215 136.389 49.4155 136.198 48.7324V48.7257C136.483 43.2488 140.137 39.5215 141.736 46.6811Z" fill="#66142E"/>
</g>
<path d="M119.348 21.3757L112.376 50.5538H69.3008L78.5955 11.6419C79.1807 11.7816 79.7878 11.8048 80.3819 11.71C80.9761 11.6152 81.5458 11.4042 82.0584 11.0892C82.571 10.7743 83.0166 10.3614 83.3696 9.87417C83.7227 9.38696 83.9763 8.83499 84.1161 8.24976L115.959 15.8552C115.677 17.0366 115.876 18.2815 116.511 19.3166C117.146 20.3517 118.167 21.0923 119.348 21.3757Z" fill="#4EEC91"/>
<path d="M94.8799 35.0695C92.8418 34.6799 90.7371 34.833 88.7768 35.5135C86.8165 36.194 85.0697 37.3781 83.7114 38.9468C82.3532 40.5156 81.4314 42.4139 81.0384 44.4514C80.6454 46.4888 80.7951 48.5938 81.4724 50.5552H103.85C104.404 48.9507 104.607 47.2457 104.444 45.556C104.28 43.8663 103.756 42.2315 102.905 40.7626C102.054 39.2937 100.897 38.025 99.5128 37.0427C98.1283 36.0604 96.5488 35.3874 94.8813 35.0695H94.8799Z" fill="#1EBC61"/>
<path d="M89.4668 50.4331C87.9249 50.1388 86.7317 48.9845 86.5064 47.0035L84.6367 46.6489L85.0919 44.2663L86.6693 44.568C86.9535 43.2541 87.5408 42.0508 88.0261 41.4675L90.1995 42.4637C89.6793 43.1341 89.0806 44.2027 88.8587 45.3805C88.6167 46.6495 89.0149 47.4178 89.8113 47.57C90.5709 47.7148 91.1159 47.2187 91.9224 45.8511C93.0151 43.958 94.392 42.8498 96.1685 43.1891C97.8445 43.5102 98.9915 44.9019 99.084 46.9385L100.961 47.2964L100.506 49.679L98.7629 49.3438C98.5512 50.1161 98.2113 50.8474 97.7573 51.5071L95.6449 50.4666C96.1826 49.7442 96.5479 48.9084 96.7129 48.0231C96.9415 46.8265 96.5118 46.1461 95.8742 46.0221C95.0959 45.8732 94.6206 46.4974 93.7216 47.9581C92.5042 49.9619 91.1863 50.7616 89.4668 50.4331Z" fill="#4EEC91"/>
<path d="M97.2684 25.9209C99.1296 25.9209 100.638 24.4121 100.638 22.5509C100.638 20.6898 99.1296 19.181 97.2684 19.181C95.4072 19.181 93.8984 20.6898 93.8984 22.5509C93.8984 24.4121 95.4072 25.9209 97.2684 25.9209Z" fill="#1EBC61"/>
<g opacity="0.3">
<path d="M124.066 35.7521L120.567 50.4031H98.6523C97.6703 48.3941 97.1612 46.187 97.1641 43.9508C97.1641 35.8325 103.744 29.2495 111.862 29.2495C114.274 29.2484 116.649 29.8411 118.777 30.9752C120.905 32.1092 122.722 33.7498 124.066 35.7521Z" fill="#66142E"/>
</g>
<path d="M112.378 51.3905H69.3027C69.1762 51.3903 69.0513 51.3616 68.9374 51.3064C68.8236 51.2511 68.7237 51.1708 68.6453 51.0715C68.5669 50.9722 68.5119 50.8564 68.4846 50.7329C68.4573 50.6093 68.4583 50.4812 68.4875 50.3581L77.7823 11.4455C77.8078 11.3384 77.8542 11.2375 77.9187 11.1484C77.9833 11.0593 78.0648 10.9838 78.1585 10.9262C78.2523 10.8686 78.3565 10.83 78.4652 10.8127C78.5738 10.7955 78.6849 10.7997 78.7919 10.8254C79.7574 11.0543 80.7744 10.8911 81.6199 10.3717C82.4654 9.85224 83.0706 9.01884 83.3028 8.05406C83.3545 7.8378 83.49 7.65092 83.6794 7.53452C83.8689 7.41811 84.0968 7.3817 84.3131 7.43329L116.152 15.0387C116.259 15.0642 116.36 15.1106 116.449 15.1751C116.538 15.2397 116.614 15.3212 116.671 15.4149C116.729 15.5087 116.768 15.6128 116.785 15.7215C116.802 15.8302 116.798 15.9412 116.773 16.0483C116.543 17.0139 116.706 18.0311 117.226 18.8768C117.745 19.7224 118.579 20.3275 119.544 20.5592C119.651 20.5848 119.752 20.6311 119.841 20.6957C119.93 20.7602 120.006 20.8417 120.063 20.9355C120.121 21.0292 120.16 21.1334 120.177 21.2421C120.194 21.3507 120.19 21.4618 120.165 21.5688L113.193 50.7476C113.149 50.9308 113.045 51.0938 112.897 51.2105C112.749 51.3271 112.566 51.3905 112.378 51.3905ZM70.3646 49.7145H111.717L118.353 21.9322C117.292 21.4947 116.397 20.7323 115.796 19.7545C115.196 18.7766 114.92 17.6336 115.01 16.4894L84.6757 9.24196C84.2382 10.3029 83.4758 11.1979 82.4979 11.7985C81.5201 12.3991 80.3771 12.6745 79.233 12.5851L70.3646 49.7145Z" fill="#66142E"/>
<g opacity="0.3">
<path d="M119.954 81.6948V140.808C119.954 143.684 117.624 146.024 114.762 146.024C114.407 146.024 114.053 145.987 113.706 145.913L113.625 145.9L27.1334 125.547C26.7605 125.46 26.3977 125.334 26.0508 125.172C63.1125 126.429 100.087 111.345 119.954 81.6948Z" fill="#66142E"/>
</g>
<path d="M133.232 46.004C131.367 54.5177 122.953 59.9075 114.439 58.0426C112.365 57.5902 110.403 56.723 108.673 55.4931C106.942 54.2631 105.478 52.6959 104.369 50.8856C103.92 50.1592 103.533 49.3968 103.211 48.6064C102.039 45.7575 101.731 42.6263 102.328 39.6039C102.352 39.4852 102.374 39.3693 102.4 39.252C104.266 30.7382 112.681 25.345 121.194 27.2107C125.105 28.0656 128.545 30.3762 130.814 33.6738C131.297 34.3792 131.723 35.1218 132.088 35.8947C133.576 39.0465 133.977 42.6027 133.228 46.0067L133.232 46.004Z" fill="#F7C714"/>
<g opacity="0.55">
<path d="M133.223 46.004C133.138 46.3895 133.04 46.7696 132.93 47.1437C134.094 39.0375 128.81 31.2846 120.682 29.5041C112.554 27.7236 104.514 32.557 102.18 40.4071C102.236 40.0229 102.305 39.6368 102.39 39.2513C104.255 30.7376 112.67 25.3444 121.183 27.2101C129.697 29.0757 135.089 37.4876 133.223 46.004Z" fill="white"/>
</g>
<path d="M133.224 46.0041C131.359 54.5179 122.945 59.9077 114.431 58.0427C105.917 56.1777 100.527 47.7632 102.392 39.2494C102.551 38.5227 102.761 37.8081 103.02 37.1109C102.434 44.8289 107.605 51.9986 115.382 53.702C123.159 55.4054 130.854 51.0554 133.549 43.7992C133.493 44.5409 133.384 45.2777 133.224 46.0041Z" fill="#F89E1D"/>
<path d="M115.459 53.3755C109.532 52.077 105.766 46.1985 107.065 40.2704C108.363 34.3422 114.242 30.5774 120.17 31.8759C126.098 33.1744 129.863 39.0536 128.564 44.9804C127.266 50.9072 121.387 54.674 115.459 53.3755Z" fill="#F9DD6A"/>
<g opacity="0.55">
<path d="M128.555 44.9818C128.488 45.2714 128.416 45.5563 128.332 45.8339C129.103 40.2108 125.421 34.8297 119.784 33.5948C114.147 32.36 108.553 35.7085 106.902 41.1392C106.943 40.8516 106.993 40.5614 107.057 40.2718C108.355 34.3443 114.234 30.5768 120.161 31.8753C126.088 33.1738 129.853 39.0544 128.555 44.9818Z" fill="white"/>
</g>
<path d="M121.137 45.8238C120.828 47.2316 119.736 48.3042 117.908 48.463L117.532 50.1745L115.351 49.6972L115.667 48.2525C114.465 47.9582 113.372 47.3891 112.852 46.9272L113.822 44.9516C114.426 45.447 115.394 46.0242 116.473 46.2608C117.635 46.5156 118.35 46.1677 118.512 45.4383C118.664 44.7431 118.221 44.2316 116.982 43.4533C115.267 42.4002 114.281 41.107 114.636 39.48C114.971 37.9422 116.283 36.9239 118.159 36.8897L118.535 35.1722L120.716 35.6502L120.366 37.247C121.072 37.4619 121.736 37.7936 122.332 38.2284L121.32 40.1464C120.668 39.6343 119.908 39.2775 119.097 39.1033C118.001 38.8633 117.363 39.2434 117.235 39.8259C117.079 40.5379 117.641 40.991 118.963 41.8545C120.779 43.0169 121.482 44.2491 121.137 45.8238Z" fill="#66142E"/>
<g opacity="0.27">
<path d="M130.814 33.6713L103.211 48.6039C102.039 45.755 101.731 42.6238 102.328 39.6014L123.767 28.0039C126.62 29.1622 129.071 31.1328 130.814 33.6713Z" fill="#FCE5E5"/>
</g>
<g opacity="0.27">
<path d="M133.241 39.2909L107.282 54.2242C105.902 53.0979 105.288 52.388 104.363 50.885L132.086 35.8914C132.837 37.4802 133.057 37.5077 133.241 39.2909Z" fill="#FCE5E5"/>
</g>
<path d="M117.817 54.4696C115.367 54.4692 112.978 53.7088 110.978 52.2931C108.979 50.8775 107.468 48.8763 106.653 46.5656C105.839 44.255 105.762 41.7486 106.432 39.3922C107.103 37.0358 108.488 34.9454 110.396 33.4093C112.305 31.8732 114.643 30.9671 117.088 30.8158C119.533 30.6646 121.965 31.2758 124.048 32.5651C126.132 33.8543 127.764 35.7582 128.719 38.0141C129.675 40.2699 129.907 42.7667 129.384 45.1601C128.172 50.6887 123.258 54.4696 117.817 54.4696ZM117.803 32.4565C115.12 32.48 112.556 33.5627 110.668 35.4686C108.78 37.3746 107.721 39.9493 107.723 42.632C107.725 45.3148 108.787 47.8881 110.678 49.7914C112.568 51.6947 115.134 52.7738 117.817 52.7937C122.489 52.7937 126.707 49.5484 127.747 44.8014C128.32 42.1678 127.826 39.4142 126.372 37.1446C124.918 34.875 122.623 33.2746 119.991 32.6945C119.272 32.5368 118.539 32.4571 117.803 32.4565Z" fill="#66142E"/>
<path d="M117.815 59.4156C116.606 59.4153 115.4 59.2842 114.219 59.0248C111.646 58.4691 109.242 57.3097 107.205 55.6421C105.744 54.4499 104.494 53.0203 103.508 51.4134C101.305 47.8255 100.531 43.5406 101.34 39.409C101.367 39.2709 101.391 39.1536 101.417 39.0342C103.398 29.9915 112.365 24.2444 121.408 26.226C125.568 27.1364 129.226 29.594 131.641 33.1007C132.155 33.8507 132.608 34.64 132.998 35.4611C134.583 38.8138 135.01 42.5976 134.213 46.2193C132.493 54.056 125.527 59.4156 117.815 59.4156ZM117.81 27.8463C111.02 27.8463 104.889 32.5651 103.378 39.4646C103.355 39.5699 103.334 39.6738 103.31 39.779C102.891 41.9201 102.95 44.1276 103.485 46.243C104.019 48.3584 105.015 50.3292 106.401 52.0141C107.787 53.699 109.529 55.0562 111.502 55.9881C113.475 56.9201 115.63 57.4038 117.811 57.4045C124.601 57.4045 130.732 52.6871 132.243 45.7889C132.944 42.6034 132.57 39.2751 131.177 36.3252C130.834 35.6006 130.434 34.9044 129.98 34.2431C128.62 32.272 126.803 30.6605 124.683 29.5468C122.563 28.4332 120.205 27.8508 117.81 27.8497V27.8463Z" fill="#66142E"/>
<path d="M155.244 105.848L152.315 103.388C151.982 103.108 151.768 102.711 151.718 102.278C151.668 101.846 151.786 101.411 152.047 101.063C152.065 101.038 152.087 101.012 152.106 100.988L166.224 84.1833C166.515 83.8376 166.931 83.6214 167.381 83.5823C167.831 83.5432 168.278 83.6844 168.624 83.9748L171.553 86.4357C171.898 86.7262 172.114 87.1421 172.153 87.5919C172.193 88.0417 172.051 88.4886 171.761 88.8343L157.642 105.642C157.498 105.813 157.322 105.954 157.124 106.057C156.925 106.16 156.708 106.223 156.486 106.242C156.263 106.261 156.039 106.236 155.825 106.168C155.612 106.101 155.415 105.992 155.244 105.848Z" fill="#F7C714"/>
<path d="M156.337 106.414C155.897 106.414 155.472 106.259 155.135 105.976L152.206 103.516C151.84 103.208 151.606 102.772 151.551 102.297C151.497 101.822 151.626 101.345 151.912 100.962C151.932 100.936 151.956 100.906 151.979 100.88L166.097 84.0753C166.417 83.6961 166.874 83.4592 167.368 83.4163C167.862 83.3735 168.352 83.5282 168.732 83.8467L171.661 86.307C172.041 86.6265 172.277 87.0834 172.32 87.5774C172.363 88.0714 172.208 88.5622 171.89 88.9422L157.771 105.747C157.595 105.957 157.376 106.125 157.128 106.24C156.88 106.355 156.61 106.414 156.337 106.414ZM155.351 105.72C155.663 105.981 156.066 106.108 156.471 106.073C156.877 106.038 157.252 105.843 157.514 105.532L171.632 88.727C171.893 88.4151 172.021 88.0121 171.985 87.6066C171.95 87.201 171.756 86.826 171.444 86.5637L168.513 84.1028C168.201 83.8415 167.798 83.7147 167.393 83.75C166.988 83.7853 166.613 83.9799 166.351 84.2912L152.232 101.096C152.214 101.117 152.195 101.14 152.18 101.163C151.944 101.477 151.838 101.869 151.882 102.259C151.927 102.649 152.119 103.007 152.42 103.26L155.351 105.72Z" fill="#66142E"/>
<path d="M158.795 93.0531L152.688 100.321L158.223 104.973L164.33 97.7047L158.795 93.0531Z" fill="#F89E1D"/>
<g opacity="0.55">
<path d="M165.494 85.082L162.527 88.6125L168.063 93.2642L171.03 89.7336L165.494 85.082Z" fill="#FCE5E5"/>
</g>
<path d="M156.332 107.251C155.696 107.252 155.08 107.026 154.594 106.615L151.665 104.155C151.393 103.926 151.168 103.646 151.004 103.331C150.84 103.015 150.74 102.67 150.709 102.316C150.679 101.961 150.718 101.604 150.825 101.265C150.932 100.926 151.105 100.612 151.334 100.339L165.452 83.5356C165.914 82.9856 166.575 82.6413 167.291 82.5785C168.006 82.5156 168.717 82.7393 169.268 83.2005L172.198 85.6648C172.748 86.127 173.092 86.7887 173.154 87.5044C173.216 88.2201 172.991 88.9312 172.529 89.4812L158.411 106.285C158.183 106.558 157.903 106.783 157.588 106.947C157.272 107.111 156.927 107.211 156.572 107.241C156.491 107.251 156.411 107.251 156.332 107.251ZM167.527 84.5808C167.425 84.5803 167.324 84.6023 167.232 84.6452C167.139 84.688 167.057 84.7507 166.991 84.8288L152.873 101.633C152.755 101.775 152.697 101.958 152.713 102.142C152.729 102.326 152.817 102.497 152.959 102.616L155.887 105.075C156.029 105.194 156.212 105.252 156.396 105.237C156.488 105.229 156.576 105.203 156.657 105.161C156.739 105.119 156.811 105.061 156.87 104.991L170.991 88.1887C171.11 88.0471 171.168 87.864 171.152 87.6797C171.136 87.4954 171.047 87.325 170.906 87.206L167.978 84.7457C167.852 84.6394 167.692 84.5816 167.527 84.5828L167.527 84.5808Z" fill="#66142E"/>
<path d="M23.5274 81.7095C17.9633 75.6607 11.4902 72.3872 8.29115 73.8084C8.29115 73.8084 3.82846 74.7711 2.24034 79.75C0.36329 82.9959 3.02937 89.6125 8.71683 95.7987C13.0743 100.534 17.9861 103.569 21.454 103.982C21.454 103.982 26.7962 105.457 30.0348 97.7053C31.8991 94.7147 29.1827 87.8615 23.5274 81.7095Z" fill="#F7C714"/>
<path d="M22.4752 104.254C22.116 104.26 21.7573 104.224 21.4067 104.146C17.7866 103.715 12.8647 100.558 8.59377 95.9134C2.86005 89.6789 0.187265 83.008 2.08644 79.683C3.63903 74.8462 7.9187 73.726 8.2378 73.6496C11.585 72.1815 18.0628 75.5193 23.6511 81.5969C29.2983 87.7382 32.1038 94.7021 30.1772 97.7958C27.802 103.479 24.2397 104.254 22.4752 104.254ZM10.0203 73.6456C9.40023 73.6456 8.84114 73.7488 8.35914 73.9627L8.32696 73.9734C8.28271 73.9828 3.93868 74.9789 2.40017 79.8056L2.38542 79.8385C0.541221 83.0322 3.19591 89.5502 8.84047 95.6895C12.9968 100.209 17.9535 103.399 21.4703 103.821C21.5481 103.839 26.7355 105.161 29.8802 97.6463C31.7425 94.6524 28.9531 87.8622 23.4044 81.8255C18.8163 76.8345 13.4701 73.6456 10.0203 73.6456Z" fill="#66142E"/>
<path d="M15.6154 93.24L11.0273 98.3972L19.3554 104.296C19.3554 104.296 23.9616 100.493 24.3363 99.5636C24.3363 99.5616 15.3734 95.4596 15.6154 93.24Z" fill="#F89E1D"/>
<g opacity="0.55">
<path d="M7.65483 81.2712L3.23438 88.0755L6.6801 93.5632L10.8559 88.3162L7.65483 81.2712Z" fill="#FCE5E5"/>
</g>
<g opacity="0.55">
<path d="M6.7817 77.2729C6.7817 77.2729 4.125 78.3241 3.71742 81.9293C3.71742 81.9293 2.53219 85.4153 4.58287 88.6069C4.58287 88.6069 1.83433 82.9758 1.64864 82.5166C1.46294 82.0574 3.50893 76.1527 3.50893 76.1527L5.47246 75.1472L6.7817 77.2729Z" fill="white"/>
</g>
<g opacity="0.55">
<path d="M16.0091 76.8405C16.0091 76.8405 12.9884 75.6526 10.5047 75.6339C9.13107 75.6238 8.03031 76.7212 8.07657 78.0941C8.1369 79.8941 8.74694 83.0006 11.2642 87.7415L6.83972 80.2105C6.83972 80.2105 6.38052 75.1666 7.69043 73.9365C7.6911 73.9372 13.0977 73.0321 16.0091 76.8405Z" fill="white"/>
</g>
<path d="M24.8328 93.2269C26.2614 91.9072 24.359 87.5242 20.5836 83.4371C16.8083 79.3501 12.5896 77.1067 11.161 78.4264C9.73234 79.746 11.6348 84.1291 15.4102 88.2161C19.1855 92.3031 23.4042 94.5465 24.8328 93.2269Z" fill="#F9DD6A"/>
<path d="M23.7067 93.7683C21.7144 93.7683 18.392 91.6861 15.2881 88.3262C11.3913 84.1075 9.52829 79.7032 11.048 78.3001C12.5678 76.897 16.8133 79.1012 20.7075 83.3199C24.6017 87.5385 26.4673 91.9429 24.9476 93.3467C24.6385 93.6322 24.2162 93.7683 23.7067 93.7683ZM12.2829 78.2116C11.8645 78.2116 11.5213 78.3189 11.2773 78.5468C9.94191 79.7803 11.8927 84.1551 15.5362 88.0996C19.1797 92.0441 23.3876 94.3341 24.7203 93.1013C26.053 91.8685 24.1056 87.4929 20.4614 83.5478C17.4863 80.3286 14.1405 78.2116 12.2829 78.2116Z" fill="#66142E"/>
<path d="M23.7023 94.1235C21.3902 94.1235 17.8064 91.5761 15.025 88.5628C11.539 84.7919 8.87831 79.8231 10.8016 78.0439C12.7249 76.2647 17.4705 79.3123 20.9538 83.0831C24.437 86.854 27.1011 91.8235 25.1771 93.6027C24.7863 93.9613 24.2862 94.1235 23.7023 94.1235ZM12.2758 78.5588C11.9446 78.5588 11.6825 78.6392 11.5048 78.8035C10.4611 79.7681 11.9607 83.726 15.7832 87.8636C19.4957 91.8818 23.4342 93.8078 24.4773 92.8458C25.5204 91.8838 24.0207 87.9232 20.1983 83.785C17.1199 80.4512 13.8847 78.5588 12.2758 78.5588Z" fill="#66142E"/>
<path d="M20.3572 85.0809C21.0175 85.776 21.3098 86.6971 20.9277 87.6115L21.763 88.5038L20.9331 89.382L20.2171 88.6077C19.7204 89.083 19.0889 89.3941 18.6752 89.4624L17.856 88.113C18.3119 88.0265 18.9119 87.7986 19.3456 87.3789C19.8028 86.9365 19.8095 86.4618 19.4623 86.0905C19.1331 85.7392 18.7362 85.7298 17.9687 85.9745C16.8874 86.3318 15.8717 86.25 15.0981 85.3993C14.3748 84.6042 14.2588 83.606 14.8414 82.7942L14.0664 81.9562L14.9935 81.2725L15.7048 82.0313C16.0328 81.8289 16.3971 81.6922 16.7774 81.6291L17.4692 82.7687C17.0363 82.8287 16.6276 83.0042 16.286 83.2769C15.8288 83.6449 15.8335 84.074 16.103 84.3662C16.4382 84.7256 16.8451 84.6619 17.6884 84.4333C18.8013 84.1229 19.6278 84.3119 20.3572 85.0809Z" fill="#66142E"/>
<mask id="mask0_605_662" style="mask-type:luminance" maskUnits="userSpaceOnUse" x="6" y="73" width="25" height="27">
<path d="M29.5222 98.3229C32.3003 95.7682 29.6146 88.3273 23.5234 81.7032C17.4322 75.079 10.2421 71.7801 7.46394 74.3348C4.68576 76.8894 7.3715 84.3303 13.4627 90.9545C19.5539 97.5786 26.744 100.878 29.5222 98.3229Z" fill="white"/>
</mask>
<g mask="url(#mask0_605_662)">
<g opacity="0.27">
<path d="M30.3775 88.605L3.47266 86.1065C3.99451 83.5062 5.27112 81.1174 7.14296 79.2385L28.0359 81.1826C29.5264 83.3741 30.3406 85.955 30.3775 88.605Z" fill="#FCE5E5"/>
</g>
<g opacity="0.27">
<path d="M29.4258 93.7911L3.70011 92.0803C3.24962 90.6142 3.14973 89.8124 3.20537 88.2947L30.2215 90.8052C30.0016 92.3015 30.1457 92.4269 29.4258 93.7911Z" fill="#FCE5E5"/>
</g>
</g>
<path d="M26.9777 100.034C25.6537 100.034 24.0998 99.6393 22.383 98.8517C19.2503 97.4144 15.8629 94.814 12.8429 91.5305C6.34023 84.458 3.72577 76.6361 6.89531 73.7233C10.0648 70.8105 17.6381 74.0699 24.1407 81.1424C27.1574 84.4272 29.4675 88.0204 30.6373 91.265C31.8923 94.7423 31.6978 97.472 30.0889 98.9515C29.3019 99.6755 28.2454 100.034 26.9777 100.034ZM9.9797 74.3354C9.15111 74.3354 8.48476 74.5418 8.03159 74.9581C5.94471 76.8774 7.91495 83.6878 14.079 90.3922C16.9516 93.5155 20.1493 95.9778 23.0829 97.3239C25.7496 98.5473 27.8888 98.6888 28.952 97.7113C30.0152 96.7339 30.0534 94.5901 29.0579 91.8308C27.9618 88.794 25.7731 85.4012 22.9045 82.278C18.0805 77.0296 12.9702 74.3354 9.9797 74.3354Z" fill="#66142E"/>
<path d="M22.4438 105.249C22.0478 105.252 21.6524 105.216 21.2633 105.143C17.3932 104.66 12.2594 101.389 7.85106 96.5939C4.37047 92.809 2.06103 89.1936 0.988429 85.8485C-0.703598 80.5894 1.96114 74.9374 7.05465 72.9826C7.33462 72.8734 7.61989 72.7783 7.90938 72.6977C11.7124 71.1109 18.4664 74.4729 24.3919 80.9165C30.3824 87.4319 33.1778 94.6887 31.0842 98.2417C28.4805 104.381 24.4898 105.249 22.4438 105.249ZM21.7513 102.85C21.9611 102.903 26.1885 103.855 28.9504 97.2549C28.9747 97.1968 29.0036 97.1407 29.0369 97.0873C30.4025 94.8945 28.3531 88.6955 22.6617 82.5053C17.0975 76.4538 11.1171 73.838 8.76478 74.8818C8.69985 74.91 8.63255 74.9325 8.56367 74.9488C8.33629 75.0104 8.11249 75.0844 7.89329 75.1707C3.96221 76.6797 1.90952 81.0539 3.22011 85.1285C4.19081 88.1452 6.33065 91.4709 9.57929 95.0038C13.5821 99.3572 18.2942 102.423 21.5884 102.816C21.6434 102.824 21.6978 102.835 21.7513 102.85Z" fill="#66142E"/>
</svg>
