<svg width="25" height="24" viewBox="0 0 25 24" fill="none" xmlns="http://www.w3.org/2000/svg">
<path fill-rule="evenodd" clip-rule="evenodd" d="M11.2076 2.23993C11.6874 1.92002 12.3126 1.92002 12.7924 2.23993L21.3639 7.95421C21.72 8.19161 21.9509 8.57618 21.993 9.00208C22.0352 9.428 21.8842 9.85037 21.5816 10.153L20.5714 11.1632V17.7149C21.4064 18.0319 22 18.8394 22 19.7857C22 21.0086 21.0086 22 19.7857 22H4.21429C2.99137 22 2 21.0086 2 19.7857C2 18.8394 2.59352 18.0319 3.42857 17.7149V11.1632L2.41843 10.153C2.11579 9.85037 1.96479 9.428 2.00696 9.00208C2.04913 8.57618 2.28005 8.19161 2.63615 7.95421L11.2076 2.23993ZM14.8572 10.5714C15.6462 10.5714 16.2857 11.211 16.2857 12V16.2857C16.2857 17.0747 15.6462 17.7143 14.8572 17.7143C14.0682 17.7143 13.4286 17.0747 13.4286 16.2857V12C13.4286 11.211 14.0682 10.5714 14.8572 10.5714ZM10.5714 12C10.5714 11.211 9.93183 10.5714 9.14286 10.5714C8.35387 10.5714 7.71429 11.211 7.71429 12V16.2857C7.71429 17.0747 8.35387 17.7143 9.14286 17.7143C9.93183 17.7143 10.5714 17.0747 10.5714 16.2857V12Z" fill="white" fill-opacity="0.4"/>
<path d="M21.0865 8.37024L21.0866 8.37025C21.318 8.52454 21.4681 8.77447 21.4954 9.05132C21.5228 9.32818 21.4247 9.60273 21.228 9.79946C21.228 9.79947 21.228 9.79949 21.228 9.7995L20.2179 10.8096L20.0714 10.956V11.1632V17.7149V18.0599L20.394 18.1823C21.0413 18.428 21.5 19.0539 21.5 19.7857C21.5 20.7324 20.7324 21.5 19.7857 21.5H4.21429C3.26753 21.5 2.5 20.7324 2.5 19.7857C2.5 19.0539 2.95873 18.428 3.60603 18.1823L3.92857 18.0599V17.7149V11.1632V10.956L3.78213 10.8096L2.77198 9.79946C2.57526 9.60274 2.47711 9.3282 2.50453 9.05135C2.53194 8.77452 2.68203 8.52455 2.9135 8.37024L11.4849 2.65595C11.7968 2.44802 12.2032 2.44802 12.5151 2.65595L21.0865 8.37024ZM16.7857 12C16.7857 10.9349 15.9223 10.0714 14.8572 10.0714C13.792 10.0714 12.9286 10.9349 12.9286 12V16.2857C12.9286 17.3509 13.792 18.2143 14.8572 18.2143C15.9223 18.2143 16.7857 17.3509 16.7857 16.2857V12ZM11.0714 12C11.0714 10.9349 10.208 10.0714 9.14286 10.0714C8.07773 10.0714 7.21429 10.9349 7.21429 12V16.2857C7.21429 17.3509 8.07774 18.2143 9.14286 18.2143C10.208 18.2143 11.0714 17.3509 11.0714 16.2857V12Z" stroke="white" stroke-opacity="0.8"/>
</svg>
