<svg width="25" height="24" viewBox="0 0 25 24" fill="none" xmlns="http://www.w3.org/2000/svg">
<path fill-rule="evenodd" clip-rule="evenodd" d="M2.83482 7.875C2.29482 9.002 2.48482 10.321 2.86482 12.958L3.14282 14.895C3.62982 18.283 3.87382 19.976 5.04882 20.988C6.22382 22 7.94682 22 11.3938 22H13.6058C17.0528 22 18.7758 22 19.9508 20.988C21.1258 19.976 21.3698 18.283 21.8568 14.895L22.1358 12.958C22.5158 10.321 22.7058 9.002 22.1648 7.875C21.6248 6.748 20.4738 6.062 18.1728 4.692L16.7878 3.867C14.6998 2.622 13.6538 2 12.4998 2C11.3458 2 10.3008 2.622 8.21182 3.867L6.82682 4.692C4.52682 6.062 3.37582 6.748 2.83482 7.875ZM12.4998 18.75C12.3009 18.75 12.1101 18.671 11.9695 18.5303C11.8288 18.3897 11.7498 18.1989 11.7498 18V15C11.7498 14.8011 11.8288 14.6103 11.9695 14.4697C12.1101 14.329 12.3009 14.25 12.4998 14.25C12.6987 14.25 12.8895 14.329 13.0302 14.4697C13.1708 14.6103 13.2498 14.8011 13.2498 15V18C13.2498 18.1989 13.1708 18.3897 13.0302 18.5303C12.8895 18.671 12.6987 18.75 12.4998 18.75Z" fill="white" fill-opacity="0.4"/>
<path d="M3.35975 12.887L3.35971 12.8867C3.16815 11.5574 3.03087 10.5998 3.00453 9.83308C2.97861 9.07876 3.06295 8.55608 3.28567 8.09119C3.50904 7.62596 3.86511 7.23057 4.47178 6.77419C5.08809 6.31055 5.92344 5.81208 7.0827 5.12157L7.0827 5.12157L8.4677 4.29657L8.4678 4.29651C9.52081 3.66894 10.2794 3.2177 10.9179 2.91971C11.5462 2.62649 12.0214 2.5 12.4998 2.5C12.9783 2.5 13.4538 2.62651 14.0821 2.91972C14.7207 3.21769 15.4793 3.66892 16.5318 4.29645L16.5319 4.29657L17.9169 5.12157L17.917 5.12162C19.0768 5.81213 19.9123 6.31058 20.5286 6.77419C21.1353 7.2306 21.4911 7.62593 21.7139 8.09105L21.7141 8.09138C21.9372 8.55623 22.0218 9.07885 21.996 9.83316C21.9698 10.5998 21.8325 11.5574 21.6409 12.8867L21.6409 12.8867L21.3619 14.8237L21.3619 14.8239C21.1166 16.5308 20.9382 17.7639 20.6799 18.6994C20.4254 19.621 20.1086 20.1922 19.6245 20.6091C19.1401 21.0264 18.5246 21.2574 17.5681 21.3774C16.5979 21.4991 15.3423 21.5 13.6058 21.5H11.3938C9.65738 21.5 8.40173 21.4991 7.43155 21.3774C6.47507 21.2574 5.85952 21.0264 5.37512 20.6091C4.89105 20.1922 4.57427 19.621 4.31978 18.6994C4.06147 17.764 3.8831 16.5308 3.63775 14.824C3.63775 14.8239 3.63774 14.8239 3.63774 14.8239L3.35975 12.887ZM11.6159 18.8839C11.8504 19.1183 12.1683 19.25 12.4998 19.25C12.8313 19.25 13.1493 19.1183 13.3837 18.8839C13.6181 18.6495 13.7498 18.3315 13.7498 18V15C13.7498 14.6685 13.6181 14.3505 13.3837 14.1161C13.1493 13.8817 12.8313 13.75 12.4998 13.75C12.1683 13.75 11.8504 13.8817 11.6159 14.1161C11.3815 14.3505 11.2498 14.6685 11.2498 15V18C11.2498 18.3315 11.3815 18.6495 11.6159 18.8839Z" stroke="white" stroke-opacity="0.8"/>
</svg>
