<svg width="10" height="11" viewBox="0 0 10 11" fill="none" xmlns="http://www.w3.org/2000/svg">
<path d="M4.73684 0.236816C3.62014 0.236816 2.54918 0.680424 1.75955 1.47005C0.969924 2.25968 0.526316 3.33064 0.526316 4.44734V5.44734C0.367544 5.58568 0.238897 5.75518 0.148359 5.94531C0.0578204 6.13544 0.00732293 6.34215 0 6.55261C0.0119881 6.85779 0.115888 7.15223 0.298086 7.39735C0.480283 7.64248 0.732279 7.82684 1.02105 7.92629C1.70526 9.56313 3.07895 10.7631 4.73684 10.7631H6.31579V9.7105H4.73684C3.54737 9.7105 2.46842 8.81576 1.92632 7.39997L1.81579 7.1105L1.50526 7.07892C1.3788 7.06105 1.26315 6.9978 1.17988 6.90096C1.0966 6.80413 1.05137 6.68032 1.05263 6.55261C1.05319 6.46076 1.07777 6.37065 1.12393 6.29125C1.1701 6.21184 1.23624 6.1459 1.31579 6.09997L1.57895 5.94734V4.97366C1.57895 4.83407 1.6344 4.7002 1.7331 4.6015C1.83181 4.50279 1.96568 4.44734 2.10526 4.44734H7.36842C7.50801 4.44734 7.64188 4.50279 7.74058 4.6015C7.83929 4.7002 7.89474 4.83407 7.89474 4.97366V7.60524H5.74211C5.69433 7.47125 5.61123 7.35267 5.50161 7.26201C5.39199 7.17136 5.25991 7.11201 5.11933 7.09024C4.97876 7.06847 4.83492 7.08508 4.70301 7.13832C4.5711 7.19157 4.45602 7.27946 4.36995 7.39271C4.28388 7.50597 4.23 7.64037 4.21402 7.78172C4.19804 7.92307 4.22055 8.06611 4.27917 8.19572C4.33778 8.32534 4.43033 8.4367 4.54702 8.51805C4.66371 8.5994 4.80022 8.64771 4.94211 8.65787H8.94737C9.22654 8.65787 9.49428 8.54697 9.69169 8.34956C9.8891 8.15215 10 7.88441 10 7.60524V6.55261C10 6.27343 9.8891 6.00569 9.69169 5.80828C9.49428 5.61088 9.22654 5.49997 8.94737 5.49997V4.44734C8.94737 3.33064 8.50376 2.25968 7.71413 1.47005C6.92451 0.680424 5.85354 0.236816 4.73684 0.236816Z" fill="#00BA77"/>
</svg>
