<svg width="25" height="24" viewBox="0 0 25 24" fill="none" xmlns="http://www.w3.org/2000/svg">
<path d="M4.97656 4.875H19.9766C20.2409 4.87487 20.4638 4.64848 20.3828 4.39683C20.309 4.16759 20.2085 3.94717 20.083 3.74024C19.8664 3.38308 19.5797 3.07348 19.2402 2.83012C18.9007 2.58676 18.5154 2.41467 18.1076 2.32423C17.6998 2.2338 17.2779 2.22688 16.8673 2.3039L4.53779 4.40888C4.53344 4.40962 4.52903 4.41 4.52461 4.41C4.51967 4.41 4.51474 4.41046 4.50989 4.4114C4.50057 4.41321 4.49127 4.41505 4.48198 4.41694C4.06213 4.50228 4.30688 4.90651 4.7346 4.88182C4.815 4.87718 4.89569 4.87489 4.97656 4.875ZM19.9766 6H4.97656C4.18118 6.00086 3.41862 6.31721 2.8562 6.87963C2.29378 7.44206 1.97743 8.20461 1.97656 9V18C1.97743 18.7954 2.29378 19.5579 2.8562 20.1204C3.41862 20.6828 4.18118 20.9991 4.97656 21H19.9766C20.7719 20.9991 21.5345 20.6828 22.0969 20.1204C22.6593 19.5579 22.9757 18.7954 22.9766 18V9C22.9757 8.20461 22.6593 7.44206 22.0969 6.87963C21.5345 6.31721 20.7719 6.00086 19.9766 6ZM17.75 15C17.4533 15 17.1633 14.912 16.9166 14.7472C16.67 14.5824 16.4777 14.3481 16.3642 14.074C16.2506 13.7999 16.2209 13.4983 16.2788 13.2074C16.3367 12.9164 16.4796 12.6491 16.6893 12.4393C16.8991 12.2296 17.1664 12.0867 17.4574 12.0288C17.7483 11.9709 18.0499 12.0006 18.324 12.1142C18.5981 12.2277 18.8324 12.42 18.9972 12.6666C19.162 12.9133 19.25 13.2033 19.25 13.5C19.25 13.8978 19.092 14.2794 18.8107 14.5607C18.5294 14.842 18.1478 15 17.75 15Z" fill="white"/>
<path d="M2 12.1641V7.5C2 6.48422 2.5625 4.78125 4.51484 4.41234C6.17188 4.10156 7.8125 4.10156 7.8125 4.10156C7.8125 4.10156 8.89062 4.85156 8 4.85156C7.10938 4.85156 7.13281 6 8 6C8.86719 6 8 7.10156 8 7.10156L4.50781 11.0625L2 12.1641Z" fill="white" fill-opacity="0.4"/>
<path d="M6.81646 4.63942C6.96166 4.63028 7.09506 4.62335 7.21386 4.61809C7.19248 4.63601 7.17177 4.65481 7.15176 4.67448C6.93935 4.88335 6.83808 5.16023 6.84085 5.43088C6.84608 5.94369 7.21561 6.40274 7.80441 6.48643C7.774 6.54384 7.73882 6.60192 7.70388 6.65518C7.67547 6.69849 7.64994 6.73451 7.63192 6.75916C7.62432 6.76955 7.61816 6.77778 7.61381 6.78354L4.20572 10.6491L2.5 11.3983V7.5C2.5 6.61244 2.98664 5.21013 4.60734 4.90371C5.40876 4.75343 6.21117 4.67752 6.81646 4.63942Z" stroke="white" stroke-opacity="0.8"/>
</svg>
