<svg width="25" height="24" viewBox="0 0 25 24" fill="none" xmlns="http://www.w3.org/2000/svg">
<path d="M4.97656 4.87512H19.9766C20.1518 4.87504 20.3268 4.88615 20.5006 4.9084C20.4417 4.49486 20.2997 4.09752 20.083 3.74036C19.8664 3.3832 19.5797 3.07361 19.2402 2.83025C18.9007 2.58688 18.5154 2.4148 18.1076 2.32436C17.6998 2.23392 17.2779 2.227 16.8673 2.30402L4.53125 4.41012H4.51719C3.74285 4.55819 3.05425 4.9963 2.59203 5.63496C3.2884 5.13965 4.122 4.87401 4.97656 4.87512ZM19.9766 6.00012H4.97656C4.18118 6.00099 3.41862 6.31734 2.8562 6.87976C2.29378 7.44218 1.97743 8.20474 1.97656 9.00012V18.0001C1.97743 18.7955 2.29378 19.5581 2.8562 20.1205C3.41862 20.6829 4.18118 20.9993 4.97656 21.0001H19.9766C20.7719 20.9993 21.5345 20.6829 22.0969 20.1205C22.6593 19.5581 22.9757 18.7955 22.9766 18.0001V9.00012C22.9757 8.20474 22.6593 7.44218 22.0969 6.87976C21.5345 6.31734 20.7719 6.00099 19.9766 6.00012ZM17.75 15.0001C17.4533 15.0001 17.1633 14.9121 16.9166 14.7473C16.67 14.5825 16.4777 14.3482 16.3642 14.0741C16.2506 13.8001 16.2209 13.4985 16.2788 13.2075C16.3367 12.9165 16.4796 12.6492 16.6893 12.4395C16.8991 12.2297 17.1664 12.0868 17.4574 12.0289C17.7483 11.9711 18.0499 12.0008 18.324 12.1143C18.5981 12.2278 18.8324 12.4201 18.9972 12.6668C19.162 12.9134 19.25 13.2034 19.25 13.5001C19.25 13.8979 19.092 14.2795 18.8107 14.5608C18.5294 14.8421 18.1478 15.0001 17.75 15.0001Z" fill="white" fill-opacity="0.4"/>
<path d="M19.8435 4.37512H7.7073L16.9515 2.79689L16.9515 2.79696L16.9595 2.79545C17.3037 2.73088 17.6575 2.73667 17.9994 2.8125C18.3413 2.88832 18.6643 3.0326 18.9489 3.23663C19.2335 3.44066 19.4739 3.70022 19.6555 3.99965C19.7284 4.11982 19.7912 4.2454 19.8435 4.37512ZM4.9767 6.50012C4.97684 6.50012 4.97697 6.50012 4.97711 6.50012H19.976C19.9762 6.50012 19.9763 6.50012 19.9764 6.50012C20.6392 6.50095 21.2747 6.76462 21.7434 7.23331C22.2122 7.7021 22.4758 8.3377 22.4766 9.00066V17.9996C22.4758 18.6625 22.2122 19.2981 21.7434 19.7669C21.2746 20.2357 20.639 20.4994 19.976 20.5001H4.97711C4.31414 20.4994 3.67854 20.2357 3.20976 19.7669C2.74103 19.2982 2.47736 18.6627 2.47656 17.9998V9.0004C2.47736 8.33753 2.74103 7.70203 3.20975 7.23331C3.67845 6.76462 4.31388 6.50095 4.9767 6.50012ZM16.6389 15.1631C16.9678 15.3828 17.3544 15.5001 17.75 15.5001C18.2804 15.5001 18.7891 15.2894 19.1642 14.9143C19.5393 14.5393 19.75 14.0306 19.75 13.5001C19.75 13.1046 19.6327 12.7179 19.4129 12.389C19.1932 12.0601 18.8808 11.8037 18.5154 11.6524C18.1499 11.501 17.7478 11.4614 17.3598 11.5385C16.9719 11.6157 16.6155 11.8062 16.3358 12.0859C16.0561 12.3656 15.8656 12.722 15.7884 13.1099C15.7113 13.4979 15.7509 13.9 15.9022 14.2655C16.0536 14.6309 16.31 14.9433 16.6389 15.1631Z" stroke="white" stroke-opacity="0.8"/>
<path d="M2 12.1641V7.5C2 6.48422 2.5625 4.78125 4.51484 4.41234C6.17188 4.10156 7.8125 4.10156 7.8125 4.10156C7.8125 4.10156 8.89062 4.85156 8 4.85156C7.10938 4.85156 7.13281 6 8 6C8.86719 6 8 7.10156 8 7.10156L4.50781 11.0625L2 12.1641Z" fill="white" fill-opacity="0.4"/>
<path d="M6.81646 4.63942C6.96166 4.63028 7.09506 4.62335 7.21386 4.61809C7.19248 4.63601 7.17177 4.65481 7.15176 4.67448C6.93935 4.88335 6.83808 5.16023 6.84085 5.43088C6.84608 5.94369 7.21561 6.40274 7.80441 6.48643C7.774 6.54384 7.73882 6.60192 7.70388 6.65518C7.67547 6.69849 7.64994 6.73451 7.63192 6.75916C7.62432 6.76955 7.61816 6.77778 7.61381 6.78354L4.20572 10.6491L2.5 11.3983V7.5C2.5 6.61244 2.98664 5.21013 4.60734 4.90371C5.40876 4.75343 6.21117 4.67752 6.81646 4.63942Z" stroke="white" stroke-opacity="0.8"/>
</svg>
